<svg id="Layer_1" data-name="Layer 1" xmlns="http://www.w3.org/2000/svg" viewBox="0 0 1503 1912.12"><defs><style>.cls-1{fill:#0093d7;}</style></defs><g id="Layer_1-2" data-name="Layer 1-2"><path class="cls-1" d="M1707.24,49H1298.88V71.86c-3.05,65.1-55.94,99.68-111.88,136.29-60,39.16-128.15,83.41-128.15,171.38S1127,511.76,1187,550.91c57.47,37.64,112.39,72.72,112.39,141.38S1245,796,1187,833.66c-60,39.16-128.15,83.4-128.15,171.38S1127,1137.26,1187,1176.42c57.47,37.63,112.39,72.72,112.39,141.38S1245,1421.54,1187,1459.17c-60,39.16-128.15,83.4-128.15,171.38S1127,1762.77,1187,1801.93c55.94,36.61,109.34,71.2,111.88,136.29v22.88h408.36a74.87,74.87,0,0,0,74.76-74.75V123.74A74.87,74.87,0,0,0,1707.24,49ZM1206.33,1771.42c-57.47-37.64-112.39-72.72-112.39-141.38s54.42-103.74,112.39-141.37c60-39.16,128.15-83.4,128.15-171.38s-68.14-132.22-128.15-171.38c-57.47-37.63-112.39-72.72-112.39-141.38s54.42-103.74,112.39-141.37c60-39.16,128.15-83.4,128.15-171.38s-68.14-132.22-128.15-171.38c-57.47-37.63-112.39-72.72-112.39-141.37s54.42-103.75,112.39-141.38c55.94-36.11,119-77.3,127.13-153.58H1482V1924.49h-148.5c-8.64-76.28-71.19-117-127.13-153.58Zm540.58,113.91a39.72,39.72,0,0,1-39.67,39.67H1517.56V84.58h189.68a39.72,39.72,0,0,1,39.67,39.66Z" transform="translate(-279 -48.98)"/><path class="cls-1" d="M674.9,494c-7.12,7.12-7.12,18.3,0,24.91C802.55,646.52,875.78,823.49,875.78,1004s-73.23,357.51-201.39,485.66c-7.12,7.12-7.12,18.31,0,24.92a18.43,18.43,0,0,0,25.43,0C834.08,1379.84,911.37,1194.22,911.37,1004S834.08,628.21,699.82,493.45c-7.12-7.12-18.31-7.12-24.92,0Z" transform="translate(-279 -48.98)"/><path class="cls-1" d="M479.62,689.24c-7.12,7.12-7.12,18.3,0,24.92,77.3,77.8,120,180.53,120,290.37a408.93,408.93,0,0,1-120.53,290.38c-7.12,7.12-7.12,18.31,0,24.92a18.43,18.43,0,0,0,25.43,0c82.89-82.89,130.69-197.82,130.69-315.3A445.36,445.36,0,0,0,504.54,689.24C497.42,682.12,486.23,682.12,479.62,689.24Z" transform="translate(-279 -48.98)"/><path class="cls-1" d="M284.34,884.52c-7.12,7.12-7.12,18.3,0,24.92a133.81,133.81,0,0,1,0,190.19c-7.12,7.12-7.12,18.31,0,24.92a18.43,18.43,0,0,0,25.43,0c31.53-31.53,49.83-75.77,49.83-120a170.66,170.66,0,0,0-49.83-120c-7.12-7.12-18.31-7.12-24.92,0Z" transform="translate(-279 -48.98)"/></g></svg>