<?xml version="1.0" encoding="UTF-8"?>
<svg id="Layer_2" data-name="Layer 2" xmlns="http://www.w3.org/2000/svg" viewBox="0 0 29.56 37.58">
  <defs>
    <style>
      .cls-1 {
        fill: #0093d7;
      }
    </style>
  </defs>
  <g id="Layer_1-2" data-name="Layer 1">
    <g>
      <path class="cls-1" d="M28.08,0h-8.03v.45c-.06,1.28-1.1,1.96-2.2,2.68-1.18.77-2.52,1.64-2.52,3.37s1.34,2.6,2.52,3.37c1.13.74,2.21,1.43,2.21,2.78s-1.07,2.04-2.21,2.78c-1.18.77-2.52,1.64-2.52,3.37s1.34,2.6,2.52,3.37c1.13.74,2.21,1.43,2.21,2.78s-1.07,2.04-2.21,2.78c-1.18.77-2.52,1.64-2.52,3.37s1.34,2.6,2.52,3.37c1.1.72,2.15,1.4,2.2,2.68v.45h8.03c.81,0,1.47-.66,1.47-1.47V1.47c0-.81-.66-1.47-1.47-1.47ZM18.23,33.87c-1.13-.74-2.21-1.43-2.21-2.78s1.07-2.04,2.21-2.78c1.18-.77,2.52-1.64,2.52-3.37s-1.34-2.6-2.52-3.37c-1.13-.74-2.21-1.43-2.21-2.78s1.07-2.04,2.21-2.78c1.18-.77,2.52-1.64,2.52-3.37s-1.34-2.6-2.52-3.37c-1.13-.74-2.21-1.43-2.21-2.78s1.07-2.04,2.21-2.78c1.1-.71,2.34-1.52,2.5-3.02h2.92v36.19h-2.92c-.17-1.5-1.4-2.3-2.5-3.02ZM28.86,36.11c0,.43-.35.78-.78.78h-3.73V.7h3.73c.43,0,.78.35.78.78v34.63Z"/>
      <path class="cls-1" d="M7.78,8.75c-.14.14-.14.36,0,.49,2.51,2.51,3.95,5.99,3.95,9.54s-1.44,7.03-3.96,9.55c-.14.14-.14.36,0,.49.07.07.16.1.25.1s.18-.03.25-.1c2.64-2.65,4.16-6.3,4.16-10.04s-1.52-7.39-4.16-10.04c-.14-.14-.36-.14-.49,0Z"/>
      <path class="cls-1" d="M3.94,12.59c-.14.14-.14.36,0,.49,1.52,1.53,2.36,3.55,2.36,5.71s-.86,4.21-2.37,5.71c-.14.14-.14.36,0,.49.07.07.16.1.25.1s.18-.03.25-.1c1.63-1.63,2.57-3.89,2.57-6.2s-.91-4.54-2.57-6.2c-.14-.14-.36-.14-.49,0Z"/>
      <path class="cls-1" d="M.1,16.43c-.14.14-.14.36,0,.49.5.5.78,1.17.78,1.87s-.28,1.38-.78,1.87c-.14.14-.14.36,0,.49.07.07.16.1.25.1s.18-.03.25-.1c.62-.62.98-1.49.98-2.36s-.35-1.73-.98-2.36c-.14-.14-.36-.14-.49,0Z"/>
    </g>
  </g>
</svg>