<svg width="2938" height="2938" viewBox="0 0 2938 2938" fill="none" xmlns="http://www.w3.org/2000/svg">
<circle cx="1469" cy="1469" r="1469" fill="#272B31" fill-opacity="0.101961"/>
<g clip-path="url(#clip0_2014_88)">
<path d="M2219.73 496.02H1766.63V519.284C1763.24 585.533 1704.56 620.724 1642.49 657.98C1575.91 697.832 1500.3 742.863 1500.3 832.386C1500.3 921.909 1575.91 966.951 1642.49 1006.79C1706.25 1045.1 1767.19 1080.8 1767.19 1150.67C1767.19 1220.54 1706.84 1256.21 1642.49 1294.53C1575.91 1334.39 1500.3 1379.41 1500.3 1468.94C1500.3 1558.47 1575.91 1603.49 1642.49 1643.35C1706.25 1681.64 1767.19 1717.35 1767.19 1787.22C1767.19 1857.09 1706.84 1892.79 1642.49 1931.09C1575.91 1970.94 1500.3 2015.96 1500.3 2105.49C1500.3 2195.03 1575.91 2240.05 1642.49 2279.9C1704.56 2317.16 1763.81 2352.36 1766.63 2418.6V2441.88H2219.73C2241.72 2441.85 2262.8 2433.83 2278.34 2419.57C2293.89 2405.31 2302.64 2385.98 2302.68 2365.81V572.08C2302.64 551.915 2293.89 532.586 2278.34 518.329C2262.79 504.072 2241.71 496.05 2219.73 496.02ZM1663.93 2248.85C1600.17 2210.55 1539.23 2174.85 1539.23 2104.98C1539.23 2035.1 1599.61 1999.4 1663.93 1961.11C1730.51 1921.26 1806.13 1876.24 1806.13 1786.7C1806.13 1697.17 1730.52 1652.15 1663.93 1612.3C1600.17 1574 1539.23 1538.29 1539.23 1468.42C1539.23 1398.55 1599.61 1362.85 1663.93 1324.56C1730.51 1284.7 1806.13 1239.68 1806.13 1150.15C1806.13 1060.62 1730.52 1015.59 1663.93 975.743C1600.17 937.449 1539.23 901.739 1539.23 831.877C1539.23 762.015 1599.61 726.296 1663.93 688.001C1726 651.254 1795.97 609.336 1804.99 531.71H1969.81V2404.62H1805.04C1795.45 2327 1726.05 2285.56 1663.98 2248.33L1663.93 2248.85ZM2263.74 2364.77C2263.73 2375.48 2259.09 2385.74 2250.84 2393.3C2242.59 2400.87 2231.4 2405.13 2219.73 2405.14H2009.27V532.229H2219.73C2231.4 532.242 2242.58 536.498 2250.83 544.064C2259.08 551.63 2263.73 561.888 2263.74 572.589V2364.77Z" fill="#0093D7"/>
<path d="M1074.28 948.877C1066.38 956.123 1066.38 967.5 1074.28 974.227C1215.91 1104.09 1297.17 1284.18 1297.17 1467.88C1297.17 1651.58 1215.91 1831.7 1073.71 1962.12C1065.81 1969.36 1065.81 1980.75 1073.71 1987.48C1077.52 1990.8 1082.57 1992.65 1087.82 1992.65C1093.07 1992.65 1098.13 1990.8 1101.93 1987.48C1250.9 1850.36 1336.66 1661.46 1336.66 1467.88C1336.66 1274.3 1250.9 1085.46 1101.93 948.318C1094.03 941.072 1081.61 941.072 1074.28 948.318V948.877Z" fill="#0093D7"/>
<path d="M857.601 1147.56C849.701 1154.81 849.701 1166.19 857.601 1172.92C943.371 1252.1 990.749 1356.64 990.749 1468.42C990.818 1523.33 979.036 1577.72 956.083 1628.43C933.13 1679.15 899.46 1725.2 857.013 1763.93C849.113 1771.17 849.113 1782.56 857.013 1789.29C860.816 1792.61 865.868 1794.47 871.121 1794.47C876.375 1794.47 881.426 1792.61 885.229 1789.29C977.201 1704.93 1030.24 1587.98 1030.24 1468.42C1030.26 1408.82 1017.46 1349.81 992.586 1294.75C967.707 1239.69 931.233 1189.68 885.251 1147.56C877.351 1140.32 864.935 1140.32 857.601 1147.56Z" fill="#0093D7"/>
<path d="M640.925 1346.29C633.025 1353.54 633.025 1364.92 640.925 1371.65C654.871 1384.31 665.942 1399.39 673.498 1416C681.053 1432.61 684.943 1450.43 684.943 1468.43C684.943 1486.42 681.053 1504.24 673.498 1520.85C665.942 1537.47 654.871 1552.54 640.925 1565.2C633.025 1572.45 633.025 1583.83 640.925 1590.56C644.728 1593.88 649.78 1595.74 655.033 1595.74C660.287 1595.74 665.338 1593.88 669.141 1590.56C704.126 1558.47 724.431 1513.45 724.431 1468.44C724.279 1422.64 704.407 1378.75 669.141 1346.32C661.241 1339.08 648.825 1339.08 641.491 1346.32L640.925 1346.29Z" fill="#0093D7"/>
</g>
<defs>
<clipPath id="clip0_2014_88">
<rect width="1667.68" height="1945.88" fill="white" transform="translate(635 496)"/>
</clipPath>
</defs>
</svg>
