<svg width="3" height="14" viewBox="0 0 3 14" fill="none" xmlns="http://www.w3.org/2000/svg">
<path d="M1.89347 0.605469C1.28819 0.605469 0.792969 1.10069 0.792969 1.70597C0.792969 2.31124 1.28819 2.80646 1.89347 2.80646C2.49874 2.80646 2.99396 2.31124 2.99396 1.70597C2.99396 1.10069 2.49874 0.605469 1.89347 0.605469ZM1.89347 11.6104C1.28819 11.6104 0.792969 12.1057 0.792969 12.7109C0.792969 13.3162 1.28819 13.8114 1.89347 13.8114C2.49874 13.8114 2.99396 13.3162 2.99396 12.7109C2.99396 12.1057 2.49874 11.6104 1.89347 11.6104ZM1.89347 6.10796C1.28819 6.10796 0.792969 6.60318 0.792969 7.20845C0.792969 7.81373 1.28819 8.30895 1.89347 8.30895C2.49874 8.30895 2.99396 7.81373 2.99396 7.20845C2.99396 6.60318 2.49874 6.10796 1.89347 6.10796Z" fill="#525866"/>
</svg>
