<?xml version="1.0" encoding="utf-8"?>
<!-- Generator: Adobe Illustrator 26.0.3, SVG Export Plug-In . SVG Version: 6.00 Build 0)  -->
<svg version="1.1" id="Layer_1" xmlns="http://www.w3.org/2000/svg" xmlns:xlink="http://www.w3.org/1999/xlink" x="0px" y="0px"
	 viewBox="0 0 1465.9 1955" style="enable-background:new 0 0 1465.9 1955;" xml:space="preserve">
<style type="text/css">
	.st0{fill:#0093D7;}
</style>
<g id="Layer_1-2">
	<path class="st0" d="M1287.5,1955h-2.5L9.2,1657.9c-5.3-1.1-9.1-5.8-9.2-11.2V192.6c0-3.6,1.7-7,4.6-9.2c2.9-2.1,6.5-2.9,10-2.1
		l222.1,52.5c5.2,1.2,8.9,5.9,8.8,11.2v1239.5L1290,1711.3c5.3,1.1,9.1,5.8,9.2,11.2v220.8c0,3.6-1.7,7-4.6,9.2
		C1292.6,1954.1,1290.1,1955,1287.5,1955z M23.4,1637.1l1252.4,291.7v-197.1L231.3,1505c-5.3-1.1-9.1-5.8-9.2-11.2V254.2L23.4,207.1
		V1637.1z"/>
	<path class="st0" d="M233.9,256.7h-2.5L8.9,203.8c-4.2-0.9-7.5-4.1-8.3-8.3c-1.2-4-0.1-8.3,2.9-11.2l185-180.8
		c2.9-3,7.2-4.1,11.2-2.9l210,56.2c4,1.1,7.2,4.3,8.3,8.3c1.2,4,0.1,8.3-2.9,11.2l-173,177.1C239.9,255.5,236.9,256.7,233.9,256.7z
		 M35.1,185.9l195,46.2L384.6,73.8L200.1,24.7L35.1,185.9z"/>
	<path class="st0" d="M233.9,1505.4c-1.6,0-3.1-0.3-4.6-0.8c-4.4-1.8-7.2-6.1-7.1-10.8V245.1c0.1-3.1,1.3-6,3.3-8.3L398.4,59.7
		c3.3-3.3,8.3-4.6,12.5-2.5c4.4,1.8,7.2,6.1,7.1,10.8l7.5,1253.7c0.1,3.2-1.3,6.3-3.8,8.3l-180.4,172.5c-2.1,2.1-4.9,3.3-7.9,3.3
		L233.9,1505.4z M245.5,249.6v1217l157.1-150.4L395.5,95.9l-150,153.3V249.6z"/>
	<path class="st0" d="M1287.5,1734.2h-2.5L231.3,1505.4c-4.2-1-7.6-4.2-8.8-8.3c-1.3-4.2,0-8.8,3.3-11.7l180.4-172.5
		c2.9-2.5,7.1-3.8,10.4-2.9l1040,235.4c4.2,1,7.6,4.2,8.8,8.3c1.2,4,0.1,8.3-2.9,11.2l-166.7,165.8
		C1293.6,1733,1290.6,1734.2,1287.5,1734.2z M257.5,1487.1L1283.8,1710l147.5-146.7L418,1334.2l-160,152.9L257.5,1487.1z"/>
	<path class="st0" d="M1287.5,1952.9c0,0-2.9,0-4.2-0.8c-4.6-1.7-7.1-5.8-7.1-10.8v-218.3c0.1-3.1,1.3-6,3.3-8.3l166.7-165.8
		c3.3-3.3,8.3-4.6,12.5-2.5c4.4,1.8,7.2,6.1,7.1,10.8v212.1c0,3-1.2,5.8-3.3,7.9l-166.7,172.5
		C1293.8,1952.1,1290.4,1952.9,1287.5,1952.9z M1299.2,1727.5v185l143.3-148.3V1585l-143.3,142.9V1727.5z"/>
	<path class="st0" d="M1074.6,1622.5h-2.5l-780.4-183.3c-5.3-1.1-9.1-5.8-9.2-11.2V514.2c0.1-5,3.2-9.5,7.9-11.2
		c5-1.2,10,0,12.9,4.2l780.4,1096.6c2.9,4,2.9,9.4,0,13.3c-2.1,3.2-5.7,5.1-9.6,5L1074.6,1622.5z M305.9,1418.8l741.6,174.2
		L305.9,550.9V1418.8z"/>
	<path class="st0" d="M1132.5,1568.3h-2.5L349.6,1385c-5.3-1.1-9.1-5.8-9.2-11.2V460c0.1-5,3.2-9.5,7.9-11.2c5-1.2,10,0,12.9,4.2
		l780.4,1096.6c3.7,5.3,2.4,12.6-2.9,16.2c-2,1.4-4.3,2.1-6.7,2.1L1132.5,1568.3z M363.4,1364.2l741.6,174.2L363.4,496.3V1364.2z"/>
</g>
</svg>
