<svg width="2938" height="2938" viewBox="0 0 2938 2938" fill="none" xmlns="http://www.w3.org/2000/svg">
<circle cx="1469" cy="1469" r="1469" fill="#272B31" fill-opacity="0.101961"/>
<path d="M2100.77 2442H2097.92L646.467 2146.27C640.437 2145.17 636.114 2140.49 636 2135.12V687.713C636 684.13 637.934 680.746 641.233 678.556C644.533 676.465 648.628 675.669 652.61 676.465L905.29 728.724C911.206 729.918 915.415 734.596 915.301 739.872V1973.67L2103.61 2199.42C2109.64 2200.52 2113.96 2205.2 2114.08 2210.57V2430.35C2114.08 2433.94 2112.14 2437.32 2108.84 2439.51C2106.57 2441.1 2103.73 2442 2100.77 2442ZM662.622 2125.56L2087.46 2415.92V2219.73L899.146 1994.07C893.116 1992.98 888.793 1988.3 888.679 1982.92V749.03L662.622 702.147V2125.56Z" fill="#0093D7"/>
<path d="M902.104 751.518H899.26L646.125 698.862C641.347 697.966 637.593 694.781 636.683 690.6C635.318 686.618 636.569 682.338 639.982 679.452L850.453 499.484C853.753 496.498 858.645 495.403 863.195 496.597L1102.11 552.539C1106.66 553.633 1110.3 556.819 1111.55 560.8C1112.92 564.782 1111.67 569.062 1108.25 571.949L911.433 748.233C908.93 750.324 905.517 751.518 902.104 751.518ZM675.933 681.044L897.781 727.032L1073.55 569.46L863.651 520.586L675.933 681.044Z" fill="#0093D7"/>
<path d="M902.104 1994.47C900.284 1994.47 898.577 1994.17 896.871 1993.67C891.865 1991.88 888.679 1987.6 888.793 1982.92V739.972C888.907 736.886 890.272 733.999 892.547 731.71L1089.25 555.425C1093.01 552.14 1098.7 550.846 1103.47 552.937C1108.48 554.728 1111.67 559.009 1111.55 563.687L1120.08 1811.62C1120.2 1814.8 1118.61 1817.89 1115.76 1819.88L910.523 1991.58C908.134 1993.67 904.948 1994.87 901.535 1994.87L902.104 1994.47ZM915.301 744.451V1955.85L1094.03 1806.14L1085.95 591.459L915.301 744.053V744.451Z" fill="#0093D7"/>
<path d="M2100.77 2222.22H2097.92L899.146 1994.47C894.368 1993.47 890.5 1990.29 889.135 1986.21C887.656 1982.03 889.135 1977.45 892.889 1974.56L1098.13 1802.86C1101.43 1800.37 1106.2 1799.07 1109.96 1799.97L2293.15 2034.29C2297.93 2035.28 2301.8 2038.47 2303.16 2042.55C2304.53 2046.53 2303.27 2050.81 2299.86 2053.7L2110.21 2218.73C2107.71 2221.02 2104.29 2222.22 2100.77 2222.22ZM928.954 1976.25L2096.56 2198.13L2264.37 2052.1L1111.55 1824.06L929.522 1976.25H928.954Z" fill="#0093D7"/>
<path d="M2100.77 2439.91C2100.77 2439.91 2097.47 2439.91 2095.99 2439.11C2090.76 2437.42 2087.91 2433.34 2087.91 2428.36V2211.07C2088.02 2207.98 2089.39 2205.1 2091.67 2202.81L2281.32 2037.77C2285.07 2034.48 2290.76 2033.19 2295.54 2035.28C2300.54 2037.07 2303.73 2041.35 2303.62 2046.03V2257.15C2303.62 2260.14 2302.25 2262.93 2299.86 2265.02L2110.21 2436.72C2107.93 2439.11 2104.07 2439.91 2100.77 2439.91ZM2114.08 2215.55V2399.7L2277.11 2252.08V2073.7L2114.08 2215.95V2215.55Z" fill="#0093D7"/>
<path d="M1858.55 2111.03H1855.71L967.862 1928.57C961.832 1927.48 957.509 1922.8 957.396 1917.43V1007.83C957.509 1002.86 961.036 998.377 966.383 996.684C972.072 995.49 977.76 996.684 981.059 1000.87L1868.91 2092.42C1872.21 2096.4 1872.21 2101.77 1868.91 2105.66C1866.52 2108.84 1862.42 2110.73 1857.99 2110.63L1858.55 2111.03ZM984.017 1908.27L1827.72 2081.67L984.017 1044.36V1908.27Z" fill="#0093D7"/>
<path d="M1924.43 2057.08H1921.58L1033.73 1874.62C1027.7 1873.53 1023.38 1868.85 1023.27 1863.48V953.882C1023.38 948.905 1026.91 944.426 1032.26 942.734C1037.94 941.539 1043.63 942.734 1046.93 946.915L1934.78 2038.47C1938.99 2043.74 1937.51 2051.01 1931.48 2054.59C1929.2 2055.99 1926.59 2056.68 1923.86 2056.68L1924.43 2057.08ZM1049.43 1853.92L1893.14 2027.32L1049.43 990.015V1853.92Z" fill="#0093D7"/>
</svg>
