<?xml version="1.0" encoding="UTF-8"?>
<svg id="Layer_2" data-name="Layer 2" xmlns="http://www.w3.org/2000/svg" viewBox="0 0 35.18 46.92">
  <defs>
    <style>
      .cls-1 {
        fill: #0093d7;
      }
    </style>
  </defs>
  <g id="Layer_1-2" data-name="Layer 1">
    <g>
      <path class="cls-1" d="M30.9,46.92s-.04,0-.06,0L.22,39.79c-.13-.03-.22-.14-.22-.27V4.62c0-.08.04-.17.11-.22.07-.05.15-.07.24-.05l5.33,1.26c.13.03.21.14.21.27v29.75l25.07,5.44c.13.03.22.14.22.27v5.3c0,.08-.04.17-.11.22-.05.04-.11.06-.17.06ZM.56,39.29l30.06,7v-4.73l-25.07-5.44c-.13-.03-.22-.14-.22-.27V6.1L.56,4.97v34.32Z"/>
      <path class="cls-1" d="M5.61,6.16s-.04,0-.06,0L.21,4.89c-.1-.02-.18-.1-.2-.2-.03-.1,0-.2.07-.27L4.52.08c.07-.07.17-.1.27-.07l5.04,1.35c.1.03.17.1.2.2.03.1,0,.2-.07.27l-4.15,4.25c-.05.05-.13.08-.2.08ZM.84,4.46l4.68,1.11,3.71-3.8L4.8.59.84,4.46Z"/>
      <path class="cls-1" d="M5.61,36.13s-.07,0-.11-.02c-.1-.04-.17-.14-.17-.26V5.88c0-.07.03-.14.08-.2L9.56,1.43c.08-.08.2-.11.3-.06.1.04.17.14.17.26l.18,30.09c0,.08-.03.15-.09.2l-4.33,4.14c-.05.05-.12.08-.19.08ZM5.89,5.99v29.21l3.77-3.61-.17-29.29-3.6,3.68Z"/>
      <path class="cls-1" d="M30.9,41.62s-.04,0-.06,0l-25.29-5.49c-.1-.02-.18-.1-.21-.2-.03-.1,0-.21.08-.28l4.33-4.14c.07-.06.17-.09.25-.07l24.96,5.65c.1.02.18.1.21.2s0,.2-.07.27l-4,3.98c-.05.05-.12.08-.2.08ZM6.18,35.69l24.63,5.35,3.54-3.52-24.32-5.5-3.84,3.67Z"/>
      <path class="cls-1" d="M30.9,46.87s-.07,0-.1-.02c-.11-.04-.17-.14-.17-.26v-5.24c0-.07.03-.14.08-.2l4-3.98c.08-.08.2-.11.3-.06.1.04.17.14.17.26v5.09c0,.07-.03.14-.08.19l-4,4.14c-.05.06-.13.08-.2.08ZM31.18,41.46v4.44l3.44-3.56v-4.3l-3.44,3.43Z"/>
      <path class="cls-1" d="M25.79,38.94s-.04,0-.06,0l-18.73-4.4c-.13-.03-.22-.14-.22-.27V12.34c0-.12.08-.23.19-.27.12-.03.24,0,.31.1l18.73,26.32c.07.09.07.22,0,.32-.05.08-.14.12-.23.12ZM7.34,34.05l17.8,4.18L7.34,13.22v20.83Z"/>
      <path class="cls-1" d="M27.18,37.64s-.04,0-.06,0l-18.73-4.4c-.13-.03-.22-.14-.22-.27V11.04c0-.12.08-.23.19-.27.12-.03.24,0,.31.1l18.73,26.32c.07.09.07.22,0,.32-.05.08-.14.12-.23.12ZM8.72,32.74l17.8,4.18L8.72,11.91v20.83Z"/>
    </g>
  </g>
</svg>