<svg width="1668" height="1946" viewBox="0 0 1668 1946" fill="none" xmlns="http://www.w3.org/2000/svg">
<path d="M1464.77 1946H1461.92L10.4667 1650.27C4.43696 1649.17 0.113768 1644.49 0 1639.12V191.713C0 188.13 1.93406 184.746 5.23334 182.556C8.53262 180.465 12.6283 179.669 16.6102 180.465L269.29 232.724C275.206 233.918 279.415 238.596 279.301 243.872V1477.67L1467.61 1703.42C1473.64 1704.52 1477.96 1709.2 1478.08 1714.57V1934.35C1478.08 1937.94 1476.14 1941.32 1472.84 1943.51C1470.57 1945.1 1467.73 1946 1464.77 1946ZM26.6218 1629.56L1451.46 1919.92V1723.73L263.146 1498.07C257.116 1496.98 252.793 1492.3 252.679 1486.92V253.03L26.6218 206.147V1629.56Z" fill="#0093D7"/>
<path d="M266.104 255.518H263.26L10.1255 202.862C5.34722 201.966 1.59287 198.781 0.68272 194.6C-0.6825 190.618 0.568952 186.338 3.982 183.452L214.453 3.48393C217.753 0.497743 222.645 -0.597193 227.195 0.597283L466.109 56.5386C470.66 57.6335 474.3 60.8188 475.552 64.8004C476.917 68.7819 475.665 73.0621 472.252 75.9488L275.433 252.233C272.93 254.324 269.517 255.518 266.104 255.518ZM39.9328 185.044L261.781 231.032L437.553 73.4603L227.651 24.5863L39.9328 185.044Z" fill="#0093D7"/>
<path d="M266.104 1498.47C264.284 1498.47 262.577 1498.17 260.871 1497.67C255.865 1495.88 252.679 1491.6 252.793 1486.92V243.972C252.907 240.886 254.272 237.999 256.547 235.71L453.253 59.4252C457.007 56.1404 462.696 54.8464 467.474 56.9367C472.48 58.7284 475.665 63.0086 475.551 67.687L484.084 1315.62C484.198 1318.8 482.605 1321.89 479.761 1323.88L274.523 1495.58C272.134 1497.67 268.948 1498.87 265.535 1498.87L266.104 1498.47ZM279.301 248.451V1459.85L458.031 1310.14L449.954 95.4586L279.301 248.053V248.451Z" fill="#0093D7"/>
<path d="M1464.77 1726.22H1461.92L263.146 1498.47C258.368 1497.47 254.5 1494.29 253.135 1490.21C251.656 1486.03 253.135 1481.45 256.889 1478.56L462.127 1306.86C465.426 1304.37 470.205 1303.07 473.959 1303.97L1657.15 1538.29C1661.93 1539.28 1665.8 1542.47 1667.16 1546.55C1668.53 1550.53 1667.27 1554.81 1663.86 1557.7L1474.21 1722.73C1471.71 1725.02 1468.29 1726.22 1464.77 1726.22ZM292.954 1480.25L1460.56 1702.13L1628.37 1556.1L475.552 1328.06L293.522 1480.25H292.954Z" fill="#0093D7"/>
<path d="M1464.77 1943.91C1464.77 1943.91 1461.47 1943.91 1459.99 1943.11C1454.76 1941.42 1451.91 1937.34 1451.91 1932.36V1715.07C1452.02 1711.98 1453.39 1709.1 1455.67 1706.81L1645.32 1541.77C1649.07 1538.48 1654.76 1537.19 1659.54 1539.28C1664.54 1541.07 1667.73 1545.35 1667.62 1550.03V1761.15C1667.62 1764.14 1666.25 1766.93 1663.86 1769.02L1474.21 1940.72C1471.93 1943.11 1468.07 1943.91 1464.77 1943.91ZM1478.08 1719.55V1903.7L1641.11 1756.08V1577.7L1478.08 1719.95V1719.55Z" fill="#0093D7"/>
<path d="M1222.55 1615.03H1219.71L331.862 1432.57C325.832 1431.48 321.509 1426.8 321.396 1421.43V511.833C321.509 506.856 325.036 502.377 330.383 500.684C336.072 499.49 341.76 500.684 345.059 504.865L1232.91 1596.42C1236.21 1600.4 1236.21 1605.77 1232.91 1609.66C1230.52 1612.84 1226.42 1614.73 1221.99 1614.63L1222.55 1615.03ZM348.017 1412.27L1191.72 1585.67L348.017 548.364V1412.27Z" fill="#0093D7"/>
<path d="M1288.43 1561.08H1285.58L397.734 1378.62C391.705 1377.53 387.381 1372.85 387.268 1367.48V457.882C387.381 452.905 390.908 448.426 396.255 446.734C401.944 445.539 407.632 446.734 410.931 450.915L1298.78 1542.47C1302.99 1547.74 1301.51 1555.01 1295.48 1558.59C1293.2 1559.99 1290.59 1560.68 1287.86 1560.68L1288.43 1561.08ZM413.434 1357.92L1257.14 1531.32L413.434 494.015V1357.92Z" fill="#0093D7"/>
</svg>
