<svg width="13" height="14" viewBox="0 0 13 14" fill="none" xmlns="http://www.w3.org/2000/svg">
<path fill-rule="evenodd" clip-rule="evenodd" d="M4.81302 2.48125C6.40699 0.95547 8.98428 0.95547 10.5783 2.48125C10.7403 2.63639 10.746 2.89355 10.5908 3.05563C10.4357 3.21771 10.1785 3.22334 10.0164 3.06819C8.73664 1.84316 6.65464 1.84316 5.37485 3.06819L1.90592 6.38871C1.74384 6.54386 1.48667 6.53824 1.33153 6.37616C1.17638 6.21408 1.18201 5.95692 1.34408 5.80177L4.81302 2.48125ZM8.2694 4.15407C8.42455 3.99199 8.68171 3.98636 8.84379 4.14151C9.52407 4.79269 9.52407 5.85613 8.84379 6.5073L4.56956 10.5987C4.40748 10.7538 4.15032 10.7482 3.99518 10.5861C3.84003 10.424 3.84565 10.1669 4.00773 10.0117L8.28196 5.92036C8.62802 5.58911 8.62802 5.05971 8.28196 4.72845C8.11988 4.57331 8.11426 4.31615 8.2694 4.15407Z" fill="#1C274C"/>
<path opacity="0.5" d="M10.0159 3.06831C11.2857 4.28376 11.2857 6.24671 10.0159 7.46216L5.71073 11.5832C4.89279 12.3661 3.55961 12.3661 2.74168 11.5832C1.93376 10.8098 1.93376 9.56364 2.74168 8.79029L6.98493 4.72858C7.34101 4.38773 7.92538 4.38773 8.28146 4.72858C8.11954 4.57341 8.11406 4.31627 8.26916 4.15425C8.42152 3.99507 8.67228 3.9868 8.83474 4.13351C8.16388 3.50006 7.09052 3.50276 6.4231 4.14163L2.17985 8.20335C1.03771 9.29662 1.03771 11.0768 2.17985 12.1701C3.31196 13.2538 5.14044 13.2538 6.27256 12.1701L10.5778 8.0491C12.179 6.51636 12.1817 4.02528 10.586 2.48926C10.7402 2.64511 10.7431 2.89643 10.5906 3.05582C10.4354 3.2179 10.178 3.22346 10.0159 3.06831Z" fill="#2684FC"/>
</svg>
