<?xml version="1.0" encoding="UTF-8"?>
<svg id="Layer_2" data-name="Layer 2" xmlns="http://www.w3.org/2000/svg" viewBox="0 0 2938 2938">
  <defs>
    <style>
      .cls-1 {
        fill: rgba(39, 43, 49, .1);
      }

      .cls-1, .cls-2 {
        stroke-width: 0px;
      }

      .cls-2 {
        fill: #0093d7;
      }
    </style>
  </defs>
  <g id="Layer_1-2" data-name="Layer 1">
    <g>
      <circle class="cls-1" cx="1469" cy="1469" r="1469"/>
      <g id="Layer_1-2" data-name="Layer 1-2">
        <path id="Smart_Home" data-name="Smart Home" class="cls-2" d="m1711.85,1546.82c-18.87.81-33.68,16.5-33.35,35.39-.2,18.31,14.48,33.34,32.79,33.55h.56c18.61.82,34.36-13.6,35.18-32.22.02-.44.03-.89.03-1.33,0-19.48-15.73-35.3-35.21-35.39Zm327.08-108.41c.03-28.39-12.19-55.42-33.55-74.13l-474.78-420.11c-35.26-31.84-88.89-31.84-124.17,0l-474.78,419.55c-20.8,18.94-32.3,46-31.51,74.13v703.66c-.12,52.62,42.08,95.56,94.7,96.37h320.97v-78.76c.1-10.77-4.92-20.95-13.52-27.42l-90.62-63.01c-11.74-5.07-19.12-16.88-18.53-29.65v-189.03c0-23.54-21.67-27.62-37.06-43.37-38.59-37.53-39.43-99.25-1.89-137.84.63-.64,1.25-1.27,1.89-1.89,40.24-36.99,102.84-34.36,139.83,5.9,34.77,37.83,34.8,95.97.08,133.83-15.75,15.75-37.06,19.83-37.06,43.37v157.52c-.4,10.43,4.94,20.23,13.9,25.58l92.66,65.04c8.71,6.51,13.85,16.73,13.9,27.62v143.62c.31,18-13.87,32.94-31.87,33.55h-352.11c-88.36-1.22-159.45-73.04-159.74-161.41v-703.1c0-46.77,20.27-91.28,55.6-121.94l473.86-419.55c59.46-53.2,149.4-53.2,208.86,0l474.78,419.55c34.72,30.9,54.15,75.47,53.18,121.94v703.1c.72,87.93-69.6,159.99-157.52,161.41h-352.11c-17.62-.33-32.12-13.95-33.55-31.51v-302.07c.51-10.15,5.53-19.53,13.72-25.58l94.7-66.9c8.86-5.42,14.1-15.2,13.72-25.58v-155.67c0-25.58-21.67-29.46-37.06-45.21-38.64-37.78-39.33-99.73-1.55-138.36.51-.53,1.02-1.04,1.55-1.55,39.51-37.77,102.15-36.37,139.91,3.15,36.58,38.26,36.58,98.52,0,136.78-15.75,15.75-37.06,19.65-37.06,45.21v189.03c-.49,11.92-6.88,22.83-17.05,29.1-32.08,19.93-63.01,41.64-92.66,65.04-9.21,5.07-14.58,15.09-13.72,25.58v233.49h321.16c52.54-.91,94.62-43.83,94.5-96.37v-703.1h-.03Zm-500.36-121.94c38.59,37.53,39.43,99.25,1.89,137.84-.63.64-1.25,1.27-1.89,1.89-15.75,15.75-37.06,19.65-37.06,45.21v767.96c0,17.39-14.1,31.51-31.51,31.51s-31.51-14.1-31.51-31.51h0v-767.96c0-25.58-23.72-29.46-39.48-45.21-36.93-40.29-34.21-102.89,6.08-139.81,37.86-34.72,96.02-34.69,133.83.08h-.38.02Zm-69.49,35.39c-19.55-.1-35.48,15.66-35.58,35.21v.18c.08,18.63,15.23,33.66,33.86,33.6.58,0,1.15-.02,1.71-.05,17.69.74,32.63-13.01,33.37-30.7.03-.96.03-1.89,0-2.85,1.02-18.5-13.14-34.32-31.64-35.34-.58-.03-1.15-.05-1.71-.05h-.02Zm-218.13,360.26c-13.6-13.6-35.67-13.59-49.28.02-13.6,13.6-13.59,35.67.02,49.28,13.6,13.59,35.64,13.59,49.25,0,13.6-13.46,13.74-35.39.28-49.01-.1-.1-.2-.2-.28-.28h.02Zm1042.23-415.49c12.34,12.35,13.14,32.08,1.86,45.41-10.95,13.52-30.78,15.61-44.3,4.66-.31-.25-.61-.51-.91-.76l-717.2-622.32c-36.15-31.54-90.04-31.54-126.21,0l-277.98,240.92c-13.98,11.36-34.52,9.24-45.89-4.74-4.78-5.88-7.36-13.26-7.31-20.83v-89.32c.1-8.6-6.79-15.65-15.38-15.75h-144c-8.6-.1-15.65,6.79-15.75,15.38v297.81c-.4,10.69-5.4,20.69-13.72,27.42l-199.04,171.42c-13.24,11.45-33.25,9.98-44.7-3.28-.18-.2-.35-.41-.53-.63-10.85-13.8-9.16-33.65,3.89-45.41l183.28-159.38c4.1-2.47,6.36-7.12,5.75-11.86v-291.5c1.33-35.33,29.71-63.62,65.04-64.86h175.31c35.36,1.15,63.8,29.5,65.04,64.86-.43,8.38,6.01,15.53,14.39,15.96,4.13.21,8.17-1.27,11.18-4.1l199.04-171.24c59.67-52.62,149.18-52.62,208.86,0l719.23,622.12h.05Z"/>
      </g>
    </g>
  </g>
</svg>