<svg id="Layer_1" data-name="Layer 1" xmlns="http://www.w3.org/2000/svg" viewBox="0 0 1080 1080"><defs><style>.cls-1{fill:#444;}</style></defs><g id="_11" data-name="11"><path class="cls-1" d="M966.61,208.67a65.37,65.37,0,0,0-65.29-65.29H178.68a65.37,65.37,0,0,0-65.29,65.29V293.1s0,.09,0,.13,0,.08,0,.12v578a65.37,65.37,0,0,0,65.29,65.29H901.32a65.37,65.37,0,0,0,65.29-65.29v-578s0-.08,0-.12,0-.08,0-.13ZM194.07,235.45a18.56,18.56,0,0,1,18.56-18.56h43a18.56,18.56,0,1,1,0,37.11h-43A18.56,18.56,0,0,1,194.07,235.45Zm117.52,0a18.56,18.56,0,0,1,18.55-18.56h43a18.56,18.56,0,0,1,0,37.11h-43A18.56,18.56,0,0,1,311.59,235.45ZM901.32,881H178.68a9.63,9.63,0,0,1-9.62-9.62V320.94H910.94V871.33A9.63,9.63,0,0,1,901.32,881Z"/><circle class="cls-1" cx="275.75" cy="652.87" r="26.99"/><path class="cls-1" d="M533,524.92a69.36,69.36,0,0,0-69.27,69.28v16.39a69.28,69.28,0,0,0,138.55,0V594.2A69.36,69.36,0,0,0,533,524.92Zm32.17,85.67a32.17,32.17,0,0,1-64.33,0V594.2a32.17,32.17,0,1,1,64.33,0Z"/><path class="cls-1" d="M385.71,562a27.75,27.75,0,0,1,27,21.74A18.55,18.55,0,1,0,449,575.93a64.72,64.72,0,0,0-128,13.72v25.49A64.73,64.73,0,0,0,446.64,637a18.55,18.55,0,1,0-34.93-12.53,27.62,27.62,0,0,1-53.61-9.32V589.65A27.64,27.64,0,0,1,385.71,562Z"/><path class="cls-1" d="M771.69,521.89a66.87,66.87,0,0,0-44.43,17.27,59.74,59.74,0,0,0-42.12-17.27,65.93,65.93,0,0,0-30.58,7.63A18.54,18.54,0,0,0,621,540.44V661.31a18.56,18.56,0,0,0,37.11,0V580.68c0-10.74,13.62-21.68,27-21.68,12.37,0,22.44,9.72,22.44,21.68v80.63a18.56,18.56,0,0,0,37.11,0V580.68c0-10.74,13.63-21.68,27-21.68,12.38,0,22.44,9.72,22.44,21.68v80.63a18.56,18.56,0,0,0,37.11,0V580.68C831.24,548.26,804.53,521.89,771.69,521.89Z"/></g></svg>