<svg id="Layer_1" data-name="Layer 1" xmlns="http://www.w3.org/2000/svg" viewBox="0 0 1080 1080"><defs><style>.cls-1,.cls-2{fill:none;stroke:#222;stroke-width:25.47px;}.cls-1{stroke-linecap:round;stroke-linejoin:round;}.cls-2{stroke-miterlimit:10;}</style></defs><g id="_11" data-name="11"><rect class="cls-1" x="149.07" y="178.47" width="781.86" height="723.06" rx="2.38"/><line class="cls-1" x1="149.07" y1="297.83" x2="930.93" y2="297.83"/><line class="cls-1" x1="219.07" y1="241.44" x2="261.24" y2="241.44"/><line class="cls-1" x1="330.63" y1="241.44" x2="372.8" y2="241.44"/><circle class="cls-1" cx="280.95" cy="650.65" r="8.27"/><line class="cls-1" x1="637.62" y1="540.43" x2="637.62" y2="658.92"/><line class="cls-1" x1="722.47" y1="579.88" x2="722.47" y2="658.92"/><rect class="cls-2" x="483.37" y="543.41" width="99.45" height="115.51" rx="3.23"/><path class="cls-1" d="M433,579.07a45.27,45.27,0,0,0-44.24-35.66h0a45.25,45.25,0,0,0-45.25,45.26v25a45.25,45.25,0,0,0,45.25,45.26h0a45.28,45.28,0,0,0,42.62-30"/><path class="cls-2" d="M637.62,579.88c0-21.79,22.52-39.45,44.66-39.45s40.19,17.66,40.19,39.45"/><line class="cls-1" x1="807.32" y1="579.88" x2="807.32" y2="658.92"/><path class="cls-2" d="M722.47,579.88c0-21.79,22.52-39.45,44.66-39.45s40.19,17.66,40.19,39.45"/></g></svg>