<svg width="24" height="23" viewBox="0 0 24 23" fill="none" xmlns="http://www.w3.org/2000/svg">
<path d="M2.71387 5.76659C2.71387 3.9307 2.71387 3.01275 3.32342 2.44241C3.93297 1.87207 4.91403 1.87207 6.87614 1.87207C8.83825 1.87207 9.81931 1.87207 10.4289 2.44241C11.0384 3.01275 11.0384 3.9307 11.0384 5.76659V16.4765C11.0384 18.3124 11.0384 19.2304 10.4289 19.8007C9.81931 20.3711 8.83825 20.3711 6.87614 20.3711C4.91403 20.3711 3.93297 20.3711 3.32342 19.8007C2.71387 19.2304 2.71387 18.3124 2.71387 16.4765V5.76659Z" fill="#2684FC"/>
<path d="M12.8877 14.267C12.8877 12.3485 12.8877 11.3893 13.4972 10.7933C14.1068 10.1973 15.0879 10.1973 17.05 10.1973C19.0121 10.1973 19.9931 10.1973 20.6027 10.7933C21.2122 11.3893 21.2122 12.3485 21.2122 14.267V16.3019C21.2122 18.2204 21.2122 19.1797 20.6027 19.7757C19.9931 20.3717 19.0121 20.3717 17.05 20.3717C15.0879 20.3717 14.1068 20.3717 13.4972 19.7757C12.8877 19.1797 12.8877 18.2204 12.8877 16.3019V14.267Z" fill="#2684FC"/>
<path d="M12.8877 5.10939C12.8877 4.10379 12.8877 3.60099 13.0461 3.20437C13.2573 2.67555 13.6625 2.2554 14.1724 2.03635C14.5549 1.87207 15.0397 1.87207 16.0094 1.87207H18.0905C19.0602 1.87207 19.5451 1.87207 19.9275 2.03635C20.4375 2.2554 20.8426 2.67555 21.0538 3.20437C21.2122 3.60099 21.2122 4.10379 21.2122 5.10939C21.2122 6.115 21.2122 6.6178 21.0538 7.01441C20.8426 7.54324 20.4375 7.96339 19.9275 8.18243C19.5451 8.34672 19.0602 8.34672 18.0905 8.34672H16.0094C15.0397 8.34672 14.5549 8.34672 14.1724 8.18243C13.6625 7.96339 13.2573 7.54324 13.0461 7.01441C12.8877 6.6178 12.8877 6.115 12.8877 5.10939Z" fill="#2684FC"/>
</svg>
