<svg width="23" height="23" viewBox="0 0 23 23" fill="none" xmlns="http://www.w3.org/2000/svg">
<path d="M2.10742 5.76659C2.10742 3.9307 2.10742 3.01275 2.71697 2.44241C3.32652 1.87207 4.30758 1.87207 6.26969 1.87207C8.23181 1.87207 9.21287 1.87207 9.82242 2.44241C10.432 3.01275 10.432 3.9307 10.432 5.76659V16.4765C10.432 18.3124 10.432 19.2304 9.82242 19.8007C9.21287 20.3711 8.23181 20.3711 6.26969 20.3711C4.30758 20.3711 3.32652 20.3711 2.71697 19.8007C2.10742 19.2304 2.10742 18.3124 2.10742 16.4765V5.76659Z" fill="#1C274C" fill-opacity="0.56"/>
<path d="M12.2812 14.267C12.2812 12.3485 12.2812 11.3893 12.8908 10.7933C13.5004 10.1973 14.4814 10.1973 16.4435 10.1973C18.4056 10.1973 19.3867 10.1973 19.9962 10.7933C20.6058 11.3893 20.6058 12.3485 20.6058 14.267V16.3019C20.6058 18.2204 20.6058 19.1797 19.9962 19.7757C19.3867 20.3717 18.4056 20.3717 16.4435 20.3717C14.4814 20.3717 13.5004 20.3717 12.8908 19.7757C12.2812 19.1797 12.2812 18.2204 12.2812 16.3019V14.267Z" fill="#1C274C" fill-opacity="0.56"/>
<path d="M12.2812 5.10939C12.2812 4.10379 12.2812 3.60099 12.4397 3.20437C12.6509 2.67555 13.056 2.2554 13.566 2.03635C13.9484 1.87207 14.4333 1.87207 15.403 1.87207H17.4841C18.4538 1.87207 18.9386 1.87207 19.3211 2.03635C19.831 2.2554 20.2362 2.67555 20.4474 3.20437C20.6058 3.60099 20.6058 4.10379 20.6058 5.10939C20.6058 6.115 20.6058 6.6178 20.4474 7.01441C20.2362 7.54324 19.831 7.96339 19.3211 8.18243C18.9386 8.34672 18.4538 8.34672 17.4841 8.34672H15.403C14.4333 8.34672 13.9484 8.34672 13.566 8.18243C13.056 7.96339 12.6509 7.54324 12.4397 7.01441C12.2812 6.6178 12.2812 6.115 12.2812 5.10939Z" fill="#1C274C" fill-opacity="0.56"/>
</svg>
