<svg width="23" height="23" viewBox="0 0 23 23" fill="none" xmlns="http://www.w3.org/2000/svg">
<path fill-rule="evenodd" clip-rule="evenodd" d="M10.1999 1.94824H12.0498C13.7939 1.94824 14.6659 1.94824 15.2078 2.49006C15.7496 3.03189 15.7496 3.90394 15.7496 5.64804V19.7535H19.9119H20.3743C20.7575 19.7535 21.0681 20.0641 21.0681 20.4472C21.0681 20.8304 20.7575 21.1409 20.3743 21.1409H1.87535C1.49223 21.1409 1.18164 20.8304 1.18164 20.4472C1.18164 20.0641 1.49223 19.7535 1.87535 19.7535H5.11268H6.5001V5.64804C6.5001 3.90394 6.5001 3.03189 7.04192 2.49006C7.58374 1.94824 8.4558 1.94824 10.1999 1.94824ZM8.58123 11.1977C8.58123 10.8146 8.89182 10.504 9.27495 10.504H12.9747C13.3579 10.504 13.6685 10.8146 13.6685 11.1977C13.6685 11.5809 13.3579 11.8914 12.9747 11.8914H9.27495C8.89182 11.8914 8.58123 11.5809 8.58123 11.1977ZM8.58123 13.9726C8.58123 13.5895 8.89182 13.2789 9.27495 13.2789H12.9747C13.3579 13.2789 13.6685 13.5895 13.6685 13.9726C13.6685 14.3557 13.3579 14.6663 12.9747 14.6663H9.27495C8.89182 14.6663 8.58123 14.3557 8.58123 13.9726ZM11.1248 16.9787C11.508 16.9787 11.8186 17.2893 11.8186 17.6724V19.7535H10.4311V17.6724C10.4311 17.2893 10.7417 16.9787 11.1248 16.9787ZM8.81247 6.57299C8.81247 5.16819 9.95129 4.02938 11.3561 4.02938C12.7609 4.02938 13.8997 5.16819 13.8997 6.57299C13.8997 7.97779 12.7609 9.1166 11.3561 9.1166C9.95129 9.1166 8.81247 7.97779 8.81247 6.57299Z" fill="#2684FC"/>
<path opacity="0.5" d="M10.2002 6.57318C10.2002 5.93463 10.7178 5.41699 11.3564 5.41699C11.9949 5.41699 12.5126 5.93463 12.5126 6.57318C12.5126 7.21172 11.9949 7.72937 11.3564 7.72937C10.7178 7.72937 10.2002 7.21172 10.2002 6.57318Z" fill="#2684FC"/>
<path opacity="0.5" d="M19.6001 5.54419C19.9119 6.01078 19.9119 6.66031 19.9119 7.95937V19.7525H20.3743C20.7575 19.7525 21.0681 20.0631 21.0681 20.4462C21.0681 20.8293 20.7575 21.1399 20.3743 21.1399H1.87535C1.49223 21.1399 1.18164 20.8293 1.18164 20.4462C1.18164 20.0631 1.49223 19.7525 1.87535 19.7525H2.33783V7.95937C2.33783 6.66031 2.33783 6.01078 2.64959 5.54419C2.78456 5.3422 2.95799 5.16877 3.15998 5.03381C3.56809 4.76112 5.50634 4.72694 6.50659 4.72266C6.50279 4.99218 6.50282 5.27382 6.50286 5.56421L6.50286 5.64699V6.80318H4.18773C3.8046 6.80318 3.49401 7.11376 3.49401 7.49689C3.49401 7.88002 3.8046 8.1906 4.18773 8.1906H6.50286V9.57803H4.18773C3.8046 9.57803 3.49401 9.88861 3.49401 10.2717C3.49401 10.6549 3.8046 10.9655 4.18773 10.9655H6.50286V12.3529H4.18773C3.8046 12.3529 3.49401 12.6635 3.49401 13.0466C3.49401 13.4297 3.8046 13.7403 4.18773 13.7403H6.50286V19.7525H15.7523V13.7403H18.062C18.4451 13.7403 18.7557 13.4297 18.7557 13.0466C18.7557 12.6635 18.4451 12.3529 18.062 12.3529H15.7523V10.9655H18.062C18.4451 10.9655 18.7557 10.6549 18.7557 10.2717C18.7557 9.88861 18.4451 9.57803 18.062 9.57803H15.7523V8.1906H18.062C18.4451 8.1906 18.7557 7.88002 18.7557 7.49689C18.7557 7.11376 18.4451 6.80318 18.062 6.80318H15.7523V5.64699L15.7523 5.56422C15.7523 5.27382 15.7524 4.99218 15.7486 4.72266C16.7488 4.72694 18.6816 4.76112 19.0897 5.03381C19.2917 5.16877 19.4651 5.3422 19.6001 5.54419Z" fill="#2684FC"/>
</svg>
