<svg width="37" height="36" viewBox="0 0 37 36" fill="none" xmlns="http://www.w3.org/2000/svg">
<path fill-rule="evenodd" clip-rule="evenodd" d="M33.8093 7.05663C34.3711 7.89737 34.3711 9.06776 34.3711 11.4085V32.6585H35.2044C35.8948 32.6585 36.4544 33.2182 36.4544 33.9085C36.4544 34.5989 35.8948 35.1585 35.2044 35.1585H1.87109C1.18074 35.1585 0.621094 34.5989 0.621094 33.9085C0.621094 33.2182 1.18074 32.6585 1.87109 32.6585H2.70443V11.4085C2.70443 9.06776 2.70443 7.89737 3.2662 7.05663C3.50939 6.69266 3.82189 6.38016 4.18586 6.13696C4.92123 5.6456 5.9088 5.58402 7.71114 5.5763C7.70429 6.06196 7.70435 6.56944 7.70441 7.0927L7.70443 7.24186V9.32519H6.03776C5.3474 9.32519 4.78776 9.88484 4.78776 10.5752C4.78776 11.2656 5.3474 11.8252 6.03776 11.8252H7.70443V14.3252H6.03776C5.3474 14.3252 4.78776 14.8848 4.78776 15.5752C4.78776 16.2656 5.3474 16.8252 6.03776 16.8252H7.70443V19.3252H6.03776C5.3474 19.3252 4.78776 19.8848 4.78776 20.5752C4.78776 21.2656 5.3474 21.8252 6.03776 21.8252H7.70443V32.6585H10.2044V7.24186C10.2044 4.09917 10.2044 2.52782 11.1807 1.55151C12.157 0.575195 13.7284 0.575195 16.8711 0.575195H20.2044C23.3471 0.575195 24.9185 0.575195 25.8948 1.55151C26.8711 2.52782 26.8711 4.09917 26.8711 7.24186V32.6585H29.3711V21.8252H31.0378C31.7281 21.8252 32.2878 21.2656 32.2878 20.5752C32.2878 19.8848 31.7281 19.3252 31.0378 19.3252H29.3711V16.8252H31.0378C31.7281 16.8252 32.2878 16.2656 32.2878 15.5752C32.2878 14.8848 31.7281 14.3252 31.0378 14.3252H29.3711V11.8252H31.0378C31.7281 11.8252 32.2878 11.2656 32.2878 10.5752C32.2878 9.88484 31.7281 9.32519 31.0378 9.32519H29.3711V7.24186L29.3711 7.09272C29.3712 6.56945 29.3712 6.06196 29.3644 5.5763C31.1667 5.58402 32.1543 5.6456 32.8897 6.13696C33.2536 6.38016 33.5661 6.69266 33.8093 7.05663ZM19.7878 28.9085C19.7878 28.2182 19.2281 27.6585 18.5378 27.6585C17.8474 27.6585 17.2878 28.2182 17.2878 28.9085V32.6585H19.7878V28.9085ZM13.9544 22.2419C13.9544 21.5515 14.5141 20.9919 15.2044 20.9919H21.8711C22.5614 20.9919 23.1211 21.5515 23.1211 22.2419C23.1211 22.9322 22.5614 23.4919 21.8711 23.4919H15.2044C14.5141 23.4919 13.9544 22.9322 13.9544 22.2419ZM15.2044 15.9919C14.5141 15.9919 13.9544 16.5515 13.9544 17.2419C13.9544 17.9322 14.5141 18.4919 15.2044 18.4919H21.8711C22.5614 18.4919 23.1211 17.9322 23.1211 17.2419C23.1211 16.5515 22.5614 15.9919 21.8711 15.9919H15.2044ZM14.3711 8.90853C14.3711 6.37722 16.4231 4.3252 18.9544 4.3252C21.4857 4.3252 23.5378 6.37722 23.5378 8.90853C23.5378 11.4398 21.4857 13.4919 18.9544 13.4919C16.4231 13.4919 14.3711 11.4398 14.3711 8.90853ZM16.8711 8.90853C16.8711 7.75794 17.8038 6.8252 18.9544 6.8252C20.105 6.8252 21.0378 7.75794 21.0378 8.90853C21.0378 10.0591 20.105 10.9919 18.9544 10.9919C17.8038 10.9919 16.8711 10.0591 16.8711 8.90853Z" fill="#2684FC"/>
</svg>
