<svg width="24" height="23" viewBox="0 0 24 23" fill="none" xmlns="http://www.w3.org/2000/svg">
<path fill-rule="evenodd" clip-rule="evenodd" d="M10.8063 1.94824H12.6562C14.4003 1.94824 15.2724 1.94824 15.8142 2.49006C16.356 3.03189 16.356 3.90394 16.356 5.64804V19.7535H20.5183H20.9808C21.3639 19.7535 21.6745 20.0641 21.6745 20.4472C21.6745 20.8304 21.3639 21.1409 20.9808 21.1409H2.4818C2.09867 21.1409 1.78809 20.8304 1.78809 20.4472C1.78809 20.0641 2.09867 19.7535 2.4818 19.7535H5.71912H7.10654V5.64804C7.10654 3.90394 7.10654 3.03189 7.64837 2.49006C8.19019 1.94824 9.06224 1.94824 10.8063 1.94824ZM9.18768 11.1977C9.18768 10.8146 9.49827 10.504 9.88139 10.504H13.5812C13.9643 10.504 14.2749 10.8146 14.2749 11.1977C14.2749 11.5809 13.9643 11.8914 13.5812 11.8914H9.88139C9.49827 11.8914 9.18768 11.5809 9.18768 11.1977ZM9.18768 13.9726C9.18768 13.5895 9.49827 13.2789 9.88139 13.2789H13.5812C13.9643 13.2789 14.2749 13.5895 14.2749 13.9726C14.2749 14.3557 13.9643 14.6663 13.5812 14.6663H9.88139C9.49827 14.6663 9.18768 14.3557 9.18768 13.9726ZM11.7313 16.9787C12.1144 16.9787 12.425 17.2893 12.425 17.6724V19.7535H11.0376V17.6724C11.0376 17.2893 11.3482 16.9787 11.7313 16.9787ZM9.41892 6.57299C9.41892 5.16819 10.5577 4.02938 11.9625 4.02938C13.3673 4.02938 14.5061 5.16819 14.5061 6.57299C14.5061 7.97779 13.3673 9.1166 11.9625 9.1166C10.5577 9.1166 9.41892 7.97779 9.41892 6.57299Z" fill="#1C274C" fill-opacity="0.42"/>
<path opacity="0.5" d="M10.8066 6.57318C10.8066 5.93463 11.3243 5.41699 11.9628 5.41699C12.6014 5.41699 13.119 5.93463 13.119 6.57318C13.119 7.21172 12.6014 7.72937 11.9628 7.72937C11.3243 7.72937 10.8066 7.21172 10.8066 6.57318Z" fill="#1C274C"/>
<path opacity="0.5" d="M20.2065 5.54419C20.5183 6.01078 20.5183 6.66031 20.5183 7.95937V19.7525H20.9808C21.3639 19.7525 21.6745 20.0631 21.6745 20.4462C21.6745 20.8293 21.3639 21.1399 20.9808 21.1399H2.4818C2.09867 21.1399 1.78809 20.8293 1.78809 20.4462C1.78809 20.0631 2.09867 19.7525 2.4818 19.7525H2.94427V7.95937C2.94427 6.66031 2.94427 6.01078 3.25604 5.54419C3.391 5.3422 3.56443 5.16877 3.76642 5.03381C4.17453 4.76112 6.11279 4.72694 7.11304 4.72266C7.10923 4.99218 7.10927 5.27382 7.1093 5.56421L7.10931 5.64699V6.80318H4.79417C4.41104 6.80318 4.10046 7.11376 4.10046 7.49689C4.10046 7.88002 4.41104 8.1906 4.79417 8.1906H7.10931V9.57803H4.79417C4.41104 9.57803 4.10046 9.88861 4.10046 10.2717C4.10046 10.6549 4.41104 10.9655 4.79417 10.9655H7.10931V12.3529H4.79417C4.41104 12.3529 4.10046 12.6635 4.10046 13.0466C4.10046 13.4297 4.41104 13.7403 4.79417 13.7403H7.10931V19.7525H16.3588V13.7403H18.6684C19.0515 13.7403 19.3621 13.4297 19.3621 13.0466C19.3621 12.6635 19.0515 12.3529 18.6684 12.3529H16.3588V10.9655H18.6684C19.0515 10.9655 19.3621 10.6549 19.3621 10.2717C19.3621 9.88861 19.0515 9.57803 18.6684 9.57803H16.3588V8.1906H18.6684C19.0515 8.1906 19.3621 7.88002 19.3621 7.49689C19.3621 7.11376 19.0515 6.80318 18.6684 6.80318H16.3588V5.64699L16.3588 5.56422C16.3588 5.27382 16.3588 4.99218 16.355 4.72266C17.3553 4.72694 19.288 4.76112 19.6962 5.03381C19.8982 5.16877 20.0716 5.3422 20.2065 5.54419Z" fill="#1C274C" fill-opacity="0.56"/>
</svg>
