<svg id="Layer_1" data-name="Layer 1" xmlns="http://www.w3.org/2000/svg" viewBox="0 0 1667.73 1946"><defs><style>.cls-1{fill:#0093d7;}</style></defs><g id="Layer_1-2" data-name="Layer 1-2"><path class="cls-1" d="M844.12,1985V1370.62H165.27V39H1833V1982.16H1716.38V167.94H1004.83c43.61,30.82,83,59.26,122.78,87.23l392.51,277.32c11.38,8.06,16.6,16.59,16.6,30.82v987.45c0,13.28-3.8,21.81-14.7,29.4-176.82,124.67-355.07,247.45-529,376.4-48.82,36-96.7,21.33-148.85,28ZM965,1927.17c9-5.69,15.65-10,22.29-14.7q246-174.21,492.54-348c14.22-10,19.44-20.38,19.44-37.92q-.72-469.32,0-939.11c0-17.54-4.74-28-19.44-37.92-162.6-114.25-325.2-229.44-487.33-344.17-8.53-6.16-17.07-11.37-28-19V1926.69ZM201.3,1334.6H880.62v612h46.46V131.44h824.86V1947.08h43.61V75H201.3Z" transform="translate(-165.27 -39)"/><path class="cls-1" d="M1350.89,1255.43V1121.74c10.9-1.89,21.8-3.79,35.08-6.16v94.81c17.06-4.74,32.23-8.06,46-13.27,3.79-1.42,8.06-9,8.06-14.22q.71-59,0-118c0-4.74-4.27-12.33-8.53-13.75-13.75-5.21-28-8.06-44.57-12.8V1080c-44.08-4.27-35.55-1.43-36.5-37.93v-55c43.62,14.22,84.38,27,125.63,40.77v174.45c0,5.22-5.22,13.28-10,14.7-37,13.27-73.95,25.12-114.25,38.4Z" transform="translate(-165.27 -39)"/><path class="cls-1" d="M1428.63,1103.73c-37.45,3.32-74.9,7.11-114.25,10.9v-37.92c38.88,7.11,76.8,13.75,114.25,20.38Z" transform="translate(-165.27 -39)"/><path class="cls-1" d="M246.34,130.49H879.2v1145.8H246.34ZM842.22,1239.31V167.94H283.79V1239.31Z" transform="translate(-165.27 -39)"/><path class="cls-1" d="M477.68,917c-5.22-6.63-11.86-15.17-17.54-22.28,61.15-60.68,124.2-124.2,187.25-187.25,5.21,5.69,12.32,14.22,19,21.33C605.2,789.43,541.67,852.48,477.68,916.48Z" transform="translate(-165.27 -39)"/><path class="cls-1" d="M618.47,488.88c8.53,8.06,16.59,15.64,23.23,22.28-55,55-108.56,109-163.55,163.55-6.64-7.11-14.7-16.12-22.28-24.18C509.44,597.44,563,543.87,618,488.88Z" transform="translate(-165.27 -39)"/><path class="cls-1" d="M491.9,787.06c-5.69-7.11-13.28-15.17-19-21.81,30.82-30.81,61.63-61.62,93.39-92.91,5.69,5.69,13.75,13.75,20.39,20.86C555.42,724,524.61,754.82,491.9,787.06Z" transform="translate(-165.27 -39)"/></g></svg>