<?xml version="1.0" encoding="UTF-8"?>
<svg id="Layer_2" data-name="Layer 2" xmlns="http://www.w3.org/2000/svg" viewBox="0 0 35.18 41.05">
  <defs>
    <style>
      .cls-1 {
        fill: #0093d7;
      }
    </style>
  </defs>
  <g id="Layer_1-2" data-name="Layer 1">
    <g>
      <path class="cls-1" d="M14.32,41.05v-12.96H0V0h35.18v40.99h-2.46V2.72h-15.01c.92.65,1.75,1.25,2.59,1.84,2.76,1.95,5.52,3.9,8.28,5.85.24.17.35.35.35.65,0,6.94,0,13.89,0,20.83,0,.28-.08.46-.31.62-3.73,2.63-7.49,5.22-11.16,7.94-1.03.76-2.04.45-3.14.59ZM16.87,39.83c.19-.12.33-.21.47-.31,3.46-2.45,6.92-4.9,10.39-7.34.3-.21.41-.43.41-.8-.01-6.6-.01-13.21,0-19.81,0-.37-.1-.59-.41-.8-3.43-2.41-6.86-4.84-10.28-7.26-.18-.13-.36-.24-.59-.4v36.71ZM.76,27.33h14.33v12.91h.98V1.95h17.4v38.3h.92V.76H.76v26.57Z"/>
      <path class="cls-1" d="M25.01,25.66v-2.82c.23-.04.46-.08.74-.13v2c.36-.1.68-.17.97-.28.08-.03.17-.19.17-.3.01-.83.01-1.66,0-2.49,0-.1-.09-.26-.18-.29-.29-.11-.59-.17-.94-.27v.88c-.93-.09-.75-.03-.77-.8,0-.35,0-.71,0-1.16.92.3,1.78.57,2.65.86,0,1.25,0,2.47,0,3.68,0,.11-.11.28-.21.31-.78.28-1.56.53-2.41.81Z"/>
      <path class="cls-1" d="M26.65,22.46c-.79.07-1.58.15-2.41.23v-.8c.82.15,1.62.29,2.41.43,0,.05,0,.09,0,.14Z"/>
      <path class="cls-1" d="M1.71,1.93h13.35v24.17H1.71V1.93ZM14.28,25.32V2.72H2.5v22.6h11.78Z"/>
      <path class="cls-1" d="M6.59,18.52c-.11-.14-.25-.32-.37-.47,1.29-1.28,2.62-2.62,3.95-3.95.11.12.26.3.4.45-1.29,1.28-2.63,2.61-3.98,3.96Z"/>
      <path class="cls-1" d="M9.56,9.49c.18.17.35.33.49.47-1.16,1.16-2.29,2.3-3.45,3.45-.14-.15-.31-.34-.47-.51,1.13-1.12,2.26-2.25,3.42-3.41Z"/>
      <path class="cls-1" d="M6.89,15.78c-.12-.15-.28-.32-.4-.46.65-.65,1.3-1.3,1.97-1.96.12.12.29.29.43.44-.66.65-1.31,1.3-2,1.98Z"/>
    </g>
  </g>
</svg>