<svg width="2938" height="2938" viewBox="0 0 2938 2938" fill="none" xmlns="http://www.w3.org/2000/svg">
<g clip-path="url(#clip0_2010_17)">
<path d="M1313.85 2442V1827.62H635V496H2302.73V2439.16H2186.11V624.94H1474.56C1518.17 655.76 1557.56 684.2 1597.34 712.17L1989.85 989.49C2001.23 997.55 2006.45 1006.08 2006.45 1020.31V2007.76C2006.45 2021.04 2002.65 2029.57 1991.75 2037.16C1814.93 2161.83 1636.68 2284.61 1462.75 2413.56C1413.93 2449.56 1366.05 2434.89 1313.9 2441.56L1313.85 2442ZM1434.73 2384.17C1443.73 2378.48 1450.38 2374.17 1457.02 2369.47C1621.02 2253.33 1785.2 2137.33 1949.56 2021.47C1963.78 2011.47 1969 2001.09 1969 1983.55C1968.52 1670.67 1968.52 1357.63 1969 1044.44C1969 1026.9 1964.26 1016.44 1949.56 1006.52C1786.96 892.27 1624.36 777.08 1462.23 662.35C1453.7 656.19 1445.16 650.98 1434.23 643.35V2383.69L1434.73 2384.17ZM671.03 1791.6H1350.35V2403.6H1396.81V588.44H2221.67V2404.08H2265.28V532H671.03V1791.6Z" fill="#0093D7"/>
<path d="M1820.62 1712.43V1578.74C1831.52 1576.85 1842.42 1574.95 1855.7 1572.58V1667.39C1872.76 1662.65 1887.93 1659.33 1901.7 1654.12C1905.49 1652.7 1909.76 1645.12 1909.76 1639.9C1910.23 1600.57 1910.23 1561.23 1909.76 1521.9C1909.76 1517.16 1905.49 1509.57 1901.23 1508.15C1887.48 1502.94 1873.23 1500.09 1856.66 1495.35V1537C1812.58 1532.73 1821.11 1535.57 1820.16 1499.07V1444.07C1863.78 1458.29 1904.54 1471.07 1945.79 1484.84V1659.29C1945.79 1664.51 1940.57 1672.57 1935.79 1673.99C1898.79 1687.26 1861.84 1699.11 1821.54 1712.39L1820.62 1712.43Z" fill="#0093D7"/>
<path d="M1898.36 1560.73C1860.91 1564.05 1823.46 1567.84 1784.11 1571.63V1533.71C1822.99 1540.82 1860.91 1547.46 1898.36 1554.09V1560.73Z" fill="#0093D7"/>
<path d="M716.07 587.49H1348.93V1733.29H716.07V587.49ZM1311.95 1696.31V624.94H753.52V1696.31H1311.95Z" fill="#0093D7"/>
<path d="M947.41 1374C942.19 1367.37 935.55 1358.83 929.87 1351.72C991.02 1291.04 1054.07 1227.52 1117.12 1164.47C1122.33 1170.16 1129.44 1178.69 1136.12 1185.8C1074.93 1246.43 1011.4 1309.48 947.41 1373.48V1374Z" fill="#0093D7"/>
<path d="M1088.2 945.88C1096.73 953.94 1104.79 961.52 1111.43 968.16C1056.43 1023.16 1002.87 1077.16 947.88 1131.71C941.24 1124.6 933.18 1115.59 925.6 1107.53C979.17 1054.44 1032.73 1000.87 1087.73 945.88H1088.2Z" fill="#0093D7"/>
<path d="M961.63 1244.06C955.94 1236.95 948.35 1228.89 942.63 1222.25C973.45 1191.44 1004.26 1160.63 1036.02 1129.34C1041.71 1135.03 1049.77 1143.09 1056.41 1150.2C1025.15 1181 994.34 1211.82 961.63 1244.06Z" fill="#0093D7"/>
</g>
<circle cx="1469" cy="1469" r="1469" fill="#272B31" fill-opacity="0.101961"/>
<defs>
<clipPath id="clip0_2010_17">
<rect width="1667.73" height="1946" fill="white" transform="translate(635 496)"/>
</clipPath>
</defs>
</svg>
