<svg width="11" height="7" viewBox="0 0 11 7" fill="none" xmlns="http://www.w3.org/2000/svg">
<path d="M5.78024 6.45016L10.6713 1.55906C10.7168 1.51362 10.7528 1.45967 10.7774 1.40029C10.802 1.34092 10.8147 1.27728 10.8147 1.21301C10.8147 1.14875 10.802 1.08511 10.7774 1.02574C10.7528 0.966362 10.7168 0.912413 10.6713 0.866969C10.6259 0.821526 10.5719 0.785478 10.5126 0.760885C10.4532 0.736291 10.3896 0.723633 10.3253 0.723633C10.261 0.723633 10.1974 0.736291 10.138 0.760885C10.0786 0.785478 10.0247 0.821526 9.97925 0.866969L5.43419 5.41264L0.889138 0.866969C0.797361 0.775192 0.672885 0.723633 0.543093 0.723633C0.413301 0.723633 0.288825 0.775192 0.197048 0.866969C0.105271 0.958746 0.0537109 1.08322 0.0537109 1.21301C0.0537109 1.34281 0.105271 1.46728 0.197048 1.55906L5.08815 6.45016C5.13357 6.49564 5.18752 6.53171 5.24689 6.55633C5.30627 6.58094 5.36992 6.59361 5.43419 6.59361C5.49847 6.59361 5.56212 6.58094 5.62149 6.55633C5.68087 6.53171 5.73481 6.49564 5.78024 6.45016Z" fill="#67667A"/>
</svg>
