<svg width="23" height="23" viewBox="0 0 23 23" fill="none" xmlns="http://www.w3.org/2000/svg">
<path opacity="0.5" d="M20.0129 8.3268C21.4686 6.87108 21.4686 4.51089 20.0129 3.05517C18.5571 1.59945 16.1969 1.59945 14.7412 3.05517L13.9004 3.89601C13.9119 3.93078 13.9238 3.96603 13.9362 4.00174C14.2444 4.89007 14.8259 6.05459 15.9198 7.1485C17.0138 8.24241 18.1783 8.82391 19.0666 9.13211C19.1022 9.14444 19.1372 9.15633 19.1719 9.16779L20.0129 8.3268Z" fill="#67667A"/>
<path d="M13.9372 3.85986L13.901 3.89607C13.9125 3.93084 13.9245 3.96609 13.9369 4.0018C14.2451 4.89013 14.8266 6.05465 15.9205 7.14856C17.0144 8.24247 18.1789 8.82397 19.0672 9.13217C19.1025 9.14439 19.1373 9.15619 19.1716 9.16756L11.057 17.2822C10.5099 17.8292 10.2363 18.1028 9.93472 18.3381C9.57892 18.6156 9.19395 18.8535 8.78662 19.0476C8.44131 19.2122 8.07429 19.3345 7.34029 19.5792L3.46963 20.8694C3.10841 20.9898 2.71017 20.8958 2.44094 20.6266C2.1717 20.3573 2.07769 19.9591 2.1981 19.5979L3.48832 15.7272C3.73299 14.9932 3.85533 14.6262 4.01989 14.2809C4.21402 13.8736 4.45195 13.4886 4.72946 13.1328C4.9647 12.8312 5.23825 12.5576 5.78529 12.0106L13.9372 3.85986Z" fill="#8E93A6"/>
<path d="M19.3116 12.2744L18.2033 13.3826C17.9257 13.6603 17.9257 14.1104 18.2033 14.3881C18.481 14.6657 18.9311 14.6657 19.2088 14.3881L20.299 13.2978C20.0348 13.0015 19.7057 12.6689 19.3116 12.2744Z" fill="#67667A"/>
<path d="M9.5076 2.54443L8.25022 3.80181C7.97258 4.07945 7.97258 4.52959 8.25022 4.80723C8.52786 5.08487 8.978 5.08487 9.25564 4.80723L10.5498 3.5131C10.1461 3.11256 9.80987 2.78968 9.5076 2.54443Z" fill="#67667A"/>
</svg>
