<svg width="24" height="23" viewBox="0 0 24 23" fill="none" xmlns="http://www.w3.org/2000/svg">
<circle cx="11.9635" cy="5.72519" r="3.6998" fill="#2684FC"/>
<path fill-rule="evenodd" clip-rule="evenodd" d="M16.125 20.5245C14.5989 20.5245 13.8359 20.5245 13.3618 20.0504C12.8877 19.5763 12.8877 18.8132 12.8877 17.2871C12.8877 15.761 12.8877 14.998 13.3618 14.5239C13.8359 14.0498 14.5989 14.0498 16.125 14.0498C17.6511 14.0498 18.4142 14.0498 18.8882 14.5239C19.3623 14.998 19.3623 15.761 19.3623 17.2871C19.3623 18.8132 19.3623 19.5763 18.8882 20.0504C18.4142 20.5245 17.6511 20.5245 16.125 20.5245ZM17.9454 16.5895C18.1561 16.3788 18.1561 16.0372 17.9454 15.8265C17.7346 15.6158 17.393 15.6158 17.1823 15.8265L15.4056 17.6032L15.0677 17.2653C14.857 17.0546 14.5154 17.0546 14.3047 17.2653C14.094 17.476 14.094 17.8176 14.3047 18.0284L15.0241 18.7478C15.2348 18.9585 15.5764 18.9585 15.7871 18.7478L17.9454 16.5895Z" fill="#2684FC"/>
<path d="M15.1224 12.6685C14.1881 12.3696 13.1108 12.1992 11.9639 12.1992C8.38806 12.1992 5.48926 13.8557 5.48926 15.899C5.48926 17.8789 8.21087 19.4956 11.6329 19.5941C11.6078 19.4772 11.5884 19.3613 11.5731 19.2474C11.5012 18.713 11.5013 18.0602 11.5014 17.3659V17.2069C11.5013 16.5127 11.5012 15.8598 11.5731 15.3254C11.653 14.7308 11.8441 14.0799 12.3819 13.5421C12.9197 13.0043 13.5706 12.8133 14.1652 12.7333C14.4538 12.6945 14.7769 12.6767 15.1224 12.6685Z" fill="#2684FC"/>
</svg>
