<svg width="25" height="26" viewBox="0 0 25 26" fill="none" xmlns="http://www.w3.org/2000/svg">
<ellipse cx="12.6937" cy="6.84314" rx="4.05993" ry="4.05994" fill="white"/>
<path fill-rule="evenodd" clip-rule="evenodd" d="M17.2605 23.0814C15.5858 23.0814 14.7485 23.0814 14.2283 22.5612C13.708 22.041 13.708 21.2036 13.708 19.529C13.708 17.8544 13.708 17.017 14.2283 16.4968C14.7485 15.9766 15.5858 15.9766 17.2605 15.9766C18.9351 15.9766 19.7724 15.9766 20.2927 16.4968C20.8129 17.017 20.8129 17.8544 20.8129 19.529C20.8129 21.2036 20.8129 22.041 20.2927 22.5612C19.7724 23.0814 18.9351 23.0814 17.2605 23.0814ZM19.258 18.7635C19.4892 18.5323 19.4892 18.1574 19.258 17.9262C19.0268 17.695 18.6519 17.695 18.4207 17.9262L16.471 19.8758L16.1002 19.5051C15.869 19.2738 15.4941 19.2738 15.2629 19.5051C15.0317 19.7363 15.0317 20.1112 15.2629 20.3424L16.0524 21.1318C16.2836 21.363 16.6585 21.363 16.8897 21.1318L19.258 18.7635Z" fill="white"/>
<path d="M16.1587 14.4623C15.1334 14.1343 13.9513 13.9473 12.6928 13.9473C8.76886 13.9473 5.58789 15.765 5.58789 18.0072C5.58789 20.1798 8.57442 21.9539 12.3296 22.0619C12.302 21.9337 12.2807 21.8065 12.2639 21.6815C12.1851 21.0951 12.1852 20.3787 12.1853 19.6169V19.4424C12.1852 18.6806 12.1851 17.9642 12.2639 17.3778C12.3516 16.7253 12.5613 16.0111 13.1515 15.4209C13.7416 14.8308 14.4558 14.6211 15.1084 14.5334C15.425 14.4908 15.7795 14.4712 16.1587 14.4623Z" fill="white"/>
</svg>
