<svg width="24" height="23" viewBox="0 0 24 23" fill="none" xmlns="http://www.w3.org/2000/svg">
<path d="M9.71168 3.62813C9.40503 3.32148 8.91149 3.32148 7.92441 3.32148H7.66267V1.75104C7.66267 1.31738 7.31111 0.96582 6.87745 0.96582C6.44378 0.96582 6.09222 1.31738 6.09222 1.75104V3.32148H5.83048C4.8434 3.32148 4.34986 3.32148 4.04321 3.62813C3.73656 3.93478 3.73656 4.42832 3.73656 5.4154V5.62877C3.94856 5.57307 4.16125 5.53421 4.37059 5.50607C5.04653 5.41519 5.87746 5.41529 6.78375 5.41539H6.97115C7.87743 5.41529 8.70836 5.41519 9.3843 5.50607C9.59364 5.53421 9.80632 5.57307 10.0183 5.62877L10.0183 5.4154C10.0183 4.42832 10.0183 3.93478 9.71168 3.62813Z" fill="#1C274C"/>
<path fill-rule="evenodd" clip-rule="evenodd" d="M1.64264 20.8581C1.20898 20.8581 0.857422 21.2096 0.857422 21.6433C0.857422 22.077 1.20898 22.4285 1.64264 22.4285H22.5819C23.0155 22.4285 23.3671 22.077 23.3671 21.6433C23.3671 21.2096 23.0155 20.8581 22.5819 20.8581H21.5349V6.74708C21.5349 5.34327 21.5349 4.64136 21.162 4.10331C20.7891 3.56525 20.1319 3.31879 18.8175 2.82588C16.247 1.86193 14.9617 1.37995 14.0604 2.00451C13.1592 2.62906 13.1592 4.00174 13.1592 6.74708V9.60324L13.2529 9.60324C14.1592 9.60313 14.9901 9.60303 15.6661 9.69391C16.4104 9.79399 17.1972 10.0294 17.8442 10.6765C18.4913 11.3236 18.7268 12.1103 18.8268 12.8547C18.9177 13.5306 18.9176 14.3616 18.9175 15.2678L18.9175 15.3615V20.8581H17.3471V15.3615C17.3471 13.3874 17.3471 12.4003 16.7338 11.787C16.1205 11.1737 15.1334 11.1737 13.1592 11.1737H11.0653C9.09112 11.1737 8.10404 11.1737 7.49074 11.787C6.87745 12.4003 6.87745 13.3874 6.87745 15.3615V20.8581H5.307V15.3615L5.307 15.2678C5.30689 14.3615 5.30679 13.5306 5.39767 12.8547C5.49774 12.1103 5.7332 11.3236 6.38027 10.6765C7.02734 10.0294 7.81408 9.79399 8.55843 9.69391C9.23437 9.60303 10.0653 9.60313 10.9716 9.60324L11.047 9.60324C11.0063 8.62313 10.8751 8.0222 10.452 7.59914C9.8387 6.98584 8.85161 6.98584 6.87745 6.98584C4.90328 6.98584 3.91619 6.98584 3.3029 7.59914C2.6896 8.21243 2.6896 9.19952 2.6896 11.1737V20.8581H1.64264ZM9.23311 14.3146C9.23311 13.8809 9.58466 13.5293 10.0183 13.5293H14.2062C14.6398 13.5293 14.9914 13.8809 14.9914 14.3146C14.9914 14.7482 14.6398 15.0998 14.2062 15.0998H10.0183C9.58466 15.0998 9.23311 14.7482 9.23311 14.3146ZM9.23311 17.4554C9.23311 17.0218 9.58466 16.6702 10.0183 16.6702H14.2062C14.6398 16.6702 14.9914 17.0218 14.9914 17.4554C14.9914 17.8891 14.6398 18.2407 14.2062 18.2407H10.0183C9.58466 18.2407 9.23311 17.8891 9.23311 17.4554Z" fill="white"/>
</svg>
