<svg width="26" height="26" viewBox="0 0 26 26" fill="none" xmlns="http://www.w3.org/2000/svg">
<ellipse cx="13.0287" cy="6.89194" rx="4.18784" ry="4.18784" fill="#A8ABB3"/>
<path fill-rule="evenodd" clip-rule="evenodd" d="M17.7386 23.6432C16.0112 23.6432 15.1475 23.6432 14.6109 23.1065C14.0742 22.5699 14.0742 21.7062 14.0742 19.9788C14.0742 18.2514 14.0742 17.3877 14.6109 16.8511C15.1475 16.3145 16.0112 16.3145 17.7386 16.3145C19.466 16.3145 20.3297 16.3145 20.8663 16.8511C21.4029 17.3877 21.4029 18.2514 21.4029 19.9788C21.4029 21.7062 21.4029 22.5699 20.8663 23.1065C20.3297 23.6432 19.466 23.6432 17.7386 23.6432ZM19.799 19.1892C20.0375 18.9507 20.0375 18.564 19.799 18.3255C19.5605 18.087 19.1738 18.087 18.9353 18.3255L16.9243 20.3366L16.5418 19.9541C16.3033 19.7156 15.9166 19.7156 15.6781 19.9541C15.4396 20.1926 15.4396 20.5793 15.6781 20.8178L16.4924 21.6321C16.7309 21.8706 17.1176 21.8706 17.3561 21.6321L19.799 19.1892Z" fill="#A8ABB3"/>
<path d="M16.603 14.751C15.5455 14.4126 14.3261 14.2197 13.0279 14.2197C8.9804 14.2197 5.69922 16.0947 5.69922 18.4076C5.69922 20.6486 8.77984 22.4786 12.6533 22.59C12.6248 22.4578 12.6029 22.3266 12.5856 22.1977C12.5042 21.5928 12.5044 20.8538 12.5045 20.068V19.888C12.5044 19.1022 12.5042 18.3632 12.5856 17.7583C12.6761 17.0853 12.8923 16.3485 13.5011 15.7398C14.1098 15.1311 14.8466 14.9148 15.5196 14.8243C15.8462 14.7804 16.212 14.7602 16.603 14.751Z" fill="#A8ABB3"/>
</svg>
