<svg width="24" height="23" viewBox="0 0 24 23" fill="none" xmlns="http://www.w3.org/2000/svg">
<circle cx="11.9635" cy="5.72421" r="3.6998" fill="#1C274C" fill-opacity="0.56"/>
<path fill-rule="evenodd" clip-rule="evenodd" d="M16.125 20.5235C14.5989 20.5235 13.8359 20.5235 13.3618 20.0494C12.8877 19.5753 12.8877 18.8122 12.8877 17.2862C12.8877 15.7601 12.8877 14.997 13.3618 14.5229C13.8359 14.0488 14.5989 14.0488 16.125 14.0488C17.6511 14.0488 18.4142 14.0488 18.8882 14.5229C19.3623 14.997 19.3623 15.7601 19.3623 17.2862C19.3623 18.8122 19.3623 19.5753 18.8882 20.0494C18.4142 20.5235 17.6511 20.5235 16.125 20.5235ZM17.9454 16.5886C18.1561 16.3779 18.1561 16.0362 17.9454 15.8255C17.7346 15.6148 17.393 15.6148 17.1823 15.8255L15.4056 17.6022L15.0677 17.2643C14.857 17.0536 14.5154 17.0536 14.3047 17.2643C14.094 17.475 14.094 17.8167 14.3047 18.0274L15.0241 18.7468C15.2348 18.9575 15.5764 18.9575 15.7871 18.7468L17.9454 16.5886Z" fill="#1C274C" fill-opacity="0.56"/>
<path d="M15.1224 12.6676C14.1881 12.3686 13.1108 12.1982 11.9639 12.1982C8.38806 12.1982 5.48926 13.8547 5.48926 15.898C5.48926 17.8779 8.21087 19.4946 11.6329 19.5931C11.6078 19.4763 11.5884 19.3603 11.5731 19.2464C11.5012 18.7121 11.5013 18.0592 11.5014 17.365V17.2059C11.5013 16.5117 11.5012 15.8588 11.5731 15.3245C11.653 14.7298 11.8441 14.079 12.3819 13.5412C12.9197 13.0034 13.5706 12.8123 14.1652 12.7323C14.4538 12.6935 14.7769 12.6757 15.1224 12.6676Z" fill="#1C274C" fill-opacity="0.56"/>
</svg>
