<svg width="18" height="22" viewBox="0 0 18 22" fill="none" xmlns="http://www.w3.org/2000/svg">
<path d="M16.7631 0.345855C15.3632 0.239105 13.9561 0.187226 12.5484 0.190583C7.88096 0.190583 4.98077 2.33211 4.98077 5.78039V8.12119H1.06009C0.677067 8.12101 0.366381 8.34464 0.366211 8.62064V12.4717C0.365957 12.7477 0.676305 12.9716 1.05933 12.9717H4.98077V20.6904C4.98051 20.9664 5.29086 21.1902 5.67388 21.1904H11.1945C11.5775 21.1906 11.8881 20.967 11.8884 20.691V12.9717H15.7969C16.1456 12.9717 16.4402 12.7853 16.4854 12.5362L17.1752 8.68564C17.2248 8.41196 16.957 8.16111 16.5771 8.1254C16.5471 8.12259 16.517 8.12119 16.4868 8.12119H11.8884V6.16222C11.8884 5.1925 12.1594 4.78723 13.8426 4.78723L16.6723 4.78625C17.0554 4.78637 17.366 4.5628 17.3662 4.28681V0.841945C17.3663 0.59097 17.1084 0.378814 16.7631 0.345855ZM15.9785 3.78626L13.8426 3.78724C10.8476 3.78724 10.5006 5.14269 10.5006 6.16222V8.62125C10.5004 8.89718 10.8107 9.12106 11.1937 9.12118H15.6979L15.187 11.9717H11.1945C10.8115 11.9716 10.5009 12.1952 10.5006 12.4712V20.1904H6.36852V12.4717C6.36878 12.1957 6.05843 11.9719 5.67549 11.9717H1.75397V9.12118H5.67465C6.05767 9.12136 6.36827 8.89773 6.36852 8.62173V5.78039C6.36852 2.90638 8.6791 1.19058 12.5484 1.19058C13.9483 1.19058 15.2128 1.24526 15.9785 1.29311V3.78626Z" fill="#606061"/>
</svg>
