<svg width="24" height="26" viewBox="0 0 24 26" fill="none" xmlns="http://www.w3.org/2000/svg">
<path opacity="0.5" d="M20.0275 9.57033C21.4832 8.01578 21.4832 5.49536 20.0275 3.94081C18.5718 2.38627 16.2116 2.38627 14.7559 3.94081L13.915 4.83874C13.9266 4.87587 13.9385 4.91351 13.9509 4.95164C14.2591 5.90028 14.8406 7.14387 15.9345 8.31204C17.0284 9.48022 18.1929 10.1012 19.0813 10.4303C19.1168 10.4435 19.1519 10.4562 19.1865 10.4684L20.0275 9.57033Z" fill="#2684FC"/>
<path d="M13.9519 4.79883L13.9157 4.83749C13.9272 4.87462 13.9391 4.91226 13.9515 4.9504C14.2597 5.89904 14.8412 7.14262 15.9351 8.3108C17.029 9.47897 18.1936 10.1 19.0819 10.4291C19.1171 10.4421 19.1519 10.4547 19.1862 10.4669L11.0716 19.1324C10.5246 19.7166 10.251 20.0087 9.94937 20.2599C9.59357 20.5563 9.2086 20.8104 8.80127 21.0177C8.45596 21.1934 8.08894 21.3241 7.35494 21.5854L3.48427 22.9632C3.12306 23.0917 2.72482 22.9914 2.45559 22.7038C2.18635 22.4163 2.09234 21.9911 2.21275 21.6053L3.50297 17.4719C3.74764 16.688 3.86997 16.2961 4.03454 15.9274C4.22867 15.4924 4.46659 15.0813 4.74411 14.7013C4.97935 14.3792 5.2529 14.0871 5.79994 13.5029L13.9519 4.79883Z" fill="#2684FC"/>
<path d="M19.3262 13.7852L18.218 14.9686C17.9404 15.2651 17.9404 15.7458 18.218 16.0423C18.4956 16.3388 18.9458 16.3388 19.2234 16.0423L20.3136 14.8781C20.0495 14.5616 19.7203 14.2064 19.3262 13.7852Z" fill="#2684FC"/>
<path d="M9.52225 3.39453L8.26487 4.73727C7.98723 5.03376 7.98723 5.51446 8.26487 5.81095C8.54251 6.10743 8.99265 6.10743 9.27029 5.81095L10.5644 4.42896C10.1608 4.00123 9.82451 3.65642 9.52225 3.39453Z" fill="#2684FC"/>
</svg>
