<svg width="50" height="50" viewBox="0 0 50 50" fill="none" xmlns="http://www.w3.org/2000/svg">
<path d="M49.839 14.7577C49.811 12.6583 49.4173 10.5798 48.6756 8.61515C48.0324 6.95796 47.05 5.45293 45.7912 4.19623C44.5324 2.93953 43.0249 1.95878 41.365 1.31667C39.4223 0.588638 37.37 0.194981 35.2954 0.152456C32.6244 0.0332633 31.7775 0 24.9972 0C18.2169 0 17.3478 1.85872e-07 14.6962 0.152456C12.6226 0.195293 10.5713 0.588946 8.6295 1.31667C6.96929 1.95834 5.46152 2.93892 4.20267 4.19568C2.94382 5.45244 1.9616 6.9577 1.31886 8.61515C0.588158 10.5531 0.1947 12.6015 0.155486 14.6718C0.0360951 17.3412 0 18.1866 0 24.9557C0 31.7247 -2.06869e-08 32.5895 0.155486 35.2395C0.197135 37.3129 0.588627 39.3586 1.31886 41.3017C1.96268 42.9586 2.94562 44.4633 4.2049 45.7195C5.46417 46.9757 6.97208 47.9559 8.63227 48.5974C10.5687 49.3547 12.6204 49.7765 14.699 49.8448C17.3728 49.964 18.2197 50 25 50C31.7803 50 32.6494 50 35.301 49.8448C37.3755 49.804 39.4279 49.4112 41.3705 48.6833C43.03 48.0405 44.5372 47.0595 45.7959 45.8029C47.0546 44.5463 48.0372 43.0416 48.6811 41.3849C49.4114 39.4445 49.8029 37.3988 49.8445 35.3227C49.9639 32.6561 50 31.8106 50 25.0388C49.9944 18.2698 49.9945 17.4105 49.839 14.7577ZM24.9806 37.7564C17.8893 37.7564 12.1446 32.0213 12.1446 24.9418C12.1446 17.8623 17.8893 12.1272 24.9806 12.1272C28.3849 12.1272 31.6498 13.4773 34.057 15.8805C36.4642 18.2837 37.8165 21.5431 37.8165 24.9418C37.8165 28.3404 36.4642 31.5999 34.057 34.0031C31.6498 36.4063 28.3849 37.7564 24.9806 37.7564ZM38.3274 14.6413C37.9342 14.6417 37.5449 14.5646 37.1816 14.4146C36.8183 14.2646 36.4882 14.0445 36.2101 13.7669C35.9321 13.4894 35.7117 13.1598 35.5614 12.7971C35.4111 12.4344 35.3339 12.0457 35.3343 11.6532C35.3343 11.261 35.4117 10.8726 35.562 10.5102C35.7124 10.1478 35.9327 9.81857 36.2106 9.54123C36.4884 9.26388 36.8182 9.04388 37.1811 8.89378C37.5441 8.74368 37.9331 8.66643 38.326 8.66643C38.7189 8.66643 39.1079 8.74368 39.4709 8.89378C39.8339 9.04388 40.1637 9.26388 40.4415 9.54123C40.7193 9.81857 40.9397 10.1478 41.09 10.5102C41.2404 10.8726 41.3178 11.261 41.3178 11.6532C41.3178 13.3052 39.9795 14.6413 38.3274 14.6413Z" fill="#213795"/>
<path d="M24.9805 33.2659C29.5855 33.2659 33.3185 29.5391 33.3185 24.9418C33.3185 20.3446 29.5855 16.6177 24.9805 16.6177C20.3756 16.6177 16.6426 20.3446 16.6426 24.9418C16.6426 29.5391 20.3756 33.2659 24.9805 33.2659Z" fill="#213795"/>
</svg>
