<svg width="26" height="26" viewBox="0 0 26 26" fill="none" xmlns="http://www.w3.org/2000/svg">
<path d="M1.34044 7.77354C1.39863 6.50195 1.59774 5.68185 1.867 4.98571L1.87062 4.97609C2.13744 4.26771 2.55543 3.62599 3.0955 3.09558L3.10308 3.08814L3.11052 3.08056C3.64137 2.5398 4.28332 2.12222 4.99108 1.8561L5.00329 1.85143C5.69784 1.58133 6.51634 1.38296 7.78899 1.32478M1.34044 7.77354C1.27926 9.13218 1.26367 9.55333 1.26367 13.0759C1.26367 16.5994 1.2784 17.0196 1.34041 18.3785M1.34044 7.77354L1.34044 8.11626M1.87172 21.1764C2.13784 21.8842 2.55542 22.5262 3.09618 23.057L3.10375 23.0644L3.11118 23.072C3.64162 23.6121 4.28336 24.0301 4.99175 24.2969L5.00233 24.3009C5.69751 24.5705 6.51641 24.7689 7.78899 24.8271M1.87172 21.1764L1.86705 21.1642C1.59695 20.4697 1.39859 19.6512 1.34041 18.3785M1.87172 21.1764L1.85577 21.0924M1.34041 18.3785L1.36124 18.4883M1.34041 18.3785L1.34041 18.035M1.85577 21.0924L1.36124 18.4883M1.85577 21.0924C1.64574 20.5375 1.42947 19.7634 1.36124 18.4883M1.85577 21.0924C1.86314 21.1119 1.8705 21.1311 1.87784 21.15C2.1442 21.8681 2.56623 22.5182 3.1136 23.0538C3.64899 23.6011 4.29892 24.0231 5.01673 24.2894C5.59279 24.5138 6.40449 24.7483 7.7888 24.8117C9.18579 24.8753 9.6174 24.8883 13.0916 24.8883C16.5657 24.8883 16.9977 24.8753 18.3947 24.8117C19.7807 24.7482 20.5915 24.5124 21.1655 24.2897C21.8837 24.0235 22.534 23.6014 23.0696 23.0538C23.6168 22.5184 24.0387 21.8685 24.305 21.1508C24.5294 20.5747 24.7639 19.763 24.8273 18.3787C24.8909 16.9817 24.9039 16.5493 24.9039 13.0759C24.9039 9.60265 24.8909 9.16981 24.8273 7.77281C24.7635 6.37955 24.5255 5.56759 24.3019 4.99305C24.0095 4.23819 23.6386 3.66728 23.0687 3.0973C22.4999 2.52958 21.9304 2.15856 21.175 1.86586C20.5984 1.64043 19.7859 1.40396 18.3947 1.3402C18.2737 1.33469 18.16 1.32957 18.0509 1.3248M1.36124 18.4883C1.35932 18.4523 1.35751 18.4159 1.35582 18.3791C1.35031 18.258 1.34518 18.1442 1.34041 18.035M7.78899 1.32478C9.14794 1.26278 9.56895 1.24805 13.0916 1.24805C16.6142 1.24805 17.035 1.26362 18.3936 1.3248M7.78899 1.32478L8.13258 1.32478M18.3936 1.3248L18.0509 1.3248M18.3936 1.3248C19.6654 1.38297 20.4856 1.58204 21.1818 1.85133L21.1914 1.85499C21.8998 2.12182 22.5415 2.53981 23.0719 3.07988L23.0793 3.08738L23.0868 3.09474C23.627 3.6252 24.0449 4.2671 24.3115 4.97568L24.3161 4.98767C24.5862 5.68221 24.7846 6.50072 24.8427 7.77337M8.13258 1.32478L18.0509 1.3248M8.13258 1.32478C9.28331 1.27447 9.91934 1.26364 13.0916 1.26364C16.2641 1.26364 16.8999 1.27447 18.0509 1.3248M8.13258 1.32478C8.02337 1.32956 7.90952 1.33469 7.78843 1.3402C6.40239 1.40372 5.59165 1.63953 5.01763 1.86217C4.29671 2.12941 3.64426 2.55369 3.10755 3.10426C2.54289 3.67124 2.17329 4.23942 1.88152 4.9924C1.65609 5.56899 1.41957 6.38188 1.35581 7.77317C1.35031 7.89387 1.3452 8.00737 1.34044 8.11626M24.8427 18.3785C24.7846 19.6511 24.5862 20.47 24.3166 21.1652L24.3125 21.1758C24.0457 21.8842 23.6277 22.5259 23.0876 23.0563L23.0801 23.0638L23.0726 23.0713C22.5418 23.6121 21.8998 24.0297 21.1921 24.2958L21.1799 24.3005C20.4853 24.5706 19.6668 24.7689 18.3942 24.8271M1.34041 18.035C1.29009 16.8842 1.27926 16.2482 1.27926 13.0759C1.27926 9.90274 1.29008 9.2676 1.34044 8.11626M1.34041 18.035L1.34044 8.11626M10.9879 18.1547C11.6549 18.4309 12.3697 18.5731 13.0916 18.5731C14.5495 18.5731 15.9477 17.994 16.9787 16.963C18.0096 15.9321 18.5888 14.5339 18.5888 13.0759C18.5888 11.618 18.0096 10.2198 16.9787 9.18886C15.9477 8.15794 14.5495 7.57878 13.0916 7.57878C12.3697 7.57878 11.6549 7.72097 10.9879 7.99723C10.321 8.27348 9.71495 8.6784 9.2045 9.18886C8.69404 9.69932 8.28912 10.3053 8.01286 10.9723C7.7366 11.6392 7.59441 12.3541 7.59441 13.0759C7.59441 13.7978 7.7366 14.5127 8.01286 15.1796C8.28912 15.8466 8.69404 16.4526 9.2045 16.963C9.71495 17.4735 10.321 17.8784 10.9879 18.1547ZM9.19225 9.17661C10.2264 8.14245 11.629 7.56146 13.0916 7.56146C14.5541 7.56146 15.9567 8.14245 16.9909 9.17661C18.0251 10.2108 18.6061 11.6134 18.6061 13.0759C18.6061 14.5385 18.0251 15.9411 16.9909 16.9753C15.9567 18.0095 14.5541 18.5904 13.0916 18.5904C11.629 18.5904 10.2264 18.0095 9.19225 16.9753C8.15808 15.9411 7.57709 14.5385 7.57709 13.0759C7.57709 11.6134 8.15808 10.2108 9.19225 9.17661ZM21.7112 6.27756C21.7112 6.69616 21.545 7.09762 21.249 7.39362C20.953 7.68962 20.5515 7.85591 20.1329 7.85591C19.7143 7.85591 19.3128 7.68962 19.0168 7.39362C18.7208 7.09762 18.5545 6.69616 18.5545 6.27756C18.5545 5.85895 18.7208 5.45749 19.0168 5.16149C19.3128 4.86549 19.7143 4.6992 20.1329 4.6992C20.5515 4.6992 20.953 4.86549 21.249 5.16149C21.545 5.45749 21.7112 5.85895 21.7112 6.27756Z" stroke="#606061" stroke-width="1.24422" stroke-linejoin="round"/>
</svg>
