<?xml version="1.0" encoding="utf-8"?>
<!-- Generator: Adobe Illustrator 26.0.3, SVG Export Plug-In . SVG Version: 6.00 Build 0)  -->
<svg version="1.1" id="Layer_1" xmlns="http://www.w3.org/2000/svg" xmlns:xlink="http://www.w3.org/1999/xlink" x="0px" y="0px"
	 viewBox="0 0 1970.3 1828.4" style="enable-background:new 0 0 1970.3 1828.4;" xml:space="preserve">
<style type="text/css">
	.st0{fill:#0093D7;}
</style>
<g id="Layer_1-2">
	<path class="st0" d="M225.8,1248.2h-47.6c-16.8,0-24.6-7.8-24.6-24.6V190.4c-31.9,0-61.6-0.6-91.3,0c-22.4,0.6-38.1-9-47-28
		C-4.9,118.2-4.9,72.8,14.7,28.6C24.1,6.7,43.2,0,67.3,0h1824.5c39.2,0,54.9,11.2,65,48.2c9.5,34.2,9,68.9-3.4,102.5
		c-8.4,23-22.4,39.8-50.4,39.8v1128.4c17.4,2.2,24.6,14.6,29.1,30.8c11.2,39.8,24.1,79.5,35.8,118.7c6.7,23.5,0,33-24.1,33h-124.4
		c-23.5,0-31.4-10.6-24.1-33.6c11.8-39.8,24.1-79,35.8-118.7c4.5-15.7,10.1-29.7,29.7-29.7V192.1h-71.1v1015.3
		c0,38.1-2.2,40.3-41.4,40.3h-30.8v544.9c0,31.9-3.9,35.8-35.8,35.8H261c-31.4,0-34.7-3.4-34.7-34.7v-546.5L225.8,1248.2z
		 M1746.7,422.8H195.5v783.4h1550.6V422.8H1746.7z M194.9,379.7h1551.7V192.1H194.9V379.7z M1049.5,1249.3V1680h509.6v-430.7H1049.5
		z M383.1,1679.4h509v-430.1h-509V1679.4z M1860.9,41.4H67.8C56,39.7,48.8,45.3,48.2,56c-1.7,22.4-3.4,44.8-2.8,67.2
		c0,19.6,11.2,27.4,32.5,26.9c588-0.6,1176-0.6,1764,0h19.6V41.4L1860.9,41.4z M934.7,1249.3v438.5c0,30.2-4.5,34.7-34.7,34.7H379.8
		c-34.2,0-38.6-3.9-38.6-37.5v-412.1c0-7.8-0.6-15.7-1.1-23.5h-72.2v537h1406.7v-537h-73.4v437.3c0,30.2-4.5,35.3-34.2,35.3h-524.1
		c-30.2,0-35.3-5-35.3-36.4v-436.8h-72.3L934.7,1249.3z M1922.5,1461c-9.5-30.2-17.9-59.4-27.4-88.5c-1.1-3.9-7.8-8.4-12.3-8.4
		c-5,0-13.4,2.8-14.6,6.7c-10.1,29.7-18.5,59.4-28,90.7h82.3V1461z M1910.8,44.8c-16.8,34.7-16.2,75.6,1.1,98.6
		C1924.8,110.9,1924.8,80.1,1910.8,44.8z"/>
	<path class="st0" d="M242,1003V878.6c0-14,0.6-28,19.6-28.6c20.2,0,20.7,14,20.7,29.7v250.9c0,14.6-2.2,28-20.2,28.6
		c-17.9,0-20.7-12.9-20.7-28V1003H242z"/>
</g>
</svg>
