<?xml version="1.0" encoding="UTF-8"?>
<svg id="Layer_2" data-name="Layer 2" xmlns="http://www.w3.org/2000/svg" viewBox="0 0 35.18 32.66">
  <defs>
    <style>
      .cls-1 {
        fill: #0093d7;
      }
    </style>
  </defs>
  <g id="Layer_1-2" data-name="Layer 1">
    <g>
      <path class="cls-1" d="M4.03,22.29c-.31,0-.58,0-.85,0-.3,0-.44-.14-.44-.44,0-.11,0-.22,0-.32,0-5.89,0-11.77,0-17.66v-.47c-.57,0-1.1-.01-1.63,0-.4.01-.68-.16-.84-.5-.36-.79-.36-1.6-.01-2.39C.43.12.77,0,1.2,0c4.03,0,8.06,0,12.09,0,6.83,0,13.66,0,20.49,0,.7,0,.98.2,1.16.86.17.61.16,1.23-.06,1.83-.15.41-.4.71-.9.71v20.15c.31.04.44.26.52.55.2.71.43,1.42.64,2.12.12.42,0,.59-.43.59-.74,0-1.48,0-2.22,0-.42,0-.56-.19-.43-.6.21-.71.43-1.41.64-2.12.08-.28.18-.53.53-.53V3.43h-1.27c0,.14,0,.29,0,.44,0,5.9,0,11.8,0,17.69,0,.68-.04.72-.74.72-.17,0-.33,0-.55,0v.43c0,3.1,0,6.2,0,9.3,0,.57-.07.64-.64.64-8.46,0-16.91,0-25.37,0-.56,0-.62-.06-.62-.62,0-3.1,0-6.2,0-9.3v-.46ZM31.19,7.55H3.49v13.99h27.69V7.55ZM3.48,6.78h27.71v-3.35H3.48v3.35ZM18.74,22.31v7.69h9.1v-7.69h-9.1ZM6.84,29.99h9.09v-7.68H6.84v7.68ZM33.23.74h-.38c-10.49,0-20.97,0-31.46,0-.06,0-.12,0-.18,0-.21-.03-.34.07-.35.26-.03.4-.06.8-.05,1.2,0,.35.2.49.58.48,10.5-.01,21,0,31.5,0,.13,0,.26,0,.35,0V.74ZM16.69,22.31c0,.19,0,.33,0,.47,0,2.45,0,4.9,0,7.36,0,.54-.08.62-.62.62-3.1,0-6.19,0-9.29,0-.61,0-.69-.07-.69-.67,0-2.45,0-4.9,0-7.36,0-.14-.01-.28-.02-.42h-1.29v9.59h25.12v-9.59h-1.31v.42c0,2.46,0,4.93,0,7.39,0,.54-.08.63-.61.63-3.12,0-6.24,0-9.36,0-.54,0-.63-.09-.63-.65,0-2.45,0-4.9,0-7.36v-.44h-1.29ZM34.33,26.09c-.17-.54-.32-1.06-.49-1.58-.02-.07-.14-.15-.22-.15-.09,0-.24.05-.26.12-.18.53-.33,1.06-.5,1.62h1.47ZM34.12.8c-.3.62-.29,1.35.02,1.76.23-.58.23-1.13-.02-1.76Z"/>
      <path class="cls-1" d="M4.32,17.91c0-.74,0-1.48,0-2.22,0-.25.01-.5.35-.51.36,0,.37.25.37.53,0,1.49,0,2.99,0,4.48,0,.26-.04.5-.36.51-.32,0-.37-.23-.37-.5,0-.76,0-1.53,0-2.29Z"/>
    </g>
  </g>
</svg>