<svg width="2938" height="2938" viewBox="0 0 2938 2938" fill="none" xmlns="http://www.w3.org/2000/svg">
<circle cx="1469" cy="1469" r="1469" fill="#272B31" fill-opacity="0.101961"/>
<g clip-path="url(#clip0_2013_49)">
<path d="M826.121 1824.4H785.832C771.612 1824.4 765.01 1816.1 765.01 1798.22V698.634C738.009 698.634 712.87 697.995 687.732 698.634C668.772 699.272 655.483 689.055 647.95 668.835C630.852 621.795 630.852 573.478 647.442 526.438C655.398 503.13 671.565 496 691.964 496H2236.26C2269.44 496 2282.72 507.92 2291.27 547.297C2299.31 583.694 2298.89 620.624 2288.4 656.383C2281.29 680.861 2269.44 698.74 2245.74 698.74V1899.64C2260.46 1901.98 2266.56 1915.18 2270.37 1932.42C2279.85 1974.78 2290.77 2017.03 2300.67 2058.75C2306.34 2083.76 2300.67 2093.87 2280.27 2093.87H2174.98C2155.08 2093.87 2148.4 2082.59 2154.58 2058.11C2164.56 2015.75 2174.97 1974.03 2184.88 1931.78C2188.69 1915.07 2193.43 1900.18 2210.02 1900.18V700.443H2149.84V1780.98C2149.84 1821.53 2147.97 1823.87 2114.79 1823.87H2088.72V2403.78C2088.72 2437.73 2085.42 2441.88 2058.42 2441.88H855.915C829.338 2441.88 826.544 2438.26 826.544 2404.95V1823.34L826.121 1824.4ZM2113.44 945.966H800.475V1779.7H2112.93V945.966H2113.44ZM799.967 900.097H2113.36V700.443H799.967V900.097ZM1523.32 1825.57V2283.94H1954.65V1825.57H1523.32ZM959.263 2283.31H1390.09V1825.57H959.263V2283.31ZM2210.1 540.06H692.387C682.399 538.251 676.305 544.211 675.797 555.598C674.358 579.437 672.919 603.277 673.427 627.116C673.427 647.975 682.907 656.276 700.936 655.744C1198.63 655.106 1696.32 655.106 2194.02 655.744H2210.61V540.06H2210.1ZM1426.15 1825.57V2292.25C1426.15 2324.39 1422.34 2329.18 1396.78 2329.18H956.47C927.522 2329.18 923.798 2325.02 923.798 2289.27V1850.69C923.798 1842.39 923.29 1833.98 922.867 1825.68H861.755V2397.18H2052.41V1825.68H1990.29V2291.08C1990.29 2323.22 1986.48 2328.64 1961.34 2328.64H1517.73C1492.17 2328.64 1487.85 2323.32 1487.85 2289.9V1825.04H1426.66L1426.15 1825.57ZM2262.24 2050.87C2254.2 2018.73 2247.09 1987.66 2239.05 1956.69C2238.12 1952.54 2232.45 1947.75 2228.64 1947.75C2224.41 1947.75 2217.3 1950.73 2216.28 1954.88C2207.73 1986.49 2200.62 2018.09 2192.58 2051.41H2262.24V2050.87ZM2252.34 543.679C2238.12 580.608 2238.63 624.136 2253.27 648.614C2264.19 614.026 2264.19 581.247 2252.34 543.679Z" fill="#0093D7"/>
<path d="M839.833 1563.45V1431.05C839.833 1416.15 840.341 1401.25 856.423 1400.61C873.521 1400.61 873.944 1415.51 873.944 1432.22V1699.24C873.944 1714.78 872.082 1729.04 856.846 1729.68C841.695 1729.68 839.325 1715.95 839.325 1699.88V1563.45H839.833Z" fill="#0093D7"/>
</g>
<defs>
<clipPath id="clip0_2013_49">
<rect width="1667.7" height="1945.88" fill="white" transform="translate(635 496)"/>
</clipPath>
</defs>
</svg>
