<svg width="734" height="644" viewBox="0 0 734 644" fill="none" xmlns="http://www.w3.org/2000/svg">
<path d="M733.15 194.17L728.55 160.88C722.01 105.09 677.55 61.05 600 33.51C539.2 11.91 456.45 0 367 0C278.24 0 195.73 11.68 134.66 32.88C55.18 60.47 10.51 104.78 5.41998 161.04L0.849985 194.15C-0.0732142 200.822 0.444313 207.614 2.36772 214.069C4.29112 220.524 7.57571 226.491 12.0002 231.57C16.4246 236.648 21.8861 240.719 28.0167 243.508C34.1474 246.298 40.8046 247.741 47.54 247.74H159.16C170.027 247.691 180.52 243.771 188.758 236.685C196.996 229.598 202.438 219.807 204.11 209.07L214.48 151.92C223.24 146.54 258.86 130.16 367 130.16C475.88 130.16 511 146.53 519.51 151.83L529.89 209.08C531.565 219.824 537.016 229.619 545.264 236.705C553.512 243.79 564.016 247.703 574.89 247.74H686.46C693.195 247.741 699.853 246.298 705.983 243.508C712.114 240.719 717.575 236.648 722 231.57C726.424 226.491 729.709 220.524 731.632 214.069C733.556 207.614 734.073 200.822 733.15 194.15V194.17Z" fill="#444444"/>
<path d="M685.77 374.38C682.232 354.929 672.502 337.143 658.031 323.672C643.561 310.202 625.124 301.768 605.47 299.63L530.26 291.72C520.94 290.738 512.211 286.689 505.443 280.207C498.675 273.725 494.252 265.178 492.87 255.91L485.44 206.09C483.713 194.907 478.057 184.707 469.487 177.319C460.917 169.931 449.995 165.84 438.68 165.78H295.32C284.007 165.84 273.085 169.929 264.516 177.315C255.946 184.701 250.289 194.899 248.56 206.08L241.13 255.91C239.747 265.178 235.325 273.725 228.557 280.207C221.789 286.689 213.06 290.738 203.74 291.72L128.53 299.63C108.876 301.768 90.4394 310.202 75.9687 323.672C61.498 337.143 51.7683 354.929 48.23 374.38L19.3 536.71C16.9547 549.844 17.5182 563.333 20.9509 576.226C24.3835 589.12 30.6018 601.103 39.1676 611.333C47.7334 621.562 58.4382 629.789 70.5278 635.433C82.6174 641.077 95.7977 644.001 109.14 644H624.86C638.203 644 651.383 641.074 663.473 635.429C675.562 629.784 686.267 621.556 694.833 611.326C703.398 601.096 709.616 589.111 713.049 576.218C716.482 563.324 717.045 549.835 714.7 536.7L685.77 374.38ZM367 320.48C387.371 320.48 407.285 326.521 424.224 337.838C441.162 349.156 454.364 365.243 462.16 384.063C469.955 402.884 471.995 423.594 468.021 443.574C464.047 463.554 454.237 481.907 439.832 496.312C425.427 510.717 407.074 520.526 387.094 524.501C367.114 528.475 346.404 526.435 327.584 518.639C308.763 510.844 292.676 497.642 281.359 480.704C270.041 463.765 264 443.851 264 423.48C264 396.162 274.852 369.964 294.168 350.648C313.484 331.332 339.683 320.48 367 320.48Z" fill="#444444"/>
</svg>
