<svg id="Layer_1" data-name="Layer 1" xmlns="http://www.w3.org/2000/svg" viewBox="0 0 1080 1080"><defs><style>.cls-1{fill:#444;}</style></defs><g id="_4" data-name="4"><path class="cls-1" d="M906.15,412.17l-4.6-33.29c-6.54-55.79-51-99.83-128.55-127.37C712.2,229.91,629.45,218,540,218c-88.76,0-171.27,11.68-232.34,32.88-79.48,27.59-124.15,71.9-129.24,128.16l-4.57,33.11a47.13,47.13,0,0,0,46.69,53.59H332.16a45.7,45.7,0,0,0,44.95-38.67l10.37-57.15c8.76-5.38,44.38-21.76,152.52-21.76,108.88,0,144,16.37,152.51,21.67l10.38,57.25a45.7,45.7,0,0,0,45,38.66H859.46a47.13,47.13,0,0,0,46.69-53.59Z"/><path class="cls-1" d="M858.77,592.38a91.7,91.7,0,0,0-80.3-74.75l-75.21-7.91a42.28,42.28,0,0,1-37.39-35.81l-7.43-49.82a47.57,47.57,0,0,0-46.76-40.31H468.32a47.57,47.57,0,0,0-46.76,40.3l-7.43,49.83a42.28,42.28,0,0,1-37.39,35.81l-75.21,7.91a91.7,91.7,0,0,0-80.3,74.75L192.3,754.71A91.25,91.25,0,0,0,282.14,862H797.86A91.26,91.26,0,0,0,887.7,754.7ZM540,538.48a103,103,0,1,1-103,103A103,103,0,0,1,540,538.48Z"/></g></svg>