<svg width="7" height="12" viewBox="0 0 7 12" fill="none" xmlns="http://www.w3.org/2000/svg">
<path d="M6.44051 10.7146C6.48595 10.76 6.522 10.814 6.54659 10.8734C6.57119 10.9327 6.58384 10.9964 6.58384 11.0606C6.58384 11.1249 6.57119 11.1885 6.54659 11.2479C6.522 11.3073 6.48595 11.3612 6.44051 11.4067C6.39506 11.4521 6.34112 11.4882 6.28174 11.5128C6.22237 11.5374 6.15873 11.55 6.09446 11.55C6.0302 11.55 5.96656 11.5374 5.90718 11.5128C5.84781 11.4882 5.79386 11.4521 5.74842 11.4067L0.857316 6.51559C0.811841 6.47017 0.775765 6.41622 0.751151 6.35684C0.726537 6.29747 0.713867 6.23382 0.713867 6.16954C0.713867 6.10527 0.726537 6.04162 0.751151 5.98224C0.775765 5.92287 0.811841 5.86892 0.857316 5.8235L5.74842 0.932399C5.84019 0.840622 5.96467 0.789062 6.09446 0.789062C6.22425 0.789063 6.34873 0.840622 6.44051 0.932399C6.53228 1.02418 6.58384 1.14865 6.58384 1.27844C6.58384 1.40824 6.53228 1.53271 6.44051 1.62449L1.89484 6.16954L6.44051 10.7146Z" fill="#67667A"/>
</svg>
