<svg width="50" height="50" viewBox="0 0 50 50" fill="none" xmlns="http://www.w3.org/2000/svg">
<path d="M6.00934 12.0392C9.32821 12.0392 12.0187 9.34411 12.0187 6.01959C12.0187 2.69506 9.32821 0 6.00934 0C2.69047 0 0 2.69506 0 6.01959C0 9.34411 2.69047 12.0392 6.00934 12.0392Z" fill="#213795"/>
<path d="M17.6927 16.6006V49.9972H28.0443V33.4819C28.0443 29.124 28.8627 24.9037 34.2569 24.9037C39.5768 24.9037 39.6427 29.8861 39.6427 33.757V50H49.9998V31.6854C49.9998 22.689 48.0663 15.7753 37.5691 15.7753C32.5293 15.7753 29.1511 18.5457 27.7696 21.1676H27.6296V16.6006H17.6927ZM0.82373 16.6006H11.1918V49.9972H0.82373V16.6006Z" fill="#213795"/>
</svg>
