<svg width="826" height="748" viewBox="0 0 826 748" fill="none" xmlns="http://www.w3.org/2000/svg">
<path d="M821.6 661.64L735.39 405.16C731.045 392.213 722.74 380.958 711.651 372.988C700.561 365.017 687.247 360.732 673.59 360.74H547.47C581.26 299.41 608.73 237 608.73 196.12C608.73 88.1899 520.93 0.389893 413 0.389893C305.07 0.389893 217.27 88.1899 217.27 196.12C217.27 237 244.74 299.41 278.53 360.74H152.41C138.754 360.731 125.441 365.016 114.353 372.987C103.264 380.958 94.9623 392.213 90.62 405.16L4.39998 661.64C1.09648 671.447 0.175273 681.9 1.71252 692.134C3.24977 702.367 7.20132 712.088 13.2403 720.492C19.2794 728.896 27.2323 735.741 36.4415 740.462C45.6506 745.183 55.8514 747.643 66.2 747.64H759.8C770.149 747.643 780.349 745.183 789.558 740.462C798.768 735.741 806.721 728.896 812.76 720.492C818.799 712.088 822.75 702.367 824.287 692.134C825.825 681.9 824.903 671.447 821.6 661.64ZM413 108.59C430.312 108.59 447.235 113.723 461.629 123.341C476.023 132.959 487.242 146.63 493.867 162.624C500.492 178.618 502.225 196.217 498.848 213.196C495.471 230.175 487.134 245.772 474.893 258.013C462.652 270.254 447.055 278.591 430.076 281.968C413.097 285.345 395.498 283.612 379.504 276.987C363.51 270.362 349.839 259.143 340.221 244.749C330.604 230.355 325.47 213.432 325.47 196.12C325.496 172.914 334.727 150.665 351.136 134.256C367.545 117.847 389.794 108.616 413 108.59ZM767.54 688C766.673 689.246 765.514 690.262 764.166 690.959C762.817 691.656 761.318 692.013 759.8 692H66.2C64.6907 691.996 63.2039 691.634 61.8622 690.943C60.5204 690.252 59.3622 689.252 58.4831 688.025C57.604 686.798 57.0292 685.38 56.8061 683.887C56.583 682.394 56.718 680.87 57.2 679.44L143.41 422.95C144.043 421.063 145.252 419.422 146.867 418.258C148.481 417.094 150.42 416.465 152.41 416.46H306.73C308.069 416.45 309.406 416.343 310.73 416.14C354.9 488.6 398.86 548.79 402.54 553.8C403.748 555.441 405.325 556.776 407.144 557.695C408.962 558.615 410.972 559.094 413.01 559.094C415.048 559.094 417.057 558.615 418.876 557.695C420.695 556.776 422.272 555.441 423.48 553.8C427.16 548.8 471.06 488.68 515.2 416.29C516.22 416.402 517.244 416.459 518.27 416.46H673.59C675.581 416.464 677.52 417.092 679.135 418.256C680.749 419.421 681.958 421.062 682.59 422.95L768.8 679.44C769.297 680.862 769.442 682.384 769.222 683.875C769.003 685.365 768.426 686.781 767.54 688Z" fill="#444444"/>
</svg>
