<svg id="Layer_1" data-name="Layer 1" xmlns="http://www.w3.org/2000/svg" viewBox="0 0 1080 1080"><defs><style>.cls-1{fill:#444;}</style></defs><path id="_1" data-name="1" class="cls-1" d="M948.6,827.64,862.39,571.16a65.15,65.15,0,0,0-61.8-44.42H674.47c33.79-61.33,61.26-123.74,61.26-164.62,0-107.93-87.8-195.73-195.73-195.73s-195.73,87.8-195.73,195.73c0,40.88,27.47,103.29,61.26,164.62H279.41a65.13,65.13,0,0,0-61.79,44.42L131.4,827.64a65.19,65.19,0,0,0,61.8,86H886.8a65.19,65.19,0,0,0,61.8-86ZM540,274.59a87.53,87.53,0,1,1-87.53,87.53A87.63,87.63,0,0,1,540,274.59ZM894.54,854a9.33,9.33,0,0,1-7.74,4H193.2a9.52,9.52,0,0,1-9-12.56l86.21-256.49a9.52,9.52,0,0,1,9-6.49H433.73a27.65,27.65,0,0,0,4-.32c44.17,72.46,88.13,132.65,91.81,137.66a13,13,0,0,0,20.94,0c3.68-5,47.58-65.12,91.72-137.51a28.28,28.28,0,0,0,3.07.17H800.59a9.51,9.51,0,0,1,9,6.49l86.21,256.49A9.33,9.33,0,0,1,894.54,854Z"/></svg>