<svg width="18" height="18" viewBox="0 0 18 18" fill="none" xmlns="http://www.w3.org/2000/svg">
<path d="M9.49199 9.83374L7.57533 11.7421C7.49722 11.8195 7.43522 11.9117 7.39292 12.0133C7.35061 12.1148 7.32883 12.2237 7.32883 12.3337C7.32883 12.4438 7.35061 12.5527 7.39292 12.6542C7.43522 12.7558 7.49722 12.8479 7.57533 12.9254C7.65279 13.0035 7.74496 13.0655 7.84651 13.1078C7.94806 13.1501 8.05698 13.1719 8.16699 13.1719C8.277 13.1719 8.38592 13.1501 8.48747 13.1078C8.58902 13.0655 8.68119 13.0035 8.75866 12.9254L12.092 9.59208C12.1679 9.51282 12.2273 9.41937 12.267 9.31708C12.3503 9.11419 12.3503 8.88663 12.267 8.68374C12.2273 8.58145 12.1679 8.488 12.092 8.40874L8.75866 5.07541C8.68096 4.99771 8.58872 4.93608 8.4872 4.89403C8.38568 4.85198 8.27688 4.83033 8.16699 4.83033C8.05711 4.83033 7.9483 4.85198 7.84678 4.89403C7.74527 4.93608 7.65302 4.99771 7.57533 5.07541C7.49763 5.15311 7.43599 5.24535 7.39394 5.34687C7.35189 5.44839 7.33025 5.55719 7.33025 5.66708C7.33025 5.77696 7.35189 5.88576 7.39394 5.98728C7.43599 6.0888 7.49763 6.18104 7.57533 6.25874L9.49199 8.16708H1.50033C1.27931 8.16708 1.06735 8.25487 0.91107 8.41115C0.75479 8.56743 0.666992 8.7794 0.666992 9.00041C0.666992 9.22142 0.75479 9.43338 0.91107 9.58966C1.06735 9.74594 1.27931 9.83374 1.50033 9.83374H9.49199ZM9.00033 0.667075C7.4429 0.660122 5.9147 1.08975 4.58905 1.90723C3.2634 2.72472 2.19337 3.89733 1.50033 5.29208C1.40087 5.49099 1.3845 5.72126 1.45483 5.93224C1.52516 6.14322 1.67641 6.31762 1.87533 6.41707C2.07424 6.51653 2.30451 6.5329 2.51549 6.46257C2.72647 6.39224 2.90087 6.24099 3.00033 6.04207C3.52715 4.97818 4.32852 4.07426 5.32162 3.42373C6.31471 2.77321 7.46351 2.39967 8.64929 2.34174C9.83507 2.2838 11.0148 2.54356 12.0666 3.09417C13.1184 3.64478 14.0041 4.46627 14.6321 5.47374C15.2601 6.48121 15.6077 7.63811 15.639 8.8249C15.6703 10.0117 15.384 11.1853 14.8099 12.2244C14.2358 13.2636 13.3946 14.1305 12.3733 14.7358C11.3519 15.341 10.1875 15.6625 9.00033 15.6671C7.75773 15.6725 6.53879 15.3274 5.4834 14.6714C4.42802 14.0155 3.57895 13.0753 3.03366 11.9587C2.9342 11.7598 2.7598 11.6086 2.54882 11.5382C2.33785 11.4679 2.10757 11.4843 1.90866 11.5837C1.70975 11.6832 1.55849 11.8576 1.48816 12.0686C1.41784 12.2796 1.4342 12.5098 1.53366 12.7087C2.19435 14.0383 3.19826 15.1673 4.44155 15.9788C5.68484 16.7903 7.12237 17.2549 8.60543 17.3246C10.0885 17.3942 11.5632 17.0664 12.8771 16.375C14.191 15.6836 15.2963 14.6537 16.0787 13.3919C16.8611 12.1301 17.2922 10.6822 17.3274 9.19791C17.3626 7.71363 17.0006 6.2469 16.2789 4.94943C15.5571 3.65197 14.5019 2.57088 13.2222 1.818C11.9426 1.06511 10.485 0.667772 9.00033 0.667075V0.667075Z" fill="#DF1C41"/>
</svg>
