<?xml version="1.0" encoding="UTF-8"?>
<svg id="Layer_2" data-name="Layer 2" xmlns="http://www.w3.org/2000/svg" viewBox="0 0 376.64 79.73">
  <defs>
    <style>
      .cls-1 {
        fill: #0093d7;
      }

      .cls-1, .cls-2 {
        fill-rule: evenodd;
      }

      .cls-2 {
        fill: #00205c;
      }
    </style>
  </defs>
  <g id="Layer_1-2" data-name="Layer 1">
    <g>
      <g>
        <path class="cls-2" d="M301.89,55.46c-1.35.05-3.64.09-5.26.09-.05-1.86.28-2.75.83-3.67.66-1.02,1.45-1.26,2.19-1.26h.04c.98,0,1.68.55,2.06,1.4.37.75.56,1.96.56,2.93,0,.32-.14.51-.43.51h0ZM309.31,56.43c0-3.02-.9-5.44-2.38-7.21-1.26-1.44-3.44-2.52-6.34-2.52-6.98,0-11.73,5.22-11.73,11.83v.05c0,6.57,4.71,9.59,10.9,9.59,2.24,0,6.34-.93,9.04-2.19-.18-1.17-.52-2.62-.88-3.82-1.49.51-4.52,1.25-6.57,1.25-1.16,0-2.37-.09-3.45-1.11-.6-.56-1.15-1.5-1.25-3.03,4.15,0,8.89,0,10.16-.14.38-.04,2.47-2.05,2.52-2.7h0ZM260.87,54.95c-3.58-.98-4.37-1.21-4.37-2.28,0-.84.42-1.31.84-1.58.42-.28,1.2-.37,1.77-.37s1.31.15,1.81.51c.19.09.28.33.33.51l.7,2.47c1.44-.23,2.94-.43,4.19-.65-.19-2.05-.42-4.15-.65-6.2-.79-.32-3.03-.65-5.59-.65-3.04,0-5.17.6-6.66,1.34-1.96.94-4,3.03-4,5.82,0,2.94,2.04,4.99,6.24,6.2,3.16.83,3.73,1.16,3.73,2.32,0,.8-.47,1.26-1.02,1.55-.57.23-1.16.23-1.82.23-.84,0-1.78-.23-2.57-.7-.27-.18-.32-.37-.36-.51l-.7-2.66c-1.4.19-2.81.47-4.1.75.24,2.09.47,4.23.74,6.38,1.54.47,3.97.75,6.15.75,2.89,0,5.4-.46,6.89-1.16,2.52-1.26,4.1-3.44,4.1-6.06,0-3.73-2.28-5.08-5.64-6.01h0ZM347.53,53.6c0-1.45-.61-3.08-1.43-4.15-1.18-1.48-2.8-2.65-4.8-2.65-1.76,0-2.62.28-7.17,2.95h-.23c-.42-.57-2.28-3.04-4.8-3.04-1.85,0-2.69.32-6.98,2.84l-.15-.05c-.18-.88-.27-1.77-.41-2.6,0-.1-.05-.14-.14-.14-.27,0-7.26,1.11-9.4,1.34-.05,1.21-.1,2.6-.1,3.77l2.81.09v11.46c0,.14-.05.23-.15.23l-2.33.14c-.04,1.21-.04,2.66-.04,3.92h11.73c.04-1.31.04-2.66.04-3.96l-1.91-.1c0-2.75.05-7.45.1-10.2,1.03-.7,2.51-1.35,3.44-1.35.75,0,1.31.2,1.59.84.28.56.32,1.31.32,2.1v8.38c0,.1-.04.23-.14.23l-1.72.14v3.92h10.8c0-1.31.05-2.66.05-3.96l-1.87-.1c0-2.89.1-7.36.1-10.33.93-.56,2.33-1.12,3.26-1.12.79,0,1.39.28,1.76,1.03.33.65.33,1.39.33,2.28v7.96c0,.1-.1.19-.18.23l-1.59.1c-.04,1.21-.04,2.66-.04,3.92h11.45c.05-1.31.09-2.71.09-3.96l-2.43-.1c.06-2.98.14-6.75.14-10.06h0ZM364.35,54.95c-3.59-.98-4.38-1.21-4.38-2.28,0-.84.42-1.31.84-1.58.43-.28,1.22-.37,1.77-.37s1.31.15,1.82.51c.2.09.28.33.33.51l.69,2.47c1.45-.23,2.94-.43,4.19-.65-.19-2.05-.42-4.15-.65-6.2-.78-.32-3.02-.65-5.58-.65-3.02,0-5.17.6-6.67,1.34-1.95.94-4.01,3.03-4.01,5.82,0,2.94,2.06,4.99,6.25,6.2,3.17.83,3.73,1.16,3.73,2.32,0,.8-.46,1.26-1.04,1.55-.55.23-1.15.23-1.81.23-.83,0-1.77-.23-2.56-.7-.27-.18-.32-.37-.37-.51l-.7-2.66c-1.4.19-2.79.47-4.1.75.24,2.09.47,4.23.75,6.38,1.54.47,3.96.75,6.15.75,2.89,0,5.4-.46,6.89-1.16,2.51-1.26,4.1-3.44,4.1-6.06,0-3.73-2.28-5.08-5.63-6.01h0ZM281.64,63.29c-1.02,0-2.15-.8-2.15-2.1v-5.68c0-2.56.05-3.49.05-3.86,2.14,0,5.03.04,6.98.04.14-1.4.19-3.03.19-4.38-2.19,0-4.8.04-7.17.04.05-1.25.1-5.49.14-6.51,0-.14-.04-.19-.14-.19-.15,0-4.61,1.34-6.99,2.51-.09,1.12-.18,2.61-.33,3.86,0,.23-.13.38-.32.38-.93.04-2.1.18-3.03.23-.08,1.3-.13,2.65-.13,3.96h3.26c0,.42-.05,5.12-.05,6.09,0,.56-.05,2.8-.05,5.41,0,1.3.14,2.37,1.63,3.63,1.21,1.12,2.37,1.44,3.58,1.44h.06c3.45,0,6.85-.42,10.11-1.68-.15-1.21-.33-2.65-.56-3.9-1.44.37-3.21.7-5.08.7h0ZM138.02,63.24c0-5.36.09-10.94.14-15.89,0-.04-.06-.18-.1-.18-.7,0-8.06.14-9.78.18-.04,1.26-.09,2.66-.09,3.96l2.27.09c0,2.84.05,7.45,0,10.62-.88.65-2,.98-2.8.98-.65,0-1.25-.05-1.81-.98-.61-.98-.55-2.61-.55-3.96,0-3.4.08-7.49.13-10.76,0-.05-.05-.18-.13-.18-.66.04-7.5.22-9.45.32,0,1.21-.05,2.56-.05,3.82l2.05.09c0,3.04-.05,6.71-.05,10.25,0,2.84,3.49,6.56,6.34,6.56,1.86,0,2.74-.14,6.62-2.33h.23c.79,1.12,1.45,1.82,2.14,2.33,3.07,0,7.17-.66,7.64-.88,0-1.26.05-2.66.05-3.87l-2.61.1c-.14,0-.18-.1-.18-.28h0ZM152.79,52.81l-.33-.04c-.14-2-.28-3.96-.42-5.92,0-.09-.05-.14-.09-.14-.28,0-7.17,1.02-9.27,1.26-.05,1.17-.09,2.55-.09,3.82l2.75.09v11.73c0,.09-.1.19-.19.19l-2.19.15c-.05,1.17-.05,2.55-.05,3.77,1.96,0,4.57-.05,6.57-.05h7.08c.05-1.21.1-2.56.1-3.77l-3.87-.14c0-.71,0-1.77.05-2.56,0-1.35.09-2.84.7-3.97.88-1.67,1.53-2.56,2.42-3.25.41-.33.84-.41,1.3-.41,1.12,0,2.56.41,2.98.46.83-.79,2.18-4.57,2.18-6.7-.97-.37-2.23-.65-3.34-.65-2.33,0-3.41.65-6.29,6.15h0ZM107.06,62.45c-.18.46-.42.74-.88.84-.66.14-1.81.32-3.69.32-2.09,0-2.42-.14-2.42-1.02v-8.24c1.35,0,2.66.04,3.96.09.42,0,.65.28.74.98l.19,1.86c1.49,0,3.03-.09,4.37-.14,0-1.22,0-2.89.06-4.56,0-1.68,0-3.35.04-4.85-1.34-.04-2.89-.08-4.37-.04l-.28,1.72c-.04.56-.32.88-.6.88-1.31.05-2.62.05-4.06.1v-8.8h.47c2.9,0,4.24.19,4.9.28.65.09.84.37.92.79l.75,3.54c1.54-.15,3.17-.33,4.51-.48-.08-2.74-.23-5.53-.41-8.28-1.07,0-2.7.05-4.62.05h-17c-.04,1.25-.04,2.65-.04,4l2.65.09v21.89c0,.1-.09.19-.19.19l-2.42.14c0,1.26-.04,2.66-.04,3.92h6.38c6.48,0,12.89,0,15.28.04.61-2.75,1.16-5.49,1.72-8.19-1.39-.33-2.98-.61-4.57-.84l-1.35,3.73h0ZM176.81,63.47c-.55.84-1.3,1.07-2.04,1.07h-.05c-.84,0-1.54-.33-2.1-1.25-.69-.98-1.12-2.57-1.12-6.01,0-2.84.47-4.66,1.25-5.78.57-.84,1.31-1.12,2.11-1.12s1.72.47,2.17,1.44c.47,1.08.85,2.53.85,5.36,0,3.17-.19,5.02-1.08,6.28h0ZM181.76,48.43c-1.77-1.11-3.92-1.72-6.39-1.72-2.75,0-5.53.74-7.54,2.23-2.84,2.09-4.47,5.41-4.47,9.09s1.31,6.1,3.45,7.92c1.86,1.63,4.64,2.23,7.35,2.23h.05c2.65,0,4.99-.6,6.75-1.77,2.8-1.77,5.03-5.26,5.03-9.36s-1.82-7.08-4.23-8.62h0ZM213.05,49.31c-4.33-1.49-5.31-1.96-5.31-4.28,0-1.31.65-2.19,1.27-2.65.74-.57,1.63-.84,2.75-.84.93,0,1.81.27,2.37.74.09.1.14.19.18.32l1.08,4.33c1.57-.18,3.3-.37,4.74-.6-.18-2.8-.38-5.68-.65-8.47-1.12-.51-3.59-.89-6.24-.89-4.42,0-7.82,1.11-9.87,2.98-1.82,1.63-3.17,4.05-3.17,6.94,0,4.56,3.63,7.4,8.33,9.16,3.58,1.35,4.76,1.82,4.76,4.15,0,1.11-.42,1.96-1.12,2.52-.75.64-2.09.93-3.21.93s-2.28-.28-3.07-.88c-.14-.1-.23-.29-.28-.42l-1.31-4.61c-1.58.18-3.4.51-4.89.84.32,2.84.65,5.73,1.02,8.66,1.91.71,5.17.93,7.12.93,4.56,0,7.59-.88,9.87-2.65,2.24-1.77,3.45-4.52,3.45-7.46,0-4.38-2.7-6.99-7.82-8.75h0ZM238.01,47.22c-.05,1.21-.05,2.65-.05,3.95l1.58.1c.15,0,.19.05.19.24-.42,2-.8,3.49-1.17,5.07-.37,1.72-.88,3.35-1.4,4.94h-.27c-.7-2.05-1.31-3.68-1.86-5.46-.75-2.32-1.21-3.85-1.51-4.84l2.15-.1c.05-1.26.05-2.7.05-3.96h-12.17c-.04,1.21-.08,2.65-.08,4l1.77.1c.1,0,.23.05.28.14.75,1.95,1.77,4.79,2.94,7.73,1.31,3.45,2.42,6.19,3.86,9.74-.7,1.76-2.01,3.16-3.44,4.47-1.21,1.16-2.42,1.96-3.36,2.47,0,1.21,4.05,3.91,5.59,3.91,1.17-.64,2.38-2.47,3.59-4.38,2.46-3.91,5.68-11.31,6.89-14.25,1.4-3.43,3.25-8.25,3.91-9.87l1.67-.14c.05-1.21.09-2.7.09-3.91-1.12,0-2.65.05-3.96.05h-5.3Z"/>
        <path class="cls-2" d="M372.58,42.56h-.58v-1.63c.09-.03.28-.05.57-.05.61,0,1.02.26,1.02.83,0,.51-.39.85-1.01.85h0ZM373.32,42.8v-.02c.47-.16.84-.55.84-1.14,0-.34-.12-.65-.35-.85-.28-.25-.67-.36-1.29-.36-.4,0-.81.03-1.11.09v4.4h.58v-1.94h.55c.52.02.76.26.89.87.13.56.23.93.3,1.06h.59c-.09-.17-.2-.6-.35-1.23-.1-.46-.31-.78-.65-.9h0ZM372.63,45.96c1.83,0,3.32-1.49,3.32-3.31s-1.49-3.31-3.32-3.31-3.32,1.49-3.32,3.31,1.49,3.31,3.32,3.31h0ZM372.63,38.65c-2.21,0-4,1.8-4,4s1.79,4.01,4,4.01,4.01-1.79,4.01-4.01-1.8-4-4.01-4Z"/>
        <g>
          <path class="cls-1" d="M11.63,40.72h38.5V8.91H11.63v31.81h0ZM0,11.86C0,7.19.88,4.04,2.61,2.43,4.36.8,7.64,0,12.43,0h36.91c4.8,0,8.06.8,9.8,2.43,1.76,1.61,2.63,4.76,2.63,9.43v26.42c0,4.65-.87,7.8-2.63,9.41-1.74,1.63-5.01,2.44-9.8,2.44H12.43c-4.79,0-8.07-.81-9.81-2.44-1.74-1.61-2.61-4.76-2.61-9.41V11.86Z"/>
          <path class="cls-2" d="M30.99,58.4h38.51v-31.81H30.99v31.81h0ZM19.36,29.53c0-4.66.87-7.8,2.62-9.42,1.75-1.62,5.02-2.43,9.81-2.43h36.9c4.79,0,8.06.81,9.81,2.43,1.75,1.62,2.62,4.77,2.62,9.42v26.42c0,4.67-.87,7.81-2.62,9.43-1.75,1.62-5.02,2.43-9.81,2.43H31.79c-4.79,0-8.07-.81-9.81-2.43-1.75-1.62-2.62-4.76-2.62-9.43v-26.42Z"/>
          <path class="cls-1" d="M50.14,0c4.8,0,7.25.8,9,2.43,1.76,1.61,2.63,4.76,2.63,9.43v26.42c0,4.65-.87,7.8-2.63,9.41-1.74,1.63-4.03,2.44-8.83,2.44,0-27.58-.17-11.85-.17-50.13Z"/>
        </g>
      </g>
      <g>
        <path class="cls-2" d="M301.89,55.46c-1.35.05-3.64.09-5.26.09-.05-1.86.28-2.75.83-3.67.66-1.02,1.45-1.26,2.19-1.26h.04c.98,0,1.68.55,2.06,1.4.37.75.56,1.96.56,2.93,0,.32-.14.51-.43.51h0ZM309.31,56.43c0-3.02-.9-5.44-2.38-7.21-1.26-1.44-3.44-2.52-6.34-2.52-6.98,0-11.73,5.22-11.73,11.83v.05c0,6.57,4.71,9.59,10.9,9.59,2.24,0,6.34-.93,9.04-2.19-.18-1.17-.52-2.62-.88-3.82-1.49.51-4.52,1.25-6.57,1.25-1.16,0-2.37-.09-3.45-1.11-.6-.56-1.15-1.5-1.25-3.03,4.15,0,8.89,0,10.16-.14.38-.04,2.47-2.05,2.52-2.7h0ZM260.87,54.95c-3.58-.98-4.37-1.21-4.37-2.28,0-.84.42-1.31.84-1.58.42-.28,1.2-.37,1.77-.37s1.31.15,1.81.51c.19.09.28.33.33.51l.7,2.47c1.44-.23,2.94-.43,4.19-.65-.19-2.05-.42-4.15-.65-6.2-.79-.32-3.03-.65-5.59-.65-3.04,0-5.17.6-6.66,1.34-1.96.94-4,3.03-4,5.82,0,2.94,2.04,4.99,6.24,6.2,3.16.83,3.73,1.16,3.73,2.32,0,.8-.47,1.26-1.02,1.55-.57.23-1.16.23-1.82.23-.84,0-1.78-.23-2.57-.7-.27-.18-.32-.37-.36-.51l-.7-2.66c-1.4.19-2.81.47-4.1.75.24,2.09.47,4.23.74,6.38,1.54.47,3.97.75,6.15.75,2.89,0,5.4-.46,6.89-1.16,2.52-1.26,4.1-3.44,4.1-6.06,0-3.73-2.28-5.08-5.64-6.01h0ZM347.53,53.6c0-1.45-.61-3.08-1.43-4.15-1.18-1.48-2.8-2.65-4.8-2.65-1.76,0-2.62.28-7.17,2.95h-.23c-.42-.57-2.28-3.04-4.8-3.04-1.85,0-2.69.32-6.98,2.84l-.15-.05c-.18-.88-.27-1.77-.41-2.6,0-.1-.05-.14-.14-.14-.27,0-7.26,1.11-9.4,1.34-.05,1.21-.1,2.6-.1,3.77l2.81.09v11.46c0,.14-.05.23-.15.23l-2.33.14c-.04,1.21-.04,2.66-.04,3.92h11.73c.04-1.31.04-2.66.04-3.96l-1.91-.1c0-2.75.05-7.45.1-10.2,1.03-.7,2.51-1.35,3.44-1.35.75,0,1.31.2,1.59.84.28.56.32,1.31.32,2.1v8.38c0,.1-.04.23-.14.23l-1.72.14v3.92h10.8c0-1.31.05-2.66.05-3.96l-1.87-.1c0-2.89.1-7.36.1-10.33.93-.56,2.33-1.12,3.26-1.12.79,0,1.39.28,1.76,1.03.33.65.33,1.39.33,2.28v7.96c0,.1-.1.19-.18.23l-1.59.1c-.04,1.21-.04,2.66-.04,3.92h11.45c.05-1.31.09-2.71.09-3.96l-2.43-.1c.06-2.98.14-6.75.14-10.06h0ZM364.35,54.95c-3.59-.98-4.38-1.21-4.38-2.28,0-.84.42-1.31.84-1.58.43-.28,1.22-.37,1.77-.37s1.31.15,1.82.51c.2.09.28.33.33.51l.69,2.47c1.45-.23,2.94-.43,4.19-.65-.19-2.05-.42-4.15-.65-6.2-.78-.32-3.02-.65-5.58-.65-3.02,0-5.17.6-6.67,1.34-1.95.94-4.01,3.03-4.01,5.82,0,2.94,2.06,4.99,6.25,6.2,3.17.83,3.73,1.16,3.73,2.32,0,.8-.46,1.26-1.04,1.55-.55.23-1.15.23-1.81.23-.83,0-1.77-.23-2.56-.7-.27-.18-.32-.37-.37-.51l-.7-2.66c-1.4.19-2.79.47-4.1.75.24,2.09.47,4.23.75,6.38,1.54.47,3.96.75,6.15.75,2.89,0,5.4-.46,6.89-1.16,2.51-1.26,4.1-3.44,4.1-6.06,0-3.73-2.28-5.08-5.63-6.01h0ZM281.64,63.29c-1.02,0-2.15-.8-2.15-2.1v-5.68c0-2.56.05-3.49.05-3.86,2.14,0,5.03.04,6.98.04.14-1.4.19-3.03.19-4.38-2.19,0-4.8.04-7.17.04.05-1.25.1-5.49.14-6.51,0-.14-.04-.19-.14-.19-.15,0-4.61,1.34-6.99,2.51-.09,1.12-.18,2.61-.33,3.86,0,.23-.13.38-.32.38-.93.04-2.1.18-3.03.23-.08,1.3-.13,2.65-.13,3.96h3.26c0,.42-.05,5.12-.05,6.09,0,.56-.05,2.8-.05,5.41,0,1.3.14,2.37,1.63,3.63,1.21,1.12,2.37,1.44,3.58,1.44h.06c3.45,0,6.85-.42,10.11-1.68-.15-1.21-.33-2.65-.56-3.9-1.44.37-3.21.7-5.08.7h0ZM138.02,63.24c0-5.36.09-10.94.14-15.89,0-.04-.06-.18-.1-.18-.7,0-8.06.14-9.78.18-.04,1.26-.09,2.66-.09,3.96l2.27.09c0,2.84.05,7.45,0,10.62-.88.65-2,.98-2.8.98-.65,0-1.25-.05-1.81-.98-.61-.98-.55-2.61-.55-3.96,0-3.4.08-7.49.13-10.76,0-.05-.05-.18-.13-.18-.66.04-7.5.22-9.45.32,0,1.21-.05,2.56-.05,3.82l2.05.09c0,3.04-.05,6.71-.05,10.25,0,2.84,3.49,6.56,6.34,6.56,1.86,0,2.74-.14,6.62-2.33h.23c.79,1.12,1.45,1.82,2.14,2.33,3.07,0,7.17-.66,7.64-.88,0-1.26.05-2.66.05-3.87l-2.61.1c-.14,0-.18-.1-.18-.28h0ZM152.79,52.81l-.33-.04c-.14-2-.28-3.96-.42-5.92,0-.09-.05-.14-.09-.14-.28,0-7.17,1.02-9.27,1.26-.05,1.17-.09,2.55-.09,3.82l2.75.09v11.73c0,.09-.1.19-.19.19l-2.19.15c-.05,1.17-.05,2.55-.05,3.77,1.96,0,4.57-.05,6.57-.05h7.08c.05-1.21.1-2.56.1-3.77l-3.87-.14c0-.71,0-1.77.05-2.56,0-1.35.09-2.84.7-3.97.88-1.67,1.53-2.56,2.42-3.25.41-.33.84-.41,1.3-.41,1.12,0,2.56.41,2.98.46.83-.79,2.18-4.57,2.18-6.7-.97-.37-2.23-.65-3.34-.65-2.33,0-3.41.65-6.29,6.15h0ZM107.06,62.45c-.18.46-.42.74-.88.84-.66.14-1.81.32-3.69.32-2.09,0-2.42-.14-2.42-1.02v-8.24c1.35,0,2.66.04,3.96.09.42,0,.65.28.74.98l.19,1.86c1.49,0,3.03-.09,4.37-.14,0-1.22,0-2.89.06-4.56,0-1.68,0-3.35.04-4.85-1.34-.04-2.89-.08-4.37-.04l-.28,1.72c-.04.56-.32.88-.6.88-1.31.05-2.62.05-4.06.1v-8.8h.47c2.9,0,4.24.19,4.9.28.65.09.84.37.92.79l.75,3.54c1.54-.15,3.17-.33,4.51-.48-.08-2.74-.23-5.53-.41-8.28-1.07,0-2.7.05-4.62.05h-17c-.04,1.25-.04,2.65-.04,4l2.65.09v21.89c0,.1-.09.19-.19.19l-2.42.14c0,1.26-.04,2.66-.04,3.92h6.38c6.48,0,12.89,0,15.28.04.61-2.75,1.16-5.49,1.72-8.19-1.39-.33-2.98-.61-4.57-.84l-1.35,3.73h0ZM176.81,63.47c-.55.84-1.3,1.07-2.04,1.07h-.05c-.84,0-1.54-.33-2.1-1.25-.69-.98-1.12-2.57-1.12-6.01,0-2.84.47-4.66,1.25-5.78.57-.84,1.31-1.12,2.11-1.12s1.72.47,2.17,1.44c.47,1.08.85,2.53.85,5.36,0,3.17-.19,5.02-1.08,6.28h0ZM181.76,48.43c-1.77-1.11-3.92-1.72-6.39-1.72-2.75,0-5.53.74-7.54,2.23-2.84,2.09-4.47,5.41-4.47,9.09s1.31,6.1,3.45,7.92c1.86,1.63,4.64,2.23,7.35,2.23h.05c2.65,0,4.99-.6,6.75-1.77,2.8-1.77,5.03-5.26,5.03-9.36s-1.82-7.08-4.23-8.62h0ZM213.05,49.31c-4.33-1.49-5.31-1.96-5.31-4.28,0-1.31.65-2.19,1.27-2.65.74-.57,1.63-.84,2.75-.84.93,0,1.81.27,2.37.74.09.1.14.19.18.32l1.08,4.33c1.57-.18,3.3-.37,4.74-.6-.18-2.8-.38-5.68-.65-8.47-1.12-.51-3.59-.89-6.24-.89-4.42,0-7.82,1.11-9.87,2.98-1.82,1.63-3.17,4.05-3.17,6.94,0,4.56,3.63,7.4,8.33,9.16,3.58,1.35,4.76,1.82,4.76,4.15,0,1.11-.42,1.96-1.12,2.52-.75.64-2.09.93-3.21.93s-2.28-.28-3.07-.88c-.14-.1-.23-.29-.28-.42l-1.31-4.61c-1.58.18-3.4.51-4.89.84.32,2.84.65,5.73,1.02,8.66,1.91.71,5.17.93,7.12.93,4.56,0,7.59-.88,9.87-2.65,2.24-1.77,3.45-4.52,3.45-7.46,0-4.38-2.7-6.99-7.82-8.75h0ZM238.01,47.22c-.05,1.21-.05,2.65-.05,3.95l1.58.1c.15,0,.19.05.19.24-.42,2-.8,3.49-1.17,5.07-.37,1.72-.88,3.35-1.4,4.94h-.27c-.7-2.05-1.31-3.68-1.86-5.46-.75-2.32-1.21-3.85-1.51-4.84l2.15-.1c.05-1.26.05-2.7.05-3.96h-12.17c-.04,1.21-.08,2.65-.08,4l1.77.1c.1,0,.23.05.28.14.75,1.95,1.77,4.79,2.94,7.73,1.31,3.45,2.42,6.19,3.86,9.74-.7,1.76-2.01,3.16-3.44,4.47-1.21,1.16-2.42,1.96-3.36,2.47,0,1.21,4.05,3.91,5.59,3.91,1.17-.64,2.38-2.47,3.59-4.38,2.46-3.91,5.68-11.31,6.89-14.25,1.4-3.43,3.25-8.25,3.91-9.87l1.67-.14c.05-1.21.09-2.7.09-3.91-1.12,0-2.65.05-3.96.05h-5.3Z"/>
        <path class="cls-2" d="M372.58,42.56h-.58v-1.63c.09-.03.28-.05.57-.05.61,0,1.02.26,1.02.83,0,.51-.39.85-1.01.85h0ZM373.32,42.8v-.02c.47-.16.84-.55.84-1.14,0-.34-.12-.65-.35-.85-.28-.25-.67-.36-1.29-.36-.4,0-.81.03-1.11.09v4.4h.58v-1.94h.55c.52.02.76.26.89.87.13.56.23.93.3,1.06h.59c-.09-.17-.2-.6-.35-1.23-.1-.46-.31-.78-.65-.9h0ZM372.63,45.96c1.83,0,3.32-1.49,3.32-3.31s-1.49-3.31-3.32-3.31-3.32,1.49-3.32,3.31,1.49,3.31,3.32,3.31h0ZM372.63,38.65c-2.21,0-4,1.8-4,4s1.79,4.01,4,4.01,4.01-1.79,4.01-4.01-1.8-4-4.01-4Z"/>
        <g>
          <path class="cls-1" d="M11.63,40.72h38.5V8.91H11.63v31.81h0ZM0,11.86C0,7.19.88,4.04,2.61,2.43,4.36.8,7.64,0,12.43,0h36.91c4.8,0,8.06.8,9.8,2.43,1.76,1.61,2.63,4.76,2.63,9.43v26.42c0,4.65-.87,7.8-2.63,9.41-1.74,1.63-5.01,2.44-9.8,2.44H12.43c-4.79,0-8.07-.81-9.81-2.44-1.74-1.61-2.61-4.76-2.61-9.41V11.86Z"/>
          <path class="cls-2" d="M30.99,58.4h38.51v-31.81H30.99v31.81h0ZM19.36,29.53c0-4.66.87-7.8,2.62-9.42,1.75-1.62,5.02-2.43,9.81-2.43h36.9c4.79,0,8.06.81,9.81,2.43,1.75,1.62,2.62,4.77,2.62,9.42v26.42c0,4.67-.87,7.81-2.62,9.43-1.75,1.62-5.02,2.43-9.81,2.43H31.79c-4.79,0-8.07-.81-9.81-2.43-1.75-1.62-2.62-4.76-2.62-9.43v-26.42Z"/>
          <path class="cls-1" d="M50.14,0c4.8,0,7.25.8,9,2.43,1.76,1.61,2.63,4.76,2.63,9.43v26.42c0,4.65-.87,7.8-2.63,9.41-1.74,1.63-4.03,2.44-8.83,2.44,0-27.58-.17-11.85-.17-50.13Z"/>
        </g>
      </g>
    </g>
  </g>
</svg>