<svg id="Layer_1" data-name="Layer 1" xmlns="http://www.w3.org/2000/svg" viewBox="0 0 1080 1080"><defs><style>.cls-1{fill:#444;}</style></defs><g id="_6" data-name="6"><path class="cls-1" d="M554.15,622.71a27.8,27.8,0,0,1-28.3,0L171.58,413.51a7.89,7.89,0,0,0-11.89,6.79V738a59.8,59.8,0,0,0,59.8,59.8h641a59.8,59.8,0,0,0,59.8-59.8V420.3a7.89,7.89,0,0,0-11.89-6.79Z"/><path class="cls-1" d="M555.72,557.13,916.23,344.25a7.81,7.81,0,0,0,3.86-7.34,59.87,59.87,0,0,0-59.58-54.74h-641a59.87,59.87,0,0,0-59.58,54.74,7.81,7.81,0,0,0,3.86,7.34L524.28,557.13A30.9,30.9,0,0,0,555.72,557.13Z"/></g></svg>