<svg width="762" height="516" viewBox="0 0 762 516" fill="none" xmlns="http://www.w3.org/2000/svg">
<path d="M395.15 340.71C390.865 343.244 385.978 344.581 381 344.581C376.022 344.581 371.135 343.244 366.85 340.71L12.58 131.51C11.3823 130.806 10.0199 130.43 8.63046 130.421C7.24103 130.412 5.87389 130.77 4.66731 131.459C3.46074 132.148 2.45752 133.144 1.75912 134.345C1.06073 135.546 0.691919 136.911 0.690002 138.3V456C0.690002 471.86 6.99034 487.07 18.205 498.285C23.758 503.838 30.3503 508.243 37.6055 511.248C44.8608 514.253 52.637 515.8 60.49 515.8H701.49C717.35 515.8 732.56 509.5 743.775 498.285C754.99 487.07 761.29 471.86 761.29 456V138.3C761.288 136.911 760.919 135.546 760.221 134.345C759.522 133.144 758.519 132.148 757.313 131.459C756.106 130.77 754.739 130.412 753.35 130.421C751.96 130.43 750.598 130.806 749.4 131.51L395.15 340.71Z" fill="#444444"/>
<path d="M396.72 275.13L757.23 62.2499C758.498 61.5123 759.532 60.4327 760.215 59.1346C760.897 57.8365 761.201 56.3724 761.09 54.9099C759.807 39.9866 752.976 26.0864 741.946 15.9525C730.916 5.8187 716.488 0.187388 701.51 0.169922H60.51C45.5316 0.187388 31.1038 5.8187 20.0739 15.9525C9.04408 26.0864 2.21342 39.9866 0.929998 54.9099C0.819293 56.3724 1.12264 57.8365 1.80529 59.1346C2.48794 60.4327 3.52231 61.5123 4.79 62.2499L365.28 275.13C370.041 277.943 375.47 279.427 381 279.427C386.53 279.427 391.959 277.943 396.72 275.13Z" fill="#444444"/>
</svg>
