<svg id="Layer_1" data-name="Layer 1" xmlns="http://www.w3.org/2000/svg" viewBox="0 0 1942 1367.94"><defs><style>.cls-1{fill:#0093d7;}</style></defs><g id="Layer_1-2" data-name="Layer 1-2"><path class="cls-1" d="M89.59,1516.54h-40A11.54,11.54,0,0,1,38,1505V502.82a12.07,12.07,0,0,1,7.84-11.14l40-13.62a11.21,11.21,0,0,1,10.73,1.65,12.09,12.09,0,0,1,5,9.49V1505A11.53,11.53,0,0,1,90,1516.54ZM61.53,1493H78V505.3l-16.51,5.78Z" transform="translate(-38 -159.33)"/><path class="cls-1" d="M147.79,1516.54H89.59A11.54,11.54,0,0,1,78,1505V548.64a11.85,11.85,0,0,1,7-10.74,11.34,11.34,0,0,1,12.8,2.48l58.2,55.31a11.26,11.26,0,0,1,3.71,8.67V1505a11.53,11.53,0,0,1-11.56,11.56ZM101.15,1493h34.67V609.31l-34.67-33Z" transform="translate(-38 -159.33)"/><path class="cls-1" d="M1212.28,1527.27h-64.39a11.54,11.54,0,0,1-11.56-11.56V189.54A11.09,11.09,0,0,1,1145,178.4l64-18.58c3.71-1.24,7.43,0,10.32,2.07a11.73,11.73,0,0,1,4.54,9.49V1515.71A11.54,11.54,0,0,1,1212.28,1527.27Zm-52.42-23.53h40.86V186.65l-40.86,11.56V1503.74Z" transform="translate(-38 -159.33)"/><path class="cls-1" d="M1282,1527.27h-69.76a11.54,11.54,0,0,1-11.56-11.56V171.38a11.63,11.63,0,0,1,5.37-9.91,11.85,11.85,0,0,1,11.14-.82L1287,192.84a12.3,12.3,0,0,1,7,10.73V1515.71a11.54,11.54,0,0,1-11.56,11.56Zm-58.2-23.53h46.23V210.59l-46.23-21.05Z" transform="translate(-38 -159.33)"/><path class="cls-1" d="M89.59,560.61a11.21,11.21,0,0,1-7-2.48A11.53,11.53,0,0,1,78,549.05V489.2a11.07,11.07,0,0,1,8.66-11.14L1144.59,178.4c3.3-1.24,7.43,0,10.32,2.06a11.73,11.73,0,0,1,4.54,9.49v90.4a12.4,12.4,0,0,1-8.67,11.55L92.48,560.19H89.59Zm11.56-62.74v35.91L1136.33,270.85v-66Z" transform="translate(-38 -159.33)"/><path class="cls-1" d="M125.5,594.86a13,13,0,0,1-8.25-3.3L81.34,557.3A13,13,0,0,1,78,545.75a11.73,11.73,0,0,1,8.66-8.26L1145,268.79a12,12,0,0,1,9.91,2.06,11.54,11.54,0,0,1,4.54,9.08V320.8a12.4,12.4,0,0,1-8.67,11.55L128.39,594.45H125.5Zm-12.38-40,16.1,15.27,1007.11-258V295.21ZM1147.89,321.21Z" transform="translate(-38 -159.33)"/><path class="cls-1" d="M1914.37,551.11a12.78,12.78,0,0,1-4.54-.82L1277.5,295.21a11.59,11.59,0,0,1-7.43-10.74v-80.9c0-4.12,2.06-7.42,5.36-9.9a11.87,11.87,0,0,1,11.15-.83l632.33,268.71a11.59,11.59,0,0,1,7,10.73v67.28a12.74,12.74,0,0,1-5.37,9.9,12.43,12.43,0,0,1-6.6,2.07ZM1294,276.22l608.81,245.59v-42.1L1294,220.91Z" transform="translate(-38 -159.33)"/><path class="cls-1" d="M1968,1523.14h-53.66a11.53,11.53,0,0,1-11.55-11.55V471.86a13.59,13.59,0,0,1,5-9.9,13.18,13.18,0,0,1,11.14-1.24l53.66,21.46a11.57,11.57,0,0,1,7.43,10.73V1511.17a11.54,11.54,0,0,1-11.56,11.56Zm-42.1-23.11h30.13V501.17l-30.13-12V1500Z" transform="translate(-38 -159.33)"/><path class="cls-1" d="M1914.37,1523.14h-49.53a11.53,11.53,0,0,1-11.55-11.55V556.89a12.07,12.07,0,0,1,7.84-11.14L1910.66,528a11.21,11.21,0,0,1,10.73,1.65,11,11,0,0,1,4.95,9.49v972.45a11.53,11.53,0,0,1-11.55,11.55Zm-38-23.11h26v-944l-26,9.49V1500Z" transform="translate(-38 -159.33)"/><path class="cls-1" d="M1864.84,568.45s-2.89,0-4.13-.83l-582.8-228.25a11.57,11.57,0,0,1-7.43-10.73v-45a12.76,12.76,0,0,1,5.36-9.91A13.28,13.28,0,0,1,1287,272.5l632.34,255.09a11.71,11.71,0,0,1,7.43,11.14,11.55,11.55,0,0,1-7.85,10.73l-49.53,17.75a16.64,16.64,0,0,1-4.12.83ZM1294,320.8l571.24,223.71,16.52-5.78L1294.42,301.81v19.4Z" transform="translate(-38 -159.33)"/><path class="cls-1" d="M170.08,613.85c-32.61,0-50.77-23.11-51.59-23.94-4.13-4.95-2.89-12.38,2.06-16.51s12.38-2.89,16.51,2.06a44.35,44.35,0,0,0,37.56,14.86c20.23-1.65,22.7-28.48,22.7-29.3a11,11,0,0,1,9.5-10.32c5.36-1.24,10.31,1.65,12.79,6.19.83,1.65,10.73,18.57,29.72,14,19-4.12,20.22-26.41,20.22-27.65,0-4.95,3.31-9.08,8.26-10.73a11.14,11.14,0,0,1,12.79,4.13c.42.82,14.45,17.74,42.11,9.49,24.76-7,24.35-21.88,24.35-23.53a11.67,11.67,0,0,1,9.08-12.38c5.36-1.24,11.56,1.65,13.62,7,1.24,2.89,12.79,28.06,38.38,21.05,28.48-7.43,31-39.63,31-40.87,0-4.95,4.13-9.49,9.08-10.73a11.63,11.63,0,0,1,12.8,5.37s26.83,42.93,54.89,36.32c27.25-6.19,29.72-57.37,29.72-58.2a11.28,11.28,0,0,1,10.73-11.14c5.37,0,11.15,3.3,12.39,9.08.82,3.71,11.14,38,49.94,32.19,40.45-5.77,38-55.3,38-57.37,0-5.78,3.3-10.73,8.67-12l18.16-4.54a11.74,11.74,0,0,1,13.62,7c.83,1.65,19.4,44.58,61.09,35.91,41.27-8.67,35.5-58.2,35.08-60.26a11.79,11.79,0,0,1,8.26-12.8,11.57,11.57,0,0,1,14,6.19c1.24,2.07,26,53.66,73.06,43.75,46.64-9.9,49.94-75.53,49.94-76.36,0-5.36,4.13-9.9,9.5-11.14,5.77-.83,10.73,1.65,12.79,6.6,0,.83,29.31,66.46,68.93,55.73,38.8-10.32,37.15-83,37.15-83.38a11.76,11.76,0,0,1,10.73-12c6.6,0,12,4.13,12.79,9.91,0,2.06,7.43,51.18,45.41,51.18h2.06c6.19,0,11.56,5,11.56,11.14,0,6.61-5,12-11.15,12-24.76,1.65-41.68-10.73-52.83-26-6.19,25.18-19.81,52-49.53,59.85-35.91,9.49-63.15-17.34-79.66-40.45-7.43,25.17-24.35,57.37-62.74,65.62-33.84,7.43-61.09-9.08-79.25-28.06-5.36,21.87-19.81,44.57-51.59,51.18-42.93,9.08-70.58-19-83-40.86h0c-1.24,26.41-14.45,66-58.2,72.23-27.24,4.13-46.64-5.78-58.61-18.58-5.78,19.4-17.75,40.87-42.1,46.23-27.66,6.19-50.77-12-65.22-27.65-6.19,14.44-18.57,30.95-42.1,37.15-22.7,5.77-40-2.48-51.59-13.63-6.19,8.67-16.51,16.51-33.44,21.47-22.29,6.6-39.21,2.06-50.76-4.13-5.37,12.8-15.69,25.59-34.26,29.72-16.51,3.3-29.72-1.24-39.21-8.26-6.2,13.62-18.17,26.83-38,28.48h-6.6Z" transform="translate(-38 -159.33)"/><path class="cls-1" d="M925.83,1527.27H878.78a11.53,11.53,0,0,1-11.56-11.56V742.22a11.54,11.54,0,0,1,11.56-11.56,11.81,11.81,0,0,1,11.55,11.56v761.52h23.53V755.84a11.54,11.54,0,0,1,11.56-11.56A11.81,11.81,0,0,1,937,755.84V1515.3a11.53,11.53,0,0,1-11.55,11.56Z" transform="translate(-38 -159.33)"/><path class="cls-1" d="M967.11,1527.27H925.83a11.54,11.54,0,0,1-11.56-11.56,11.81,11.81,0,0,1,11.56-11.55h29.72V746.76a11.53,11.53,0,0,1,11.56-11.56,11.81,11.81,0,0,1,11.55,11.56v769A11.53,11.53,0,0,1,967.11,1527.27Z" transform="translate(-38 -159.33)"/><path class="cls-1" d="M849.06,781.43a71.07,71.07,0,0,1-14.45-1.24L168,613.44c-6.19-1.65-10.32-7.84-8.67-14s7.84-10.31,14-8.66L839.15,757.08c7,1.23,21.47,1.23,26-3.31.82-.82,2.47-2.89,1.65-9.49-1.24-6.19,3.3-12.38,9.49-13.62a11.74,11.74,0,0,1,13.62,9.49c2.89,15.69-2.89,25.18-8.25,30.55-9.08,9.08-22.71,10.73-33,10.73Z" transform="translate(-38 -159.33)"/><path class="cls-1" d="M939,767.81h-4.95L239,594.45c-6.19-1.65-10.32-7.84-8.67-14s7.43-10.32,14-8.67L937.8,744.69c2.89,0,15.68-.82,20.64-5.78.82-.82,2.89-2.88,1.65-9.08a11.69,11.69,0,0,1,9.9-13.2c6.2-1.24,12.39,3.71,13.21,9.9,2.07,14.45-3.3,23.53-7.84,28.48C964.63,766.16,947.29,767.81,939,767.81Z" transform="translate(-38 -159.33)"/><path class="cls-1" d="M1006.73,747.17c-16.92,0-33.85-6.19-38.39-7.84L311.65,570.92a11.77,11.77,0,0,1,6.2-22.7L975.77,717c13.21,5,34.26,9.49,42.52,4.54.82-.41,2.89-2.06,3.3-7,.41-6.6,5.78-12,12.79-10.73,6.61.41,11.15,6.19,10.74,12.8-1.24,14-8.67,21-14.45,24.76-7,4.13-15.27,5.78-23.53,5.78Z" transform="translate(-38 -159.33)"/><path class="cls-1" d="M1081,734.37a136.55,136.55,0,0,1-34.68-4.54L403.7,562.26a11.89,11.89,0,0,1-8.26-14.45,11.69,11.69,0,0,1,14.45-8.25l643.07,168s49.12,13.2,62.74-10.74c3.3-5.77,10.32-7.43,16.09-4.12s7.43,10.32,4.13,16.09c-12.38,21.05-35.5,26-54.89,26Z" transform="translate(-38 -159.33)"/><path class="cls-1" d="M1145,717.86h-2.89L505.65,550.29a11.89,11.89,0,0,1-8.26-14.45,11.69,11.69,0,0,1,14.45-8.25L1148.3,695.16a11.88,11.88,0,0,1,8.26,14.45c-1.24,5.37-6.19,8.67-11.56,8.67Z" transform="translate(-38 -159.33)"/><path class="cls-1" d="M1147.89,663.79H1145L608,523.05a11.88,11.88,0,0,1-8.25-14.45,11.69,11.69,0,0,1,14.44-8.26l537,140.75a11.89,11.89,0,0,1,8.26,14.45c-1.24,5.36-6.19,8.67-11.56,8.67Z" transform="translate(-38 -159.33)"/><path class="cls-1" d="M1145,618a16,16,0,0,1-3.71-.41L740.5,490.85A12.28,12.28,0,0,1,732.66,476c2.07-6.19,8.26-9.49,14.86-7.84L1148.3,594.86a12.28,12.28,0,0,1,7.85,14.86A11.89,11.89,0,0,1,1145,618Z" transform="translate(-38 -159.33)"/><path class="cls-1" d="M1145,554.41a16,16,0,0,1-3.71-.41L870.11,468.15a11.88,11.88,0,1,1,7-22.7L1148.3,531.3a12.28,12.28,0,0,1,7.85,14.86A11.9,11.9,0,0,1,1145,554.41Z" transform="translate(-38 -159.33)"/><path class="cls-1" d="M1147.89,485.07a16,16,0,0,1-3.71-.41l-125.07-41.28a11.7,11.7,0,0,1-7.43-14.86,11.86,11.86,0,0,1,14.86-7.42l125.07,41.27a11.7,11.7,0,0,1,7.43,14.86,11.91,11.91,0,0,1-11.15,8.25Z" transform="translate(-38 -159.33)"/><path class="cls-1" d="M1770.73,611.79a100.19,100.19,0,0,1-29.71-4.54l-462.7-152.72a11.75,11.75,0,1,1,7.43-22.29L1748.45,585c2.47.82,59.85,19,84.61-40.86a11.19,11.19,0,0,1,15.27-6.2,11.85,11.85,0,0,1,6.19,15.28c-19.4,45.81-55.31,58.61-84.2,58.61Z" transform="translate(-38 -159.33)"/><path class="cls-1" d="M1619.25,642.33a127.81,127.81,0,0,1-38-6.19L1278.32,533a11.75,11.75,0,1,1,7.43-22.29l303,103.19c9.91,3.72,39.63,10.32,56.55-1.65,9.9-7,14.86-19.81,14.86-38.8a11.54,11.54,0,0,1,11.55-11.56,11.81,11.81,0,0,1,11.56,11.56c0,26.83-8.25,46.23-24.76,57.79-12,8.66-26.42,11.14-39.63,11.14Z" transform="translate(-38 -159.33)"/><path class="cls-1" d="M1494.19,670.81c-19.81,0-38-6.6-41.27-7.84l-175-62.74c-6.19-2.06-9.08-9.08-7-14.86,2.07-6.19,8.67-9.08,14.86-7l175,62.74c9.49,3.72,40,11.56,53.24.83,7-5.37,9.5-16.51,7.43-33a11.72,11.72,0,0,1,10.32-13.21c5.78-.83,12.38,3.71,13.21,10.32q4.95,37.77-16.1,54.48c-9.9,7.84-22.7,10.32-35.08,10.32Z" transform="translate(-38 -159.33)"/><path class="cls-1" d="M1389.35,690.21a88,88,0,0,1-10.32-.83l-100.3-28.89a11.62,11.62,0,0,1,6.61-22.29l99.06,28.9c2.89,0,15.27,1.23,22.7-5,4.54-4.12,7-11.14,6.6-20.63a11.63,11.63,0,0,1,11.56-12h0a11.54,11.54,0,0,1,11.56,11.55c0,17.34-4.54,30.13-15.27,39.21S1398,691,1388.94,691Z" transform="translate(-38 -159.33)"/><path class="cls-1" d="M1297.31,714.56c-10.32,0-18.58-3.3-19.81-4.13a11.65,11.65,0,1,1,9.08-21.46s11.55,4.54,18.57,0c5.78-3.71,9.08-13.21,9.08-27.24,0-6.6,5.78-11.14,12-11.56,6.6,0,11.56,5.78,11.56,12-.42,22.7-7.43,38.39-20.23,46.23a36.61,36.61,0,0,1-20.64,5.78Z" transform="translate(-38 -159.33)"/></g></svg>