<svg width="1668" height="1595" viewBox="0 0 1668 1595" fill="none" xmlns="http://www.w3.org/2000/svg">
<g clip-path="url(#clip0_2013_50)">
<path d="M44.3111 1582.49H9.95475C8.6495 1582.5 7.35599 1582.15 6.14848 1581.48C4.94096 1580.81 3.84322 1579.82 2.91827 1578.57C1.99332 1577.32 1.25938 1575.83 0.758579 1574.2C0.257781 1572.56 -1.22513e-05 1570.81 4.36682e-10 1569.03V400.505C0.0285271 397.671 0.686605 394.915 1.8881 392.597C3.0896 390.28 4.77853 388.508 6.73384 387.516L41.0902 371.635C42.6206 370.87 44.2692 370.645 45.8812 370.981C47.4932 371.318 49.0159 372.205 50.3063 373.559C51.601 374.83 52.6621 376.49 53.407 378.409C54.1519 380.329 54.5604 382.455 54.6008 384.624V1569.03C54.6019 1570.8 54.3455 1572.56 53.8462 1574.19C53.3468 1575.83 52.6145 1577.31 51.6911 1578.56C50.7678 1579.81 49.6716 1580.8 48.4656 1581.48C47.2595 1582.15 45.9674 1582.49 44.6632 1582.49H44.3111ZM20.2101 1555.04H34.3563V403.396L20.1758 410.136L20.2101 1555.04Z" fill="#0093D7"/>
<path d="M94.2987 1582.49H44.3102C43.005 1582.5 41.7115 1582.15 40.5039 1581.48C39.2964 1580.81 38.1987 1579.82 37.2737 1578.57C36.3488 1577.32 35.6148 1575.83 35.114 1574.2C34.6132 1572.56 34.3555 1570.81 34.3555 1569.03V453.93C34.3674 451.28 34.9405 448.69 36.0065 446.47C37.0725 444.25 38.5865 442.492 40.3678 441.408C42.1969 440.296 44.2341 439.977 46.2016 440.494C48.1691 441.012 49.9711 442.34 51.3619 444.299L101.35 508.79C102.388 510.062 103.211 511.625 103.761 513.37C104.311 515.115 104.576 517.002 104.537 518.899V1569.03C104.54 1570.8 104.286 1572.56 103.788 1574.2C103.29 1575.83 102.559 1577.32 101.636 1578.57C100.714 1579.83 99.6177 1580.82 98.4116 1581.5C97.2054 1582.17 95.9127 1582.52 94.6079 1582.51L94.2987 1582.49ZM54.2392 1555.04H84.0176V524.671L54.2392 486.193V1555.04Z" fill="#0093D7"/>
<path d="M1008.6 1595H953.294C951.99 1595 950.698 1594.66 949.492 1593.98C948.286 1593.3 947.191 1592.31 946.268 1591.06C945.346 1589.81 944.615 1588.32 944.116 1586.68C943.618 1585.05 943.363 1583.29 943.365 1581.52V35.2243C943.302 32.2221 944.011 29.2838 945.37 26.9136C946.728 24.5435 948.653 22.8893 950.812 22.2352L1005.78 0.571159C1008.97 -0.874664 1012.16 0.57115 1014.65 2.98474C1015.89 4.2897 1016.88 5.9696 1017.56 7.89064C1018.24 9.81168 1018.57 11.9208 1018.55 14.05V1581.52C1018.55 1583.29 1018.29 1585.05 1017.79 1586.69C1017.29 1588.33 1016.56 1589.81 1015.64 1591.07C1014.71 1592.32 1013.61 1593.31 1012.41 1593.99C1011.2 1594.66 1009.91 1595.01 1008.6 1595ZM963.575 1567.56H998.67V31.8546L963.575 45.3334V1567.56Z" fill="#0093D7"/>
<path d="M1068.48 1595H1008.56C1007.26 1595 1005.97 1594.66 1004.76 1593.98C1003.56 1593.3 1002.46 1592.31 1001.54 1591.06C1000.62 1589.81 999.884 1588.32 999.386 1586.68C998.888 1585.05 998.633 1583.29 998.635 1581.52V14.05C998.619 11.7512 999.034 9.48461 999.841 7.46334C1000.65 5.44206 1001.82 3.73242 1003.25 2.49508C1004.66 1.28017 1006.27 0.557326 1007.94 0.390555C1009.61 0.223785 1011.29 0.618222 1012.82 1.53896L1072.78 39.0721C1074.53 40.2064 1076.02 41.974 1077.08 44.1811C1078.14 46.3881 1078.73 48.9492 1078.79 51.5831V1581.52C1078.79 1583.29 1078.54 1585.05 1078.04 1586.68C1077.54 1588.32 1076.81 1589.81 1075.89 1591.06C1074.96 1592.31 1073.87 1593.3 1072.66 1593.98C1071.46 1594.66 1070.16 1595 1068.86 1595H1068.48ZM1018.49 1567.56H1058.2V59.7684L1018.49 35.2243V1567.56Z" fill="#0093D7"/>
<path d="M44.3106 467.887C42.1227 467.878 40.0022 466.859 38.2983 464.995C37.0884 463.758 36.1038 462.159 35.4204 460.324C34.7369 458.489 34.3727 456.465 34.3559 454.408V384.624C34.2891 381.622 34.9953 378.683 36.353 376.312C37.7106 373.941 39.6348 372.287 41.7941 371.635L950.459 22.2352C953.293 20.7894 956.841 22.2352 959.323 24.6372C960.563 25.9421 961.561 27.622 962.238 29.543C962.915 31.4641 963.252 33.5732 963.222 35.7024V141.108C963.173 144.127 962.428 147.049 961.092 149.465C959.757 151.88 957.897 153.667 955.776 154.575L46.7929 467.397H44.3106V467.887ZM54.2396 394.733V436.604L943.364 130.031V53.0756L54.2396 394.733Z" fill="#0093D7"/>
<path d="M75.1538 507.822C72.5322 507.709 70.0236 506.347 68.0678 503.974L37.2244 464.028C35.9829 462.262 35.0737 460.116 34.5743 457.771C34.0748 455.427 33.9998 452.953 34.3557 450.561C34.8445 448.197 35.7931 446.055 37.1019 444.36C38.4107 442.666 40.0313 441.481 41.7938 440.929L950.811 127.629C952.273 127.163 953.792 127.137 955.262 127.552C956.733 127.967 958.118 128.813 959.323 130.031C960.524 131.275 961.5 132.876 962.176 134.711C962.852 136.546 963.21 138.566 963.222 140.618V188.272C963.172 191.291 962.428 194.214 961.092 196.629C959.756 199.044 957.897 200.831 955.775 201.739L77.636 507.344H75.1538V507.822ZM64.5205 461.183L78.3489 478.987L943.364 178.163V158.434L64.5205 461.183Z" fill="#0093D7"/>
<path d="M1611.63 456.81C1610.3 456.815 1608.98 456.491 1607.73 455.854L1064.62 158.434C1062.75 157.459 1061.14 155.743 1060 153.509C1058.86 151.275 1058.25 148.628 1058.23 145.911V51.5831C1058.23 46.7792 1060 42.9314 1062.84 40.0398C1064.25 38.8229 1065.87 38.0981 1067.54 37.9293C1069.21 37.7605 1070.88 38.153 1072.41 39.072L1615.53 352.384C1617.33 353.436 1618.85 355.184 1619.92 357.41C1620.99 359.635 1621.56 362.239 1621.54 364.895V443.343C1621.48 445.618 1621.03 447.843 1620.23 449.844C1619.43 451.846 1618.3 453.571 1616.93 454.886C1615.25 456.403 1613.28 457.24 1611.26 457.3L1611.63 456.81ZM1078.79 136.292L1601.7 422.647V373.559L1078.79 71.8013V136.292Z" fill="#0093D7"/>
<path d="M1657.69 1590.18H1611.6C1610.3 1590.19 1609.01 1589.84 1607.8 1589.17C1606.6 1588.49 1605.51 1587.5 1604.58 1586.25C1603.66 1585 1602.93 1583.51 1602.43 1581.87C1601.94 1580.24 1601.68 1578.49 1601.68 1576.72V364.406C1601.76 362.18 1602.18 360.001 1602.92 358.012C1603.66 356.023 1604.7 354.269 1605.98 352.863C1607.4 351.682 1608.99 350.94 1610.64 350.69C1612.3 350.44 1613.97 350.688 1615.55 351.417L1661.64 376.439C1663.5 377.41 1665.11 379.124 1666.25 381.356C1667.39 383.588 1668 386.235 1668.02 388.95V1576.23C1668.02 1578 1667.76 1579.75 1667.27 1581.39C1666.77 1583.03 1666.04 1584.51 1665.11 1585.77C1664.19 1587.02 1663.1 1588.01 1661.89 1588.69C1660.68 1589.36 1659.39 1589.71 1658.09 1589.71L1657.69 1590.18ZM1621.53 1563.24H1647.41V398.581L1621.53 384.589V1563.2V1563.24Z" fill="#0093D7"/>
<path d="M1611.63 1590.18H1569.09C1567.78 1590.19 1566.49 1589.84 1565.29 1589.17C1564.08 1588.49 1562.99 1587.5 1562.07 1586.25C1561.15 1585 1560.42 1583.51 1559.92 1581.87C1559.42 1580.24 1559.17 1578.49 1559.17 1576.72V463.55C1559.2 460.716 1559.85 457.96 1561.06 455.642C1562.26 453.325 1563.95 451.553 1565.9 450.561L1608.44 429.864C1609.97 429.099 1611.62 428.874 1613.23 429.211C1614.85 429.547 1616.37 430.434 1617.66 431.788C1619 432.989 1620.1 434.635 1620.84 436.571C1621.59 438.508 1621.96 440.67 1621.91 442.853V1576.72C1621.91 1578.49 1621.66 1580.24 1621.16 1581.87C1620.66 1583.51 1619.93 1585 1619.01 1586.25C1618.09 1587.5 1616.99 1588.49 1615.79 1589.17C1614.59 1589.84 1613.29 1590.19 1611.99 1590.18H1611.63ZM1578.99 1563.24H1601.32V462.547L1578.99 473.612V1563.2V1563.24Z" fill="#0093D7"/>
<path d="M1569.09 477.028C1569.09 477.028 1566.61 477.028 1565.54 476.061L1064.97 209.924C1063.1 208.953 1061.49 207.239 1060.36 205.007C1059.22 202.775 1058.6 200.128 1058.59 197.413V144.944C1058.65 142.668 1059.1 140.442 1059.9 138.439C1060.7 136.436 1061.82 134.708 1063.19 133.389C1064.62 132.214 1066.21 131.477 1067.87 131.229C1069.52 130.981 1071.2 131.229 1072.78 131.955L1615.9 429.386C1617.81 430.406 1619.45 432.198 1620.59 434.52C1621.73 436.843 1622.32 439.584 1622.28 442.375C1622.24 445.15 1621.58 447.84 1620.37 450.08C1619.16 452.319 1617.47 453.998 1615.54 454.886L1573 475.583C1571.85 476.107 1570.66 476.432 1569.46 476.55L1569.09 477.028ZM1078.79 188.272L1569.43 449.115L1583.62 442.375L1079.15 166.13V188.75L1078.79 188.272Z" fill="#0093D7"/>
<path d="M113.445 529.964C85.4356 529.964 69.8378 503.018 69.1335 502.05C65.5862 496.279 66.6512 487.616 70.9028 482.8C75.1544 477.985 81.5361 479.43 85.0834 485.202C89.0662 491.351 94.0677 496.128 99.6763 499.141C105.285 502.153 111.34 503.314 117.344 502.529C134.72 500.605 136.841 469.321 136.841 468.365C136.957 465.384 137.835 462.551 139.325 460.354C140.814 458.158 142.822 456.735 145.001 456.332C149.605 454.886 153.856 458.256 155.986 463.55C156.699 465.474 165.202 485.202 181.513 479.873C197.832 475.07 198.88 449.08 198.88 447.634C198.88 441.862 201.723 437.047 205.975 435.123C207.942 434.192 210.08 434.159 212.063 435.028C214.045 435.897 215.765 437.621 216.96 439.938C217.321 440.895 229.371 460.623 253.129 451.004C274.395 442.842 274.043 425.492 274.043 423.568C273.837 420.288 274.514 417.019 275.948 414.364C277.382 411.71 279.476 409.852 281.842 409.133C286.446 407.687 291.771 411.057 293.54 417.295C294.606 420.665 304.526 450.013 326.505 441.839C350.967 433.176 353.132 395.631 353.132 394.185C353.132 388.413 356.679 383.12 360.93 381.674C363.015 380.975 365.211 381.206 367.191 382.334C369.171 383.462 370.831 385.426 371.924 387.935C371.924 387.935 394.969 437.991 419.07 430.284C442.475 423.067 444.597 363.391 444.597 362.424C444.624 359.072 445.594 355.861 447.307 353.447C449.019 351.033 451.347 349.598 453.813 349.434C458.425 349.434 463.39 353.282 464.455 360.022C465.159 364.347 474.023 404.329 507.348 397.555C542.091 390.827 539.987 333.076 539.987 330.662C539.987 323.923 542.821 318.151 547.434 316.67L563.032 311.377C565.378 310.611 567.849 311.014 569.996 312.512C572.142 314.01 573.822 316.503 574.73 319.539C575.443 321.462 591.393 371.518 627.201 361.409C662.648 351.3 657.692 293.549 657.331 291.147C657.022 287.922 657.565 284.653 658.864 281.92C660.163 279.188 662.134 277.169 664.426 276.222C666.734 275.231 669.229 275.417 671.443 276.746C673.657 278.074 675.438 280.455 676.45 283.44C677.515 285.853 698.782 346.007 739.202 334.452C779.262 322.908 782.096 246.385 782.096 245.417C782.096 239.167 785.643 233.874 790.256 232.428C795.212 231.46 799.472 234.352 801.241 240.123C801.241 241.091 826.416 317.615 860.446 305.104C893.771 293.071 892.354 208.327 892.354 207.884C892.292 204.398 893.21 201.011 894.922 198.412C896.634 195.812 899.012 194.196 901.57 193.892C907.239 193.892 911.877 198.707 912.556 205.447C912.556 207.849 918.937 265.122 951.559 265.122H953.328C958.645 265.122 963.257 270.952 963.257 278.111C963.257 285.818 958.962 292.103 953.68 292.103C932.414 294.027 917.881 279.592 908.304 261.787C902.987 291.147 891.289 322.419 865.762 331.572C834.919 342.637 811.522 311.353 797.342 284.407C790.96 313.755 776.427 351.3 743.454 360.919C714.388 369.583 690.983 350.332 675.385 328.202C670.782 353.702 658.37 380.17 631.074 387.877C594.201 398.464 570.452 365.723 559.785 340.235C558.72 371.029 547.374 417.19 509.796 424.454C486.4 429.27 469.737 417.715 459.456 402.79C454.491 425.41 444.21 450.444 423.296 456.694C399.538 463.911 379.689 442.702 367.278 424.454C361.961 441.291 351.328 460.541 331.118 467.771C311.62 474.498 296.761 464.879 286.807 451.878C281.49 461.987 272.626 471.129 258.085 476.912C238.94 484.607 224.407 479.314 214.487 472.096C209.874 487.021 201.01 501.934 185.06 506.749C170.88 510.597 159.534 505.304 151.383 497.118C146.057 512.999 135.776 528.402 118.744 530.326H113.075L113.445 529.964Z" fill="#0093D7"/>
<path d="M762.565 1595H722.154C720.849 1595 719.556 1594.66 718.35 1593.98C717.144 1593.31 716.048 1592.31 715.125 1591.06C714.203 1589.81 713.471 1588.32 712.974 1586.68C712.476 1585.05 712.221 1583.29 712.225 1581.52V679.642C712.222 677.871 712.478 676.117 712.976 674.48C713.474 672.844 714.205 671.356 715.128 670.104C716.05 668.852 717.146 667.859 718.351 667.183C719.557 666.507 720.849 666.16 722.154 666.163C724.768 666.24 727.26 667.686 729.108 670.197C730.957 672.709 732.019 676.092 732.074 679.642V1567.56H752.284V695.523C752.282 693.752 752.537 691.998 753.035 690.361C753.533 688.724 754.265 687.237 755.187 685.985C756.11 684.733 757.205 683.74 758.411 683.064C759.616 682.387 760.909 682.041 762.213 682.044C764.832 682.112 767.33 683.554 769.184 686.066C771.038 688.579 772.104 691.967 772.159 695.523V1581.04C772.163 1582.81 771.908 1584.57 771.411 1586.2C770.914 1587.84 770.184 1589.33 769.262 1590.58C768.34 1591.83 767.245 1592.83 766.04 1593.5C764.835 1594.18 763.543 1594.52 762.239 1594.52L762.565 1595Z" fill="#0093D7"/>
<path d="M798.019 1595H762.564C761.259 1595 759.967 1594.66 758.761 1593.98C757.556 1593.3 756.46 1592.31 755.538 1591.06C754.615 1589.81 753.884 1588.32 753.386 1586.68C752.888 1585.05 752.633 1583.29 752.635 1581.52C752.692 1577.97 753.756 1574.59 755.606 1572.08C757.457 1569.57 759.949 1568.13 762.564 1568.05H788.09V684.935C788.087 683.164 788.342 681.409 788.839 679.772C789.337 678.134 790.068 676.647 790.991 675.394C791.914 674.142 793.01 673.149 794.216 672.473C795.422 671.797 796.715 671.452 798.019 671.457C800.634 671.534 803.126 672.979 804.974 675.491C806.823 678.002 807.885 681.386 807.94 684.935V1581.58C807.938 1583.34 807.679 1585.09 807.179 1586.72C806.68 1588.35 805.948 1589.83 805.027 1591.08C804.106 1592.32 803.013 1593.31 801.811 1593.99C800.608 1594.66 799.32 1595 798.019 1595Z" fill="#0093D7"/>
<path d="M696.627 725.36C692.464 725.454 688.305 724.97 684.216 723.915L111.659 529.486C106.342 527.562 102.795 520.345 104.212 513.162C105.629 505.98 110.946 501.141 116.237 503.065L688.115 696.969C694.127 698.403 706.556 698.403 710.447 693.109C711.151 692.153 712.568 689.74 711.864 682.044C710.799 674.827 714.698 667.609 720.015 666.163C722.647 665.525 725.358 666.333 727.552 668.408C729.746 670.483 731.242 673.656 731.713 677.229C734.195 695.523 729.231 706.588 724.627 712.849C716.828 723.437 705.121 725.36 696.283 725.36H696.627Z" fill="#0093D7"/>
<path d="M773.877 709.48H769.625L172.641 507.344C167.324 505.42 163.777 498.203 165.194 491.02C166.611 483.838 171.576 478.987 177.219 480.911L772.846 682.522C775.328 682.522 786.314 681.566 790.574 675.783C791.278 674.826 793.056 672.425 791.991 665.195C791.621 661.625 792.308 658.001 793.901 655.116C795.495 652.231 797.866 650.321 800.494 649.804C805.82 648.359 811.136 654.13 811.841 661.348C813.619 678.196 809.006 688.783 805.107 694.555C795.891 707.556 780.997 709.48 773.877 709.48Z" fill="#0093D7"/>
<path d="M832.05 685.414C817.517 685.414 802.976 678.196 799.076 676.272L235.04 479.908C232.518 478.874 230.394 476.544 229.119 473.415C227.844 470.286 227.519 466.605 228.213 463.156C228.907 459.707 230.565 456.761 232.835 454.947C235.104 453.132 237.806 452.592 240.365 453.44L805.458 650.236C816.804 656.066 834.884 661.301 841.979 655.529C842.683 655.051 844.461 653.127 844.813 647.367C845.165 639.672 849.778 633.376 855.798 634.856C861.476 635.334 865.375 642.074 865.023 649.781C863.958 666.105 857.576 674.267 852.612 678.651C846.6 683.466 839.496 685.39 832.402 685.39L832.05 685.414Z" fill="#0093D7"/>
<path d="M895.842 670.489C885.787 670.465 875.776 668.686 866.055 665.195L314.103 469.811C311.532 468.822 309.349 466.503 308.022 463.353C306.696 460.203 306.332 456.473 307.009 452.963C307.351 451.218 307.944 449.584 308.755 448.154C309.566 446.723 310.579 445.526 311.733 444.631C312.888 443.736 314.162 443.162 315.481 442.941C316.801 442.719 318.14 442.856 319.42 443.343L871.758 639.229C871.758 639.229 913.948 654.62 925.646 626.706C928.48 619.979 934.51 618.043 939.466 621.902C944.422 625.762 945.848 633.935 943.013 640.663C932.38 665.207 912.522 670.979 895.868 670.979L895.842 670.489Z" fill="#0093D7"/>
<path d="M950.811 651.238H948.328L401.668 455.854C399.096 454.864 396.913 452.546 395.587 449.396C394.26 446.246 393.896 442.516 394.573 439.006C394.915 437.261 395.509 435.627 396.32 434.197C397.131 432.766 398.143 431.569 399.298 430.674C400.452 429.779 401.726 429.205 403.046 428.984C404.365 428.762 405.704 428.899 406.984 429.386L953.645 624.771C956.218 625.757 958.402 628.075 959.729 631.226C961.056 634.377 961.419 638.109 960.74 641.619C959.675 647.88 955.423 651.728 950.811 651.728V651.238Z" fill="#0093D7"/>
<path d="M953.294 588.194H950.811L489.578 424.093C487.006 423.103 484.824 420.784 483.499 417.634C482.174 414.483 481.812 410.753 482.492 407.244C482.833 405.5 483.425 403.866 484.235 402.435C485.046 401.005 486.057 399.807 487.21 398.911C488.364 398.015 489.637 397.439 490.956 397.216C492.275 396.993 493.614 397.128 494.894 397.613L956.128 561.726C958.699 562.715 960.883 565.034 962.209 568.184C963.535 571.334 963.899 575.064 963.223 578.574C962.157 584.824 957.906 588.684 953.294 588.684V588.194Z" fill="#0093D7"/>
<path d="M950.812 534.803C949.739 534.813 948.67 534.653 947.625 534.325L603.383 386.548C600.851 385.362 598.746 382.913 597.496 379.697C596.245 376.481 595.942 372.74 596.649 369.233C598.427 362.015 603.744 358.168 609.413 360.092L953.646 507.822C956.182 509.006 958.29 511.456 959.543 514.674C960.795 517.893 961.098 521.638 960.389 525.149C959.739 527.917 958.465 530.339 956.746 532.071C955.028 533.804 952.952 534.759 950.812 534.803Z" fill="#0093D7"/>
<path d="M950.812 460.658C949.74 460.668 948.67 460.508 947.625 460.18L714.707 360.08C713.401 359.574 712.183 358.719 711.123 357.565C710.064 356.412 709.185 354.983 708.538 353.362C707.891 351.741 707.488 349.962 707.354 348.127C707.22 346.293 707.358 344.44 707.758 342.679C708.158 340.917 708.813 339.282 709.685 337.868C710.557 336.455 711.627 335.292 712.835 334.447C714.042 333.603 715.361 333.094 716.715 332.951C718.069 332.807 719.43 333.032 720.719 333.612L953.646 433.712C956.182 434.896 958.29 437.346 959.543 440.564C960.795 443.783 961.098 447.528 960.389 451.039C959.733 453.8 958.457 456.213 956.739 457.938C955.022 459.664 952.949 460.615 950.812 460.658Z" fill="#0093D7"/>
<path d="M953.294 379.808C952.222 379.818 951.152 379.658 950.108 379.33L842.684 331.198C841.424 330.636 840.258 329.74 839.254 328.563C838.25 327.386 837.428 325.951 836.834 324.34C836.241 322.729 835.889 320.975 835.797 319.178C835.706 317.381 835.878 315.578 836.302 313.872C837.172 310.448 838.995 307.624 841.382 306.007C843.769 304.389 846.527 304.107 849.066 305.22L956.489 353.341C957.75 353.903 958.915 354.799 959.919 355.976C960.923 357.153 961.746 358.588 962.339 360.199C962.932 361.81 963.285 363.564 963.376 365.361C963.467 367.158 963.296 368.961 962.871 370.667C962.215 373.427 960.938 375.839 959.221 377.565C957.503 379.29 955.431 380.242 953.294 380.287V379.808Z" fill="#0093D7"/>
<path d="M1488.26 527.562C1479.6 527.55 1471 525.765 1462.74 522.269L1065.32 344.199C1064.04 343.656 1062.85 342.773 1061.83 341.599C1060.8 340.426 1059.96 338.986 1059.35 337.365C1058.73 335.744 1058.37 333.974 1058.27 332.158C1058.16 330.342 1058.33 328.517 1058.75 326.789C1059.18 325.062 1059.85 323.466 1060.74 322.096C1061.62 320.726 1062.7 319.609 1063.9 318.81C1065.11 318.011 1066.42 317.546 1067.76 317.443C1069.1 317.34 1070.44 317.601 1071.7 318.209L1469.12 496.326C1471.24 497.282 1520.52 518.479 1541.79 448.683C1542.26 446.991 1542.98 445.448 1543.9 444.153C1544.83 442.858 1545.95 441.838 1547.18 441.159C1548.41 440.479 1549.74 440.154 1551.07 440.205C1552.4 440.256 1553.7 440.682 1554.91 441.454C1557.32 442.906 1559.23 445.577 1560.22 448.902C1561.21 452.227 1561.21 455.945 1560.22 459.271C1543.56 512.684 1512.72 527.609 1487.9 527.609L1488.26 527.562Z" fill="#0093D7"/>
<path d="M1358.15 563.172C1347.06 563.017 1336.06 560.583 1325.51 555.954L1065.32 435.694C1064.04 435.151 1062.85 434.267 1061.83 433.094C1060.8 431.921 1059.96 430.481 1059.35 428.86C1058.73 427.239 1058.37 425.469 1058.27 423.653C1058.16 421.837 1058.33 420.012 1058.75 418.284C1059.18 416.556 1059.85 414.961 1060.74 413.591C1061.62 412.221 1062.7 411.104 1063.9 410.305C1065.11 409.506 1066.42 409.041 1067.76 408.938C1069.1 408.835 1070.44 409.096 1071.7 409.704L1331.95 530.023C1340.46 534.36 1365.99 542.056 1380.52 528.099C1389.03 519.937 1393.29 505 1393.29 482.858C1393.28 481.088 1393.54 479.335 1394.04 477.699C1394.53 476.063 1395.26 474.577 1396.19 473.325C1397.11 472.073 1398.2 471.08 1399.41 470.403C1400.61 469.726 1401.9 469.378 1403.21 469.38C1405.82 469.454 1408.32 470.898 1410.17 473.41C1412.02 475.922 1413.08 479.307 1413.14 482.858C1413.14 514.142 1406.05 536.762 1391.87 550.241C1381.56 560.338 1369.18 563.23 1357.83 563.23L1358.15 563.172Z" fill="#0093D7"/>
<path d="M1250.73 596.379C1233.72 596.379 1218.1 588.683 1215.29 587.238L1064.98 514.083C1059.66 511.682 1057.18 503.496 1058.97 496.757C1060.74 489.539 1066.41 486.17 1071.73 488.595L1222.04 561.749C1230.19 566.087 1256.39 575.228 1267.77 562.717C1273.78 556.455 1275.93 543.466 1274.15 524.239C1273.97 522.435 1274.06 520.6 1274.41 518.842C1274.76 517.085 1275.37 515.44 1276.19 514.005C1277.02 512.57 1278.05 511.374 1279.22 510.486C1280.39 509.599 1281.68 509.038 1283.01 508.837C1287.98 507.869 1293.64 513.162 1294.36 520.87C1297.19 550.229 1292.58 571.403 1280.53 584.393C1272.03 593.534 1261.03 596.425 1250.4 596.425L1250.73 596.379Z" fill="#0093D7"/>
<path d="M1160.69 618.999C1157.72 618.913 1154.76 618.59 1151.82 618.031L1065.67 584.346C1063.13 583.324 1061 580.975 1059.74 577.815C1058.47 574.655 1058.19 570.944 1058.94 567.497C1059.69 564.051 1061.42 561.152 1063.75 559.437C1066.08 557.723 1068.81 557.334 1071.35 558.356L1156.43 592.053C1158.92 592.053 1169.55 593.487 1175.93 586.223C1179.83 581.419 1181.94 573.234 1181.6 562.169C1181.56 560.359 1181.78 558.556 1182.26 556.866C1182.74 555.176 1183.46 553.633 1184.39 552.329C1185.32 551.025 1186.42 549.986 1187.65 549.273C1188.88 548.56 1190.2 548.187 1191.53 548.177C1192.83 548.174 1194.12 548.52 1195.33 549.196C1196.53 549.871 1197.63 550.863 1198.55 552.114C1199.47 553.365 1200.21 554.851 1200.7 556.486C1201.2 558.121 1201.46 559.874 1201.46 561.644C1201.46 581.862 1197.56 596.775 1188.34 607.363C1179.13 617.95 1168.12 619.92 1160.33 619.92L1160.69 618.999Z" fill="#0093D7"/>
<path d="M1081.63 647.391C1072.77 647.391 1065.67 643.543 1064.62 642.575C1063.41 641.88 1062.31 640.868 1061.39 639.597C1060.47 638.326 1059.74 636.821 1059.24 635.168C1058.75 633.515 1058.5 631.745 1058.51 629.961C1058.52 628.178 1058.79 626.414 1059.3 624.771C1059.81 623.128 1060.56 621.638 1061.49 620.386C1062.43 619.134 1063.54 618.145 1064.76 617.475C1065.98 616.804 1067.28 616.466 1068.59 616.48C1069.91 616.493 1071.21 616.858 1072.42 617.553C1072.42 617.553 1082.34 622.847 1088.37 617.553C1093.33 613.227 1096.17 602.151 1096.17 585.792C1096.17 578.096 1101.13 572.803 1106.47 572.313C1112.14 572.313 1116.4 579.052 1116.4 586.305C1116.04 612.773 1110.02 631.067 1099.03 640.208C1093.74 644.806 1087.57 647.153 1081.3 646.948L1081.63 647.391Z" fill="#0093D7"/>
</g>
<defs>
<clipPath id="clip0_2013_50">
<rect width="1668" height="1595" fill="white"/>
</clipPath>
</defs>
</svg>
