<?xml version="1.0" encoding="UTF-8"?>
<svg id="Layer_2" data-name="Layer 2" xmlns="http://www.w3.org/2000/svg" viewBox="0 0 47.04 33.14">
  <defs>
    <style>
      .cls-1 {
        fill: #0093d7;
      }
    </style>
  </defs>
  <g id="Layer_1-2" data-name="Layer 1">
    <g>
      <path class="cls-1" d="M1.25,32.88H.28c-.16,0-.28-.13-.28-.28V8.32c0-.12.08-.23.19-.27l.97-.33c.09-.03.18-.02.26.04.07.05.12.14.12.23v24.61c0,.16-.13.28-.28.28ZM.57,32.31h.4V8.38l-.4.14v23.79Z"/>
      <path class="cls-1" d="M2.66,32.88h-1.41c-.16,0-.28-.13-.28-.28V9.43c0-.11.07-.22.17-.26.11-.05.23-.02.31.06l1.41,1.34c.06.05.09.13.09.21v21.82c0,.16-.13.28-.28.28ZM1.53,32.31h.84V10.9l-.84-.8v22.21Z"/>
      <path class="cls-1" d="M28.45,33.14h-1.56c-.16,0-.28-.13-.28-.28V.73c0-.13.08-.24.21-.27L28.37.01c.09-.03.18,0,.25.05.07.05.11.14.11.23v32.57c0,.16-.13.28-.28.28ZM27.18,32.57h.99V.66l-.99.28v31.62Z"/>
      <path class="cls-1" d="M30.14,33.14h-1.69c-.16,0-.28-.13-.28-.28V.29c0-.1.05-.19.13-.24.08-.05.18-.06.27-.02l1.69.78c.1.05.17.15.17.26v31.79c0,.16-.13.28-.28.28ZM28.73,32.57h1.12V1.24l-1.12-.51v31.84Z"/>
      <path class="cls-1" d="M1.25,9.72c-.06,0-.12-.02-.17-.06-.07-.05-.11-.14-.11-.22v-1.45c0-.13.08-.24.21-.27L26.81.46c.08-.03.18,0,.25.05s.11.14.11.23v2.19c0,.13-.09.24-.21.28L1.32,9.71s-.05,0-.07,0ZM1.53,8.2v.87L26.61,2.7v-1.6L1.53,8.2Z"/>
      <path class="cls-1" d="M2.12,10.55c-.07,0-.14-.03-.2-.08l-.87-.83c-.07-.07-.1-.18-.08-.28.03-.1.11-.18.21-.2L26.82,2.65c.08-.02.18,0,.24.05.07.05.11.14.11.22v.99c0,.13-.09.24-.21.28L2.19,10.54s-.05,0-.07,0ZM1.82,9.58l.39.37L26.61,3.7v-.41L1.82,9.58ZM26.89,3.92h0,0Z"/>
      <path class="cls-1" d="M45.46,9.49s-.07,0-.11-.02l-15.32-6.18c-.11-.04-.18-.15-.18-.26v-1.96c0-.1.05-.18.13-.24.08-.05.18-.06.27-.02l15.32,6.51c.11.05.17.15.17.26v1.63c0,.09-.05.18-.13.24-.05.03-.1.05-.16.05ZM30.43,2.83l14.75,5.95v-1.02L30.43,1.49v1.34Z"/>
      <path class="cls-1" d="M46.76,33.04h-1.3c-.16,0-.28-.13-.28-.28V7.57c0-.09.05-.18.12-.24.08-.05.18-.06.27-.03l1.3.52c.11.04.18.15.18.26v24.67c0,.16-.13.28-.28.28ZM45.74,32.48h.73V8.28l-.73-.29v24.48Z"/>
      <path class="cls-1" d="M45.46,33.04h-1.2c-.16,0-.28-.13-.28-.28V9.63c0-.12.08-.23.19-.27l1.2-.43c.09-.03.18-.02.26.04.08.05.12.14.12.23v23.56c0,.16-.13.28-.28.28ZM44.54,32.48h.63V9.61l-.63.23v22.65Z"/>
      <path class="cls-1" d="M44.26,9.91s-.07,0-.1-.02l-14.12-5.53c-.11-.04-.18-.15-.18-.26v-1.09c0-.09.05-.18.13-.24.08-.05.18-.06.27-.03l15.32,6.18c.11.04.18.15.18.27s-.08.22-.19.26l-1.2.43s-.06.02-.1.02ZM30.43,3.91l13.84,5.42.4-.14-14.23-5.74v.47Z"/>
      <path class="cls-1" d="M3.2,11.01c-.79,0-1.23-.56-1.25-.58-.1-.12-.07-.3.05-.4.12-.1.3-.07.4.05.02.02.33.41.91.36.49-.04.55-.69.55-.71.01-.13.1-.23.23-.25.13-.03.25.04.31.15.02.04.26.45.72.34.46-.1.49-.64.49-.67,0-.12.08-.22.2-.26.11-.04.24,0,.31.1.01.02.35.43,1.02.23.6-.17.59-.53.59-.57-.01-.14.08-.27.22-.3.13-.03.28.04.33.17.03.07.31.68.93.51.69-.18.75-.96.75-.99,0-.12.1-.23.22-.26.12-.03.24.02.31.13,0,0,.65,1.04,1.33.88.66-.15.72-1.39.72-1.41,0-.14.11-.26.26-.27.13,0,.27.08.3.22.02.09.27.92,1.21.78.98-.14.92-1.34.92-1.39,0-.14.08-.26.21-.29l.44-.11c.14-.03.28.04.33.17.02.04.47,1.08,1.48.87,1-.21.86-1.41.85-1.46-.02-.14.07-.27.2-.31.14-.04.28.02.34.15.03.05.63,1.3,1.77,1.06,1.13-.24,1.21-1.83,1.21-1.85,0-.13.1-.24.23-.27.14-.02.26.04.31.16,0,.02.71,1.61,1.67,1.35.94-.25.9-2.01.9-2.02,0-.15.11-.28.26-.29.16,0,.29.1.31.24,0,.05.18,1.24,1.1,1.24.02,0,.04,0,.05,0,.15,0,.28.12.28.27,0,.16-.12.29-.27.29-.6.04-1.01-.26-1.28-.63-.15.61-.48,1.26-1.2,1.45-.87.23-1.53-.42-1.93-.98-.18.61-.59,1.39-1.52,1.59-.82.18-1.48-.22-1.92-.68-.13.53-.48,1.08-1.25,1.24-1.04.22-1.71-.46-2.01-.99h0c-.03.64-.35,1.6-1.41,1.75-.66.1-1.13-.14-1.42-.45-.14.47-.43.99-1.02,1.12-.67.15-1.23-.29-1.58-.67-.15.35-.45.75-1.02.9-.55.14-.97-.06-1.25-.33-.15.21-.4.4-.81.52-.54.16-.95.05-1.23-.1-.13.31-.38.62-.83.72-.4.08-.72-.03-.95-.2-.15.33-.44.65-.92.69-.05,0-.11,0-.16,0Z"/>
      <path class="cls-1" d="M21.51,33.14h-1.14c-.16,0-.28-.13-.28-.28V14.12c0-.16.13-.28.28-.28s.28.13.28.28v18.45h.57V14.45c0-.16.13-.28.28-.28s.28.13.28.28v18.4c0,.16-.13.28-.28.28Z"/>
      <path class="cls-1" d="M22.51,33.14h-1c-.16,0-.28-.13-.28-.28s.13-.28.28-.28h.72V14.23c0-.16.13-.28.28-.28s.28.13.28.28v18.63c0,.16-.13.28-.28.28Z"/>
      <path class="cls-1" d="M19.65,15.07c-.18,0-.31-.02-.35-.03L3.15,11c-.15-.04-.25-.19-.21-.34.04-.15.19-.25.34-.21l16.13,4.03c.17.03.52.03.63-.08.02-.02.06-.07.04-.23-.03-.15.08-.3.23-.33.16-.03.3.08.33.23.07.38-.07.61-.2.74-.22.22-.55.26-.8.26Z"/>
      <path class="cls-1" d="M21.83,14.74c-.06,0-.1,0-.12,0L4.87,10.54c-.15-.04-.25-.19-.21-.34.04-.15.18-.25.34-.21l16.8,4.19c.07,0,.38-.02.5-.14.02-.02.07-.07.04-.22-.02-.16.09-.3.24-.32.15-.03.3.09.32.24.05.35-.08.57-.19.69-.26.27-.68.31-.88.31Z"/>
      <path class="cls-1" d="M23.47,14.24c-.41,0-.82-.15-.93-.19l-15.91-4.08c-.15-.04-.24-.19-.2-.35.04-.15.19-.24.35-.2l15.94,4.09c.32.12.83.23,1.03.11.02-.01.07-.05.08-.17.01-.16.14-.29.31-.26.16.01.27.15.26.31-.03.34-.21.51-.35.6-.17.1-.37.14-.57.14Z"/>
      <path class="cls-1" d="M25.27,13.93c-.44,0-.81-.1-.84-.11l-15.57-4.06c-.15-.04-.24-.2-.2-.35.04-.15.19-.24.35-.2l15.58,4.07s1.19.32,1.52-.26c.08-.14.25-.18.39-.1.14.08.18.25.1.39-.3.51-.86.63-1.33.63Z"/>
      <path class="cls-1" d="M26.82,13.53s-.05,0-.07,0l-15.42-4.06c-.15-.04-.24-.2-.2-.35.04-.15.19-.24.35-.2l15.42,4.06c.15.04.24.2.2.35-.03.13-.15.21-.28.21Z"/>
      <path class="cls-1" d="M26.89,12.22s-.05,0-.07,0l-13.01-3.41c-.15-.04-.24-.2-.2-.35.04-.15.19-.24.35-.2l13.01,3.41c.15.04.24.2.2.35-.03.13-.15.21-.28.21Z"/>
      <path class="cls-1" d="M26.82,11.11s-.06,0-.09-.01l-9.71-3.07c-.15-.05-.23-.21-.19-.36.05-.15.2-.23.36-.19l9.71,3.07c.15.05.23.21.19.36-.04.12-.15.2-.27.2Z"/>
      <path class="cls-1" d="M26.82,9.57s-.06,0-.09-.01l-6.57-2.08c-.15-.05-.23-.21-.19-.36.05-.15.21-.23.36-.19l6.57,2.08c.15.05.23.21.19.36-.04.12-.15.2-.27.2Z"/>
      <path class="cls-1" d="M26.89,7.89s-.06,0-.09-.01l-3.03-1c-.15-.05-.23-.21-.18-.36.05-.15.22-.23.36-.18l3.03,1c.15.05.23.21.18.36-.04.12-.15.2-.27.2Z"/>
      <path class="cls-1" d="M41.98,10.96c-.28,0-.53-.05-.72-.11l-11.21-3.7c-.15-.05-.23-.21-.18-.36.05-.15.21-.23.36-.18l11.21,3.7c.06.02,1.45.46,2.05-.99.06-.15.23-.22.37-.15.14.06.21.23.15.37-.47,1.11-1.34,1.42-2.04,1.42Z"/>
      <path class="cls-1" d="M38.31,11.7c-.48,0-.89-.14-.92-.15l-7.34-2.5c-.15-.05-.23-.21-.18-.36.05-.15.21-.23.36-.18l7.34,2.5c.24.09.96.25,1.37-.04.24-.17.36-.48.36-.94,0-.16.13-.28.28-.28s.28.13.28.28c0,.65-.2,1.12-.6,1.4-.29.21-.64.27-.96.27Z"/>
      <path class="cls-1" d="M35.28,12.39c-.48,0-.92-.16-1-.19l-4.24-1.52c-.15-.05-.22-.22-.17-.36.05-.15.21-.22.36-.17l4.24,1.52c.23.09.97.28,1.29.02.17-.13.23-.4.18-.8-.02-.16.09-.3.25-.32.14-.02.3.09.32.25.08.61-.05,1.05-.39,1.32-.24.19-.55.25-.85.25Z"/>
      <path class="cls-1" d="M32.74,12.86c-.13,0-.23-.02-.25-.02l-2.43-.7c-.15-.04-.24-.2-.19-.35.04-.15.2-.24.35-.19l2.4.7c.07,0,.37.03.55-.12.11-.1.17-.27.16-.5,0-.16.12-.29.28-.29h0c.15,0,.28.12.28.28,0,.42-.11.73-.37.95-.26.22-.57.26-.79.26Z"/>
      <path class="cls-1" d="M30.51,13.45c-.25,0-.45-.08-.48-.1-.14-.06-.21-.23-.15-.37.06-.14.23-.21.37-.15,0,0,.28.11.45,0,.14-.09.22-.32.22-.66,0-.16.14-.27.29-.28.16,0,.28.14.28.29-.01.55-.18.93-.49,1.12-.17.11-.34.14-.5.14Z"/>
    </g>
  </g>
</svg>