<svg width="2938" height="2938" viewBox="0 0 2938 2938" fill="none" xmlns="http://www.w3.org/2000/svg">
<circle cx="1469" cy="1469" r="1469" fill="#272B31" fill-opacity="0.101961"/>
<g clip-path="url(#clip0_2013_81)">
<path d="M549.59 2142.21H509.59C508.07 2142.22 506.564 2141.92 505.158 2141.35C503.753 2140.77 502.475 2139.92 501.398 2138.85C500.321 2137.78 499.466 2136.5 498.883 2135.1C498.3 2133.69 498 2132.19 498 2130.67V1128.49C498.033 1126.06 498.799 1123.7 500.198 1121.71C501.597 1119.72 503.563 1118.2 505.84 1117.35L545.84 1103.73C547.622 1103.07 549.541 1102.88 551.418 1103.17C553.295 1103.46 555.068 1104.22 556.57 1105.38C558.077 1106.47 559.313 1107.89 560.18 1109.54C561.047 1111.19 561.523 1113.01 561.57 1114.87V2130.67C561.571 2132.19 561.273 2133.69 560.691 2135.09C560.11 2136.5 559.257 2137.77 558.182 2138.84C557.107 2139.92 555.831 2140.77 554.427 2141.34C553.023 2141.92 551.518 2142.22 550 2142.21H549.59ZM521.53 2118.67H538V1130.97L521.49 1136.75L521.53 2118.67Z" fill="#0093D7"/>
<path d="M607.79 2142.21H549.59C548.07 2142.22 546.564 2141.92 545.158 2141.35C543.753 2140.77 542.475 2139.92 541.398 2138.85C540.321 2137.78 539.466 2136.5 538.883 2135.1C538.3 2133.69 538 2132.19 538 2130.67V1174.31C538.014 1172.04 538.681 1169.82 539.922 1167.91C541.163 1166.01 542.926 1164.5 545 1163.57C547.129 1162.62 549.501 1162.34 551.792 1162.79C554.083 1163.23 556.181 1164.37 557.8 1166.05L616 1221.36C617.208 1222.45 618.166 1223.79 618.806 1225.29C619.447 1226.78 619.755 1228.4 619.71 1230.03V2130.67C619.714 2132.19 619.418 2133.69 618.838 2135.1C618.259 2136.5 617.407 2137.78 616.333 2138.85C615.259 2139.93 613.983 2140.78 612.579 2141.36C611.174 2141.94 609.669 2142.23 608.15 2142.23L607.79 2142.21ZM561.15 2118.67H595.82V1234.98L561.15 1201.98V2118.67Z" fill="#0093D7"/>
<path d="M1672.28 2152.94H1607.89C1606.37 2152.94 1604.87 2152.65 1603.46 2152.07C1602.06 2151.49 1600.78 2150.63 1599.71 2149.56C1598.64 2148.49 1597.79 2147.21 1597.21 2145.81C1596.63 2144.4 1596.33 2142.9 1596.33 2141.38V815.21C1596.26 812.635 1597.08 810.115 1598.66 808.082C1600.25 806.05 1602.49 804.631 1605 804.07L1669 785.49C1672.71 784.25 1676.43 785.49 1679.32 787.56C1680.76 788.679 1681.93 790.12 1682.71 791.768C1683.5 793.415 1683.9 795.224 1683.86 797.05V2141.38C1683.86 2142.9 1683.57 2144.41 1682.98 2145.81C1682.4 2147.22 1681.55 2148.49 1680.47 2149.57C1679.4 2150.64 1678.12 2151.49 1676.71 2152.07C1675.31 2152.65 1673.8 2152.95 1672.28 2152.94ZM1619.86 2129.41H1660.72V812.32L1619.86 823.88V2129.41Z" fill="#0093D7"/>
<path d="M1742 2152.94H1672.24C1670.72 2152.94 1669.22 2152.65 1667.81 2152.07C1666.41 2151.49 1665.13 2150.63 1664.06 2149.56C1662.99 2148.49 1662.13 2147.21 1661.55 2145.81C1660.97 2144.4 1660.68 2142.9 1660.68 2141.38V797.05C1660.66 795.079 1661.15 793.135 1662.08 791.401C1663.02 789.668 1664.39 788.201 1666.05 787.14C1667.7 786.098 1669.57 785.478 1671.52 785.335C1673.46 785.192 1675.41 785.53 1677.19 786.32L1747 818.51C1749.04 819.483 1750.77 820.999 1752.01 822.892C1753.24 824.785 1753.93 826.981 1754 829.24V2141.38C1754 2142.9 1753.71 2144.4 1753.13 2145.81C1752.55 2147.21 1751.69 2148.49 1750.62 2149.56C1749.55 2150.63 1748.27 2151.49 1746.87 2152.07C1745.46 2152.65 1743.96 2152.94 1742.44 2152.94H1742ZM1683.8 2129.41H1730.03V836.26L1683.8 815.21V2129.41Z" fill="#0093D7"/>
<path d="M549.589 1186.28C547.042 1186.27 544.573 1185.4 542.589 1183.8C541.181 1182.74 540.034 1181.37 539.239 1179.79C538.443 1178.22 538.019 1176.48 537.999 1174.72V1114.87C537.921 1112.3 538.744 1109.77 540.324 1107.74C541.905 1105.71 544.145 1104.29 546.659 1103.73L1604.59 804.07C1607.89 802.83 1612.02 804.07 1614.91 806.13C1616.35 807.249 1617.51 808.69 1618.3 810.338C1619.09 811.985 1619.48 813.794 1619.45 815.62V906.02C1619.39 908.61 1618.52 911.116 1616.97 913.188C1615.41 915.259 1613.25 916.792 1610.78 917.57L552.479 1185.86H549.589V1186.28ZM561.149 1123.54V1159.45L1596.33 896.52V830.52L561.149 1123.54Z" fill="#0093D7"/>
<path d="M585.499 1220.53C582.447 1220.43 579.526 1219.26 577.249 1217.23L541.339 1182.97C539.894 1181.46 538.835 1179.62 538.254 1177.6C537.672 1175.59 537.585 1173.47 537.999 1171.42C538.569 1169.39 539.673 1167.56 541.197 1166.1C542.72 1164.65 544.607 1163.63 546.659 1163.16L1605 894.46C1606.7 894.061 1608.47 894.038 1610.18 894.394C1611.89 894.75 1613.51 895.475 1614.91 896.52C1616.31 897.587 1617.44 898.96 1618.23 900.534C1619.02 902.108 1619.43 903.841 1619.45 905.6V946.47C1619.39 949.059 1618.52 951.566 1616.97 953.637C1615.41 955.709 1613.25 957.241 1610.78 958.02L588.389 1220.12H585.499V1220.53ZM573.119 1180.53L589.219 1195.8L1596.33 937.8V920.88L573.119 1180.53Z" fill="#0093D7"/>
<path d="M2374.37 1176.78C2372.82 1176.78 2371.28 1176.51 2369.83 1175.96L1737.5 920.88C1735.33 920.044 1733.45 918.572 1732.13 916.656C1730.8 914.74 1730.09 912.47 1730.07 910.14V829.24C1730.07 825.12 1732.13 821.82 1735.43 819.34C1737.08 818.296 1738.96 817.675 1740.9 817.53C1742.85 817.385 1744.8 817.722 1746.58 818.51L2378.91 1087.22C2381 1088.12 2382.78 1089.62 2384.03 1091.53C2385.27 1093.44 2385.93 1095.67 2385.91 1097.95V1165.23C2385.83 1167.18 2385.31 1169.09 2384.38 1170.81C2383.45 1172.52 2382.13 1174 2380.54 1175.13C2378.58 1176.43 2376.29 1177.15 2373.94 1177.2L2374.37 1176.78ZM1754 901.89L2362.81 1147.48V1105.38L1754 846.58V901.89Z" fill="#0093D7"/>
<path d="M2428 2148.81H2374.34C2372.82 2148.81 2371.32 2148.52 2369.92 2147.94C2368.51 2147.36 2367.24 2146.51 2366.17 2145.43C2365.09 2144.36 2364.24 2143.09 2363.66 2141.68C2363.08 2140.28 2362.79 2138.78 2362.79 2137.26V1097.53C2362.88 1095.62 2363.37 1093.75 2364.23 1092.05C2365.09 1090.34 2366.31 1088.84 2367.79 1087.63C2369.44 1086.62 2371.3 1085.98 2373.22 1085.77C2375.15 1085.55 2377.1 1085.77 2378.93 1086.39L2432.59 1107.85C2434.76 1108.68 2436.64 1110.15 2437.96 1112.07C2439.29 1113.98 2440 1116.25 2440.02 1118.58V2136.84C2440.02 2138.36 2439.72 2139.86 2439.14 2141.27C2438.56 2142.67 2437.71 2143.95 2436.64 2145.02C2435.57 2146.09 2434.29 2146.95 2432.89 2147.53C2431.48 2148.11 2429.98 2148.4 2428.46 2148.4L2428 2148.81ZM2385.9 2125.7H2416.03V1126.84L2385.9 1114.84V2125.67V2125.7Z" fill="#0093D7"/>
<path d="M2374.37 2148.81H2324.84C2323.32 2148.81 2321.82 2148.52 2320.42 2147.94C2319.01 2147.36 2317.74 2146.51 2316.67 2145.43C2315.59 2144.36 2314.74 2143.09 2314.16 2141.68C2313.58 2140.28 2313.29 2138.78 2313.29 2137.26V1182.56C2313.32 1180.13 2314.09 1177.77 2315.49 1175.78C2316.89 1173.79 2318.85 1172.27 2321.13 1171.42L2370.66 1153.67C2372.44 1153.01 2374.36 1152.82 2376.24 1153.11C2378.11 1153.4 2379.89 1154.16 2381.39 1155.32C2382.95 1156.35 2384.23 1157.76 2385.1 1159.42C2385.96 1161.08 2386.39 1162.94 2386.34 1164.81V2137.26C2386.34 2138.78 2386.04 2140.28 2385.47 2141.68C2384.89 2143.09 2384.04 2144.36 2382.96 2145.43C2381.89 2146.51 2380.61 2147.36 2379.21 2147.94C2377.81 2148.52 2376.31 2148.81 2374.79 2148.81H2374.37ZM2336.37 2125.7H2362.37V1181.7L2336.37 1191.19V2125.67V2125.7Z" fill="#0093D7"/>
<path d="M2324.84 1194.12C2324.84 1194.12 2321.95 1194.12 2320.71 1193.29L1737.91 965.04C1735.74 964.207 1733.86 962.737 1732.54 960.823C1731.21 958.908 1730.5 956.639 1730.48 954.31V909.31C1730.56 907.358 1731.08 905.45 1732.01 903.731C1732.94 902.013 1734.25 900.531 1735.84 899.4C1737.5 898.393 1739.36 897.76 1741.28 897.548C1743.21 897.335 1745.16 897.548 1747 898.17L2379.34 1153.26C2381.57 1154.13 2383.48 1155.67 2384.8 1157.66C2386.13 1159.66 2386.82 1162.01 2386.77 1164.4C2386.73 1166.78 2385.95 1169.09 2384.54 1171.01C2383.14 1172.93 2381.17 1174.37 2378.92 1175.13L2329.39 1192.88C2328.06 1193.33 2326.67 1193.61 2325.27 1193.71L2324.84 1194.12ZM1754 946.47L2325.24 1170.18L2341.76 1164.4L1754.42 927.48V946.88L1754 946.47Z" fill="#0093D7"/>
<path d="M630.08 1239.52C597.47 1239.52 579.31 1216.41 578.49 1215.58C574.36 1210.63 575.6 1203.2 580.55 1199.07C585.5 1194.94 592.93 1196.18 597.06 1201.13C601.697 1206.4 607.52 1210.5 614.05 1213.08C620.58 1215.67 627.63 1216.66 634.62 1215.99C654.85 1214.34 657.32 1187.51 657.32 1186.69C657.455 1184.13 658.478 1181.7 660.212 1179.82C661.946 1177.94 664.283 1176.72 666.82 1176.37C672.18 1175.13 677.13 1178.02 679.61 1182.56C680.44 1184.21 690.34 1201.13 709.33 1196.56C728.33 1192.44 729.55 1170.15 729.55 1168.91C729.55 1163.96 732.86 1159.83 737.81 1158.18C740.101 1157.38 742.59 1157.35 744.898 1158.1C747.207 1158.84 749.209 1160.32 750.6 1162.31C751.02 1163.13 765.05 1180.05 792.71 1171.8C817.47 1164.8 817.06 1149.92 817.06 1148.27C816.82 1145.46 817.608 1142.65 819.278 1140.38C820.947 1138.1 823.385 1136.51 826.14 1135.89C831.5 1134.65 837.7 1137.54 839.76 1142.89C841 1145.78 852.55 1170.95 878.14 1163.94C906.62 1156.51 909.14 1124.31 909.14 1123.07C909.14 1118.12 913.27 1113.58 918.22 1112.34C920.647 1111.74 923.203 1111.94 925.509 1112.91C927.815 1113.87 929.747 1115.56 931.02 1117.71C931.02 1117.71 957.85 1160.64 985.91 1154.03C1013.16 1147.84 1015.63 1096.66 1015.63 1095.83C1015.66 1092.96 1016.79 1090.2 1018.79 1088.13C1020.78 1086.06 1023.49 1084.83 1026.36 1084.69C1031.73 1084.69 1037.51 1087.99 1038.75 1093.77C1039.57 1097.48 1049.89 1131.77 1088.69 1125.96C1129.14 1120.19 1126.69 1070.66 1126.69 1068.59C1126.69 1062.81 1129.99 1057.86 1135.36 1056.59L1153.52 1052.05C1156.25 1051.39 1159.13 1051.74 1161.63 1053.02C1164.13 1054.31 1166.08 1056.45 1167.14 1059.05C1167.97 1060.7 1186.54 1103.63 1228.23 1094.96C1269.5 1086.29 1263.73 1036.76 1263.31 1034.7C1262.95 1031.93 1263.58 1029.13 1265.1 1026.79C1266.61 1024.44 1268.9 1022.71 1271.57 1021.9C1274.26 1021.05 1277.16 1021.21 1279.74 1022.35C1282.32 1023.49 1284.39 1025.53 1285.57 1028.09C1286.81 1030.16 1311.57 1081.75 1358.63 1071.84C1405.27 1061.94 1408.57 996.31 1408.57 995.48C1408.57 990.12 1412.7 985.58 1418.07 984.34C1423.84 983.51 1428.8 985.99 1430.86 990.94C1430.86 991.77 1460.17 1057.4 1499.79 1046.67C1538.59 1036.35 1536.94 963.67 1536.94 963.29C1536.87 960.3 1537.94 957.396 1539.93 955.166C1541.92 952.937 1544.69 951.551 1547.67 951.29C1554.27 951.29 1559.67 955.42 1560.46 961.2C1560.46 963.26 1567.89 1012.38 1605.87 1012.38H1607.93C1614.12 1012.38 1619.49 1017.38 1619.49 1023.52C1619.49 1030.13 1614.49 1035.52 1608.34 1035.52C1583.58 1037.17 1566.66 1024.79 1555.51 1009.52C1549.32 1034.7 1535.7 1061.52 1505.98 1069.37C1470.07 1078.86 1442.83 1052.03 1426.32 1028.92C1418.89 1054.09 1401.97 1086.29 1363.58 1094.54C1329.74 1101.97 1302.49 1085.46 1284.33 1066.48C1278.97 1088.35 1264.52 1111.05 1232.74 1117.66C1189.81 1126.74 1162.16 1098.66 1149.74 1076.8C1148.5 1103.21 1135.29 1142.8 1091.54 1149.03C1064.3 1153.16 1044.9 1143.25 1032.93 1130.45C1027.15 1149.85 1015.18 1171.32 990.83 1176.68C963.17 1182.87 940.06 1164.68 925.61 1149.03C919.42 1163.47 907.04 1179.98 883.51 1186.18C860.81 1191.95 843.51 1183.7 831.92 1172.55C825.73 1181.22 815.41 1189.06 798.48 1194.02C776.19 1200.62 759.27 1196.08 747.72 1189.89C742.35 1202.69 732.03 1215.48 713.46 1219.61C696.95 1222.91 683.74 1218.37 674.25 1211.35C668.05 1224.97 656.08 1238.18 636.25 1239.83H629.65L630.08 1239.52Z" fill="#0093D7"/>
<path d="M1385.83 2152.94H1338.78C1337.26 2152.94 1335.76 2152.65 1334.35 2152.07C1332.95 2151.49 1331.67 2150.64 1330.6 2149.56C1329.52 2148.49 1328.67 2147.21 1328.09 2145.81C1327.51 2144.4 1327.22 2142.9 1327.22 2141.38V1367.89C1327.22 1366.37 1327.52 1364.87 1328.1 1363.46C1328.68 1362.06 1329.53 1360.78 1330.6 1359.71C1331.67 1358.64 1332.95 1357.78 1334.35 1357.2C1335.76 1356.62 1337.26 1356.33 1338.78 1356.33C1341.82 1356.4 1344.73 1357.64 1346.88 1359.79C1349.03 1361.94 1350.27 1364.85 1350.33 1367.89V2129.41H1373.86V1381.51C1373.86 1379.99 1374.16 1378.49 1374.74 1377.08C1375.32 1375.68 1376.17 1374.4 1377.24 1373.33C1378.31 1372.26 1379.59 1371.4 1380.99 1370.82C1382.4 1370.24 1383.9 1369.95 1385.42 1369.95C1388.47 1370.01 1391.38 1371.25 1393.54 1373.4C1395.7 1375.55 1396.94 1378.46 1397 1381.51V2140.97C1397 2142.49 1396.71 2143.99 1396.13 2145.4C1395.55 2146.8 1394.7 2148.08 1393.63 2149.15C1392.55 2150.22 1391.28 2151.08 1389.88 2151.66C1388.47 2152.24 1386.97 2152.53 1385.45 2152.53L1385.83 2152.94Z" fill="#0093D7"/>
<path d="M1427.11 2152.94H1385.83C1384.31 2152.94 1382.81 2152.65 1381.4 2152.07C1380 2151.49 1378.72 2150.63 1377.65 2149.56C1376.58 2148.49 1375.72 2147.21 1375.14 2145.81C1374.56 2144.4 1374.27 2142.9 1374.27 2141.38C1374.34 2138.34 1375.58 2135.43 1377.73 2133.28C1379.88 2131.13 1382.79 2129.89 1385.83 2129.83H1415.55V1372.43C1415.55 1370.91 1415.84 1369.41 1416.42 1368C1417 1366.6 1417.85 1365.32 1418.93 1364.25C1420 1363.17 1421.28 1362.32 1422.68 1361.74C1424.09 1361.16 1425.59 1360.87 1427.11 1360.87C1430.15 1360.94 1433.05 1362.18 1435.21 1364.33C1437.36 1366.48 1438.6 1369.39 1438.66 1372.43V2141.43C1438.66 2142.94 1438.36 2144.44 1437.77 2145.84C1437.19 2147.24 1436.34 2148.51 1435.27 2149.58C1434.2 2150.65 1432.92 2151.49 1431.52 2152.07C1430.12 2152.65 1428.62 2152.94 1427.11 2152.94Z" fill="#0093D7"/>
<path d="M1309.06 1407.1C1304.21 1407.18 1299.37 1406.76 1294.61 1405.86L628 1239.11C621.81 1237.46 617.68 1231.27 619.33 1225.11C620.98 1218.95 627.17 1214.8 633.33 1216.45L1299.15 1382.75C1306.15 1383.98 1320.62 1383.98 1325.15 1379.44C1325.97 1378.62 1327.62 1376.55 1326.8 1369.95C1325.56 1363.76 1330.1 1357.57 1336.29 1356.33C1339.35 1355.78 1342.51 1356.48 1345.06 1358.25C1347.62 1360.03 1349.36 1362.76 1349.91 1365.82C1352.8 1381.51 1347.02 1391 1341.66 1396.37C1332.58 1405.45 1318.95 1407.1 1308.66 1407.1H1309.06Z" fill="#0093D7"/>
<path d="M1399 1393.48H1394.05L699 1220.12C692.81 1218.47 688.68 1212.28 690.33 1206.12C691.98 1199.96 697.76 1195.8 704.33 1197.45L1397.8 1370.36C1400.69 1370.36 1413.48 1369.54 1418.44 1364.58C1419.26 1363.76 1421.33 1361.7 1420.09 1355.5C1419.66 1352.44 1420.46 1349.33 1422.31 1346.86C1424.17 1344.38 1426.93 1342.74 1429.99 1342.3C1436.19 1341.06 1442.38 1346.01 1443.2 1352.2C1445.27 1366.65 1439.9 1375.73 1435.36 1380.68C1424.63 1391.83 1407.29 1393.48 1399 1393.48Z" fill="#0093D7"/>
<path d="M1466.73 1372.84C1449.81 1372.84 1432.88 1366.65 1428.34 1365L771.65 1196.59C768.714 1195.7 766.241 1193.7 764.756 1191.02C763.272 1188.34 762.893 1185.18 763.701 1182.22C764.509 1179.26 766.44 1176.74 769.082 1175.18C771.725 1173.63 774.87 1173.16 777.85 1173.89L1435.77 1342.67C1448.98 1347.67 1470.03 1352.16 1478.29 1347.21C1479.11 1346.8 1481.18 1345.15 1481.59 1340.21C1482 1333.61 1487.37 1328.21 1494.38 1329.48C1500.99 1329.89 1505.53 1335.67 1505.12 1342.28C1503.88 1356.28 1496.45 1363.28 1490.67 1367.04C1483.67 1371.17 1475.4 1372.82 1467.14 1372.82L1466.73 1372.84Z" fill="#0093D7"/>
<path d="M1541 1360.04C1529.29 1360.02 1517.64 1358.49 1506.32 1355.5L863.7 1187.93C860.706 1187.08 858.165 1185.09 856.62 1182.39C855.076 1179.69 854.652 1176.49 855.44 1173.48C855.838 1171.98 856.53 1170.58 857.474 1169.36C858.418 1168.13 859.597 1167.1 860.941 1166.33C862.285 1165.57 863.768 1165.07 865.305 1164.88C866.841 1164.7 868.4 1164.81 869.89 1165.23L1512.96 1333.23C1512.96 1333.23 1562.08 1346.43 1575.7 1322.49C1579 1316.72 1586.02 1315.06 1591.79 1318.37C1597.56 1321.68 1599.22 1328.69 1595.92 1334.46C1583.54 1355.51 1560.42 1360.46 1541.03 1360.46L1541 1360.04Z" fill="#0093D7"/>
<path d="M1605 1343.53H1602.11L965.649 1175.96C962.656 1175.11 960.114 1173.12 958.569 1170.42C957.025 1167.72 956.602 1164.52 957.389 1161.51C957.788 1160.01 958.479 1158.61 959.423 1157.39C960.367 1156.16 961.546 1155.13 962.89 1154.36C964.234 1153.6 965.718 1153.1 967.254 1152.91C968.79 1152.73 970.349 1152.84 971.839 1153.26L1608.3 1320.83C1611.29 1321.68 1613.84 1323.66 1615.38 1326.37C1616.93 1329.07 1617.35 1332.27 1616.56 1335.28C1615.32 1340.65 1610.37 1343.95 1605 1343.95V1343.53Z" fill="#0093D7"/>
<path d="M1607.89 1289.46H1605L1068 1148.72C1065.01 1147.87 1062.47 1145.88 1060.92 1143.18C1059.38 1140.48 1058.96 1137.28 1059.75 1134.27C1060.15 1132.77 1060.84 1131.37 1061.78 1130.15C1062.72 1128.92 1063.9 1127.89 1065.24 1127.12C1066.59 1126.35 1068.07 1125.86 1069.61 1125.67C1071.14 1125.48 1072.7 1125.59 1074.19 1126.01L1611.19 1266.76C1614.18 1267.61 1616.73 1269.6 1618.27 1272.3C1619.81 1275 1620.24 1278.2 1619.45 1281.21C1618.21 1286.57 1613.26 1289.88 1607.89 1289.88V1289.46Z" fill="#0093D7"/>
<path d="M1605 1243.67C1603.75 1243.68 1602.51 1243.54 1601.29 1243.26L1200.5 1116.52C1197.55 1115.5 1195.1 1113.4 1193.65 1110.64C1192.19 1107.89 1191.84 1104.68 1192.66 1101.67C1194.73 1095.48 1200.92 1092.18 1207.52 1093.83L1608.3 1220.53C1611.25 1221.55 1613.71 1223.65 1615.17 1226.41C1616.62 1229.17 1616.98 1232.38 1616.15 1235.39C1615.39 1237.76 1613.91 1239.84 1611.91 1241.33C1609.91 1242.81 1607.49 1243.63 1605 1243.67Z" fill="#0093D7"/>
<path d="M1605 1180.08C1603.75 1180.09 1602.51 1179.95 1601.29 1179.67L1330.11 1093.82C1328.59 1093.39 1327.17 1092.65 1325.94 1091.66C1324.7 1090.67 1323.68 1089.45 1322.93 1088.06C1322.17 1086.67 1321.71 1085.14 1321.55 1083.57C1321.39 1082 1321.55 1080.41 1322.02 1078.9C1322.49 1077.38 1323.25 1075.98 1324.26 1074.77C1325.28 1073.56 1326.53 1072.56 1327.93 1071.84C1329.34 1071.11 1330.87 1070.68 1332.45 1070.55C1334.02 1070.43 1335.61 1070.62 1337.11 1071.12L1608.3 1156.97C1611.25 1157.98 1613.71 1160.09 1615.17 1162.85C1616.62 1165.61 1616.98 1168.82 1616.15 1171.83C1615.39 1174.2 1613.9 1176.27 1611.9 1177.75C1609.9 1179.23 1607.49 1180.04 1605 1180.08Z" fill="#0093D7"/>
<path d="M1607.89 1110.74C1606.64 1110.75 1605.4 1110.61 1604.18 1110.33L1479.11 1069.05C1477.64 1068.57 1476.29 1067.8 1475.12 1066.79C1473.95 1065.78 1472.99 1064.55 1472.3 1063.17C1471.61 1061.79 1471.2 1060.28 1471.09 1058.74C1470.99 1057.2 1471.19 1055.65 1471.68 1054.19C1472.69 1051.25 1474.82 1048.83 1477.59 1047.44C1480.37 1046.06 1483.58 1045.81 1486.54 1046.77L1611.61 1088.04C1613.08 1088.52 1614.43 1089.29 1615.6 1090.3C1616.77 1091.31 1617.73 1092.54 1618.42 1093.92C1619.11 1095.3 1619.52 1096.81 1619.63 1098.35C1619.73 1099.89 1619.53 1101.44 1619.04 1102.9C1618.28 1105.27 1616.79 1107.34 1614.79 1108.82C1612.79 1110.3 1610.38 1111.11 1607.89 1111.15V1110.74Z" fill="#0093D7"/>
<path d="M2230.73 1237.46C2220.65 1237.45 2210.64 1235.92 2201.02 1232.92L1738.32 1080.2C1736.83 1079.73 1735.45 1078.98 1734.25 1077.97C1733.06 1076.96 1732.08 1075.73 1731.36 1074.34C1730.65 1072.95 1730.22 1071.43 1730.11 1069.87C1729.99 1068.32 1730.18 1066.75 1730.68 1065.27C1731.17 1063.79 1731.95 1062.42 1732.98 1061.24C1734.01 1060.07 1735.26 1059.11 1736.67 1058.42C1738.07 1057.74 1739.6 1057.34 1741.16 1057.25C1742.72 1057.16 1744.28 1057.39 1745.75 1057.91L2208.45 1210.67C2210.92 1211.49 2268.3 1229.67 2293.06 1169.81C2293.6 1168.36 2294.44 1167.04 2295.52 1165.92C2296.6 1164.81 2297.9 1163.94 2299.33 1163.36C2300.77 1162.77 2302.31 1162.5 2303.86 1162.54C2305.41 1162.58 2306.93 1162.95 2308.33 1163.61C2311.14 1164.86 2313.36 1167.15 2314.52 1170C2315.67 1172.85 2315.67 1176.04 2314.52 1178.89C2295.12 1224.7 2259.21 1237.5 2230.32 1237.5L2230.73 1237.46Z" fill="#0093D7"/>
<path d="M2079.25 1268C2066.34 1267.87 2053.53 1265.78 2041.25 1261.81L1738.32 1158.67C1736.83 1158.2 1735.45 1157.45 1734.25 1156.44C1733.06 1155.43 1732.08 1154.2 1731.36 1152.81C1730.65 1151.42 1730.22 1149.9 1730.11 1148.34C1729.99 1146.79 1730.18 1145.22 1730.68 1143.74C1731.17 1142.26 1731.95 1140.89 1732.98 1139.71C1734.01 1138.54 1735.26 1137.58 1736.67 1136.89C1738.07 1136.21 1739.6 1135.81 1741.16 1135.72C1742.72 1135.63 1744.28 1135.86 1745.75 1136.38L2048.75 1239.57C2058.66 1243.29 2088.38 1249.89 2105.3 1237.92C2115.2 1230.92 2120.16 1218.11 2120.16 1199.12C2120.16 1197.6 2120.45 1196.1 2121.03 1194.7C2121.61 1193.29 2122.46 1192.02 2123.54 1190.94C2124.61 1189.87 2125.88 1189.02 2127.29 1188.44C2128.69 1187.86 2130.19 1187.56 2131.71 1187.56C2134.76 1187.62 2137.66 1188.86 2139.81 1191.02C2141.97 1193.17 2143.21 1196.07 2143.27 1199.12C2143.27 1225.95 2135.02 1245.35 2118.51 1256.91C2106.51 1265.57 2092.09 1268.05 2078.88 1268.05L2079.25 1268Z" fill="#0093D7"/>
<path d="M1954.19 1296.48C1934.38 1296.48 1916.19 1289.88 1912.92 1288.64L1737.92 1225.9C1731.73 1223.84 1728.84 1216.82 1730.92 1211.04C1732.99 1204.85 1739.59 1201.96 1745.78 1204.04L1920.78 1266.78C1930.27 1270.5 1960.78 1278.34 1974.02 1267.61C1981.02 1262.24 1983.52 1251.1 1981.45 1234.61C1981.24 1233.06 1981.34 1231.49 1981.75 1229.98C1982.16 1228.47 1982.87 1227.06 1983.83 1225.83C1984.79 1224.6 1985.99 1223.58 1987.35 1222.81C1988.71 1222.05 1990.22 1221.57 1991.77 1221.4C1997.55 1220.57 2004.15 1225.11 2004.98 1231.72C2008.28 1256.9 2002.91 1275.06 1988.88 1286.2C1978.98 1294.04 1966.18 1296.52 1953.8 1296.52L1954.19 1296.48Z" fill="#0093D7"/>
<path d="M1849.35 1315.88C1845.9 1315.81 1842.45 1315.53 1839.03 1315.05L1738.73 1286.16C1735.77 1285.28 1733.29 1283.27 1731.82 1280.56C1730.35 1277.85 1730.01 1274.67 1730.89 1271.71C1731.77 1268.75 1733.78 1266.27 1736.49 1264.8C1739.2 1263.33 1742.38 1262.99 1745.34 1263.87L1844.4 1292.77C1847.29 1292.77 1859.67 1294 1867.1 1287.77C1871.64 1283.65 1874.1 1276.63 1873.7 1267.14C1873.65 1265.59 1873.91 1264.04 1874.47 1262.59C1875.03 1261.14 1875.87 1259.82 1876.95 1258.7C1878.03 1257.58 1879.32 1256.69 1880.74 1256.08C1882.17 1255.47 1883.71 1255.15 1885.26 1255.14C1886.78 1255.14 1888.28 1255.43 1889.68 1256.01C1891.09 1256.59 1892.36 1257.44 1893.44 1258.52C1894.51 1259.59 1895.36 1260.86 1895.94 1262.27C1896.52 1263.67 1896.82 1265.17 1896.82 1266.69C1896.82 1284.03 1892.28 1296.82 1881.55 1305.9C1870.82 1314.98 1858 1316.67 1848.94 1316.67L1849.35 1315.88Z" fill="#0093D7"/>
<path d="M1757.31 1340.23C1746.99 1340.23 1738.73 1336.93 1737.5 1336.1C1736.09 1335.5 1734.81 1334.64 1733.74 1333.55C1732.67 1332.46 1731.82 1331.17 1731.24 1329.75C1730.67 1328.33 1730.38 1326.81 1730.39 1325.28C1730.4 1323.75 1730.71 1322.24 1731.31 1320.83C1731.91 1319.42 1732.77 1318.14 1733.86 1317.07C1734.95 1316 1736.24 1315.15 1737.66 1314.57C1739.08 1314 1740.6 1313.71 1742.13 1313.72C1743.66 1313.73 1745.17 1314.04 1746.58 1314.64C1746.58 1314.64 1758.13 1319.18 1765.15 1314.64C1770.93 1310.93 1774.23 1301.43 1774.23 1287.4C1774.23 1280.8 1780.01 1276.26 1786.23 1275.84C1792.83 1275.84 1797.79 1281.62 1797.79 1287.84C1797.37 1310.54 1790.36 1326.23 1777.56 1334.07C1771.41 1338.01 1764.22 1340.03 1756.92 1339.85L1757.31 1340.23Z" fill="#0093D7"/>
</g>
<defs>
<clipPath id="clip0_2013_81">
<rect width="1942" height="1367.94" fill="white" transform="translate(498 785)"/>
</clipPath>
</defs>
</svg>
