<svg id="Layer_1" data-name="Layer 1" xmlns="http://www.w3.org/2000/svg" viewBox="0 0 1080 1080"><defs><style>.cls-1{fill:#444;}</style></defs><path id="_12" data-name="12" class="cls-1" d="M752.63,124.36H327.37a50.16,50.16,0,0,0-50.1,50.11V905.54a50.16,50.16,0,0,0,50.1,50.1H752.63a50.16,50.16,0,0,0,50.1-50.1V174.47A50.16,50.16,0,0,0,752.63,124.36ZM482.92,870.26A24.12,24.12,0,0,1,507,846.14h70.31a24.12,24.12,0,1,1,0,48.24H507A24.12,24.12,0,0,1,482.92,870.26Zm240.31-75.33H356.37V227.07H723.23Z"/></svg>