<svg width="526" height="832" viewBox="0 0 526 832" fill="none" xmlns="http://www.w3.org/2000/svg">
<path d="M475.63 0.360107H50.37C37.0858 0.375991 24.3504 5.66084 14.9579 15.0551C5.56553 24.4494 0.283221 37.1859 0.269989 50.4701V781.54C0.285868 794.823 5.56935 807.556 14.9615 816.949C24.3536 826.341 37.0875 831.624 50.37 831.64H475.63C488.912 831.624 501.646 826.341 511.039 816.949C520.431 807.556 525.714 794.823 525.73 781.54V50.4701C525.717 37.1859 520.434 24.4494 511.042 15.0551C501.65 5.66084 488.914 0.375991 475.63 0.360107ZM205.92 746.26C205.92 739.87 208.456 733.741 212.97 729.219C217.485 724.697 223.61 722.151 230 722.14H300.31C306.707 722.14 312.842 724.681 317.365 729.205C321.889 733.728 324.43 739.863 324.43 746.26C324.43 752.657 321.889 758.792 317.365 763.316C312.842 767.839 306.707 770.38 300.31 770.38H230C223.61 770.37 217.485 767.824 212.97 763.301C208.456 758.779 205.92 752.65 205.92 746.26ZM446.23 670.93H79.37V103.07H446.23V670.93Z" fill="#444444"/>
</svg>
