<svg width="16" height="16" viewBox="0 0 16 16" fill="none" xmlns="http://www.w3.org/2000/svg">
<path d="M6.21387 15.6299H14.0801C14.5437 15.6299 14.9883 15.4457 15.3161 15.1179C15.644 14.7901 15.8281 14.3454 15.8281 13.8818V12.1338H6.21387V15.6299ZM6.21387 10.3857H15.8281V6.01562H6.21387V10.3857ZM4.46582 6.01562V10.3857H0.0957031V6.01562H4.46582ZM6.21387 4.26758H15.8281V2.51953C15.8281 2.05592 15.644 1.6113 15.3161 1.28348C14.9883 0.955653 14.5437 0.771484 14.0801 0.771484H6.21387V4.26758ZM4.46582 0.771484V4.26758H0.0957031V2.51953C0.0957031 2.05592 0.279872 1.6113 0.607694 1.28348C0.935516 0.955653 1.38014 0.771484 1.84375 0.771484H4.46582ZM4.46582 12.1338V15.6299H1.84375C1.38014 15.6299 0.935516 15.4457 0.607694 15.1179C0.279872 14.7901 0.0957031 14.3454 0.0957031 13.8818V12.1338H4.46582Z" fill="#2684FC"/>
</svg>
