<svg width="7" height="12" viewBox="0 0 7 12" fill="none" xmlns="http://www.w3.org/2000/svg">
<path d="M6.1904 6.51559L1.29929 11.4067C1.25385 11.4521 1.1999 11.4882 1.14053 11.5128C1.08115 11.5374 1.01752 11.55 0.953249 11.55C0.888983 11.55 0.825345 11.5374 0.765971 11.5128C0.706596 11.4882 0.652647 11.4521 0.607204 11.4067C0.56176 11.3612 0.525713 11.3073 0.501119 11.2479C0.476525 11.1885 0.463867 11.1249 0.463867 11.0606C0.463867 10.9964 0.476525 10.9327 0.501119 10.8734C0.525713 10.814 0.56176 10.76 0.607204 10.7146L5.15287 6.16954L0.607204 1.62449C0.515427 1.53271 0.463867 1.40824 0.463867 1.27844C0.463867 1.14865 0.515427 1.02418 0.607204 0.932399C0.698981 0.840622 0.823457 0.789063 0.953249 0.789062C1.08304 0.789062 1.20752 0.840622 1.29929 0.932399L6.1904 5.8235C6.23587 5.86892 6.27195 5.92287 6.29656 5.98224C6.32118 6.04162 6.33384 6.10527 6.33384 6.16954C6.33384 6.23382 6.32118 6.29747 6.29656 6.35684C6.27195 6.41622 6.23587 6.47017 6.1904 6.51559Z" fill="#67667A"/>
</svg>
