<svg width="16" height="16" viewBox="0 0 16 16" fill="none" xmlns="http://www.w3.org/2000/svg">
<path d="M12.3385 11.5589L15.4808 14.7005L14.4427 15.7386L11.3011 12.5963C10.1322 13.5334 8.67828 14.0431 7.18013 14.0409C3.53529 14.0409 0.577148 11.0828 0.577148 7.43795C0.577148 3.7931 3.53529 0.834961 7.18013 0.834961C10.825 0.834961 13.7831 3.7931 13.7831 7.43795C13.7852 8.93609 13.2756 10.39 12.3385 11.5589ZM10.8668 11.0146C11.7979 10.057 12.3179 8.77353 12.3158 7.43795C12.3158 4.60013 10.0172 2.30229 7.18013 2.30229C4.34232 2.30229 2.04448 4.60013 2.04448 7.43795C2.04448 10.275 4.34232 12.5736 7.18013 12.5736C8.51572 12.5757 9.79923 12.0557 10.7568 11.1246L10.8668 11.0146V11.0146Z" fill="#525866"/>
</svg>
