<svg id="Layer_1" data-name="Layer 1" xmlns="http://www.w3.org/2000/svg" viewBox="0 0 1080 1080"><defs><style>.cls-1{fill:none;stroke:#222;stroke-linecap:round;stroke-linejoin:round;stroke-width:25.47px;}</style></defs><g id="_4" data-name="4"><path class="cls-1" d="M378.81,366.26s21.95-27,161.19-27c140.24,0,161.19,27,161.19,27l11.06,61a31.83,31.83,0,0,0,31.5,27.25H853.18a33.48,33.48,0,0,0,33.16-38.06l-4.53-32.77C869.06,273.81,694.76,237.08,540,237.08c-150.26,0-332.07,35.23-341.81,146.58l-4.53,32.77a33.48,33.48,0,0,0,33.16,38.06H336.25a31.83,31.83,0,0,0,31.5-27.25Z"/><path class="cls-1" d="M772.45,530.73,698.71,523a54.16,54.16,0,0,1-47.91-45.88l-7.29-48.85a33.6,33.6,0,0,0-33.24-28.65H469.73a33.6,33.6,0,0,0-33.24,28.65l-7.29,48.85A54.16,54.16,0,0,1,381.29,523l-73.74,7.76A76.75,76.75,0,0,0,240,593.58L211.67,752.72a76.74,76.74,0,0,0,75.55,90.2H792.78a76.74,76.74,0,0,0,75.55-90.2L840,593.58A76.75,76.75,0,0,0,772.45,530.73Z"/><circle class="cls-1" cx="540" cy="639.44" r="100.93"/></g></svg>