<svg width="27" height="22" viewBox="0 0 27 22" fill="none" xmlns="http://www.w3.org/2000/svg">
<path d="M25.9167 3.13096C25.0016 3.53646 24.0185 3.81044 22.985 3.93428C24.0393 3.30302 24.8481 2.30133 25.2295 1.10895C24.2432 1.69418 23.1505 2.11941 21.9877 2.34736C21.0562 1.35663 19.7301 0.736328 18.2615 0.736328C15.4428 0.736328 13.1566 3.02246 13.1566 5.84341C13.1566 6.24234 13.2027 6.6303 13.2881 7.00511C9.04356 6.7914 5.28338 4.75843 2.76491 1.67007C2.32653 2.42627 2.07447 3.30302 2.07447 4.23676C2.07447 6.00781 2.97643 7.57171 4.34526 8.48683C3.50796 8.45943 2.72107 8.23038 2.03282 7.84789V7.91365C2.03282 10.3872 3.79181 12.4508 6.12835 12.9199C5.69874 13.0361 5.24831 13.0975 4.78363 13.0975C4.45485 13.0975 4.13374 13.0668 3.82249 13.0076C4.47239 15.0351 6.35741 16.5124 8.59203 16.5519C6.844 17.9218 4.64226 18.7383 2.25091 18.7383C1.83884 18.7383 1.43225 18.7141 1.03223 18.667C3.29206 20.117 5.97492 20.9608 8.85725 20.9608C18.2495 20.9608 23.3839 13.1818 23.3839 6.43522C23.3839 6.21603 23.3785 5.99465 23.3686 5.77547C24.3659 5.05434 25.2317 4.15676 25.9145 3.13425L25.9167 3.13096Z" stroke="#606061" stroke-width="1.24422" stroke-linejoin="round"/>
</svg>
