<svg width="61" height="78" viewBox="0 0 61 78" fill="none" xmlns="http://www.w3.org/2000/svg">
<path d="M49.3713 28.125H54.8184C55.5407 28.125 56.2335 28.4119 56.7442 28.9227C57.255 29.4335 57.5419 30.1262 57.5419 30.8485V71.7015C57.5419 72.4238 57.255 73.1166 56.7442 73.6274C56.2335 74.1381 55.5407 74.4251 54.8184 74.4251H5.79482C5.0725 74.4251 4.37976 74.1381 3.86899 73.6274C3.35823 73.1166 3.07129 72.4238 3.07129 71.7015V30.8485C3.07129 30.1262 3.35823 29.4335 3.86899 28.9227C4.37976 28.4119 5.0725 28.125 5.79482 28.125H11.2419" stroke="#525866" stroke-width="5.44707" stroke-linecap="round" stroke-linejoin="round"/>
<path d="M30.3066 41.7427V3.61328" stroke="#525866" stroke-width="5.44707" stroke-linecap="round" stroke-linejoin="round"/>
<path d="M19.4111 14.5074L30.3053 3.61328L41.1994 14.5074" stroke="#525866" stroke-width="5.44707" stroke-linecap="round" stroke-linejoin="round"/>
</svg>
