<svg width="15" height="13" viewBox="0 0 15 13" fill="none" xmlns="http://www.w3.org/2000/svg">
<path fill-rule="evenodd" clip-rule="evenodd" d="M7.68001 4.78516C6.47189 4.78516 5.49251 5.62462 5.49251 6.66016C5.49251 7.69569 6.47189 8.53516 7.68001 8.53516C8.88814 8.53516 9.86751 7.69569 9.86751 6.66016C9.86751 5.62462 8.88814 4.78516 7.68001 4.78516ZM6.36751 6.66016C6.36751 6.03884 6.95514 5.53516 7.68001 5.53516C8.40489 5.53516 8.99251 6.03884 8.99251 6.66016C8.99251 7.28148 8.40489 7.78516 7.68001 7.78516C6.95514 7.78516 6.36751 7.28148 6.36751 6.66016Z" fill="#1C274C"/>
<path fill-rule="evenodd" clip-rule="evenodd" d="M7.68001 2.28516C5.04677 2.28516 3.2731 3.63726 2.24368 4.78359L2.22511 4.80426C1.9923 5.06342 1.77788 5.30212 1.63241 5.58436C1.47664 5.88659 1.40918 6.216 1.40918 6.66016C1.40918 7.10431 1.47664 7.43372 1.63241 7.73596C1.77788 8.0182 1.9923 8.25689 2.22512 8.51606L2.24368 8.53673C3.2731 9.68306 5.04677 11.0352 7.68001 11.0352C10.3133 11.0352 12.0869 9.68306 13.1164 8.53673L13.1349 8.51607C13.3677 8.2569 13.5821 8.0182 13.7276 7.73596C13.8834 7.43372 13.9508 7.10431 13.9508 6.66016C13.9508 6.216 13.8834 5.88659 13.7276 5.58436C13.5821 5.30211 13.3677 5.06342 13.1349 4.80424L13.1164 4.78359C12.0869 3.63725 10.3133 2.28516 7.68001 2.28516ZM2.93706 5.24106C3.88755 4.18262 5.43439 3.03516 7.68001 3.03516C9.92564 3.03516 11.4725 4.18262 12.423 5.24106C12.6788 5.52595 12.8287 5.69618 12.9272 5.88743C13.0194 6.06616 13.0758 6.28462 13.0758 6.66016C13.0758 7.03569 13.0194 7.25415 12.9272 7.43288C12.8287 7.62413 12.6788 7.79436 12.423 8.07926C11.4725 9.1377 9.92564 10.2852 7.68001 10.2852C5.43439 10.2852 3.88755 9.1377 2.93706 8.07926C2.68122 7.79436 2.53136 7.62413 2.43279 7.43288C2.34067 7.25415 2.28418 7.03569 2.28418 6.66016C2.28418 6.28462 2.34067 6.06616 2.43279 5.88743C2.53136 5.69618 2.68122 5.52595 2.93706 5.24106Z" fill="#1C274C"/>
<path d="M11.6797 1.66016L2.67969 11.6602" stroke="#86B9FB" stroke-linecap="round"/>
</svg>
