<svg id="Layer_1" data-name="Layer 1" xmlns="http://www.w3.org/2000/svg" viewBox="0 0 1080 1080"><defs><style>.cls-1{fill:#444;}</style></defs><path id="_13" data-name="13" class="cls-1" d="M862.32,217.68C776.23,131.58,661.76,84.16,540,84.16S303.77,131.58,217.68,217.68,84.16,418.24,84.16,540s47.42,236.23,133.52,322.32S418.24,995.84,540,995.84s236.23-47.42,322.32-133.52S995.84,661.76,995.84,540,948.42,303.77,862.32,217.68Zm13.79,539.26c-29.67-18.21-63.57-33.69-100.58-46.16a651,651,0,0,0,22.28-142.95H939.19A397.63,397.63,0,0,1,876.11,756.94ZM140.81,567.83H282.2a616.22,616.22,0,0,0,23.45,142.51C268.18,722.88,233.9,738.52,203.9,757A397.54,397.54,0,0,1,140.81,567.83ZM205.26,321c29.72,18.09,63.58,33.46,100.53,45.82a638,638,0,0,0-23.58,145.38H140.81A397.66,397.66,0,0,1,205.26,321Zm362.57,81.22a767.71,767.71,0,0,0,151.54-19.85A548.32,548.32,0,0,1,742,512.17H567.83Zm0-55.7V149.73c26.6,15.89,61.49,50.63,93.34,102.24a544.26,544.26,0,0,1,39.46,77.71A716.66,716.66,0,0,1,567.83,346.49ZM512.17,148.07v198.4a717.46,717.46,0,0,1-134.82-17.59,528.11,528.11,0,0,1,37.88-77.19C448.6,196.16,484.41,162.49,512.17,148.07Zm0,254.13v110H337.92a573.5,573.5,0,0,1,21.37-130.12C407.13,393.53,458.71,400.42,512.17,402.2ZM338,567.83H512.17V674.89c-53.51,1.78-105.15,8.68-153,20.18A560.94,560.94,0,0,1,338,567.83ZM512.17,730.61V931.2c-27.52-15.32-63-50.08-95.22-103a535.71,535.71,0,0,1-39.64-80A717.88,717.88,0,0,1,512.17,730.61Zm55.66,202.22V730.59c48,1.7,94.27,7.78,137,17.81C668.36,844.3,612.25,911.42,567.83,932.83Zm0-257.94V567.83H742.1a590.75,590.75,0,0,1-20,127.56C673.85,683.71,621.76,676.69,567.83,674.89ZM797.78,512.17a603.5,603.5,0,0,0-24.88-145c37.46-12.43,71.78-27.94,101.84-46.22a397.66,397.66,0,0,1,64.45,191.2Zm43.05-235.75c-25.56,15-54.59,27.86-86.23,38.31a602.32,602.32,0,0,0-46.06-92,481.28,481.28,0,0,0-46.71-63.93A401.31,401.31,0,0,1,840.83,276.42ZM411.9,160.86A458.09,458.09,0,0,0,367.52,223a579.64,579.64,0,0,0-44.08,90.74c-31-10.33-59.41-22.87-84.24-37.37A401.26,401.26,0,0,1,411.9,160.86ZM237.49,801.69c25.25-14.93,54.27-27.81,86-38.37a593.47,593.47,0,0,0,45.94,93.79,462.23,462.23,0,0,0,45.69,63.07A401.36,401.36,0,0,1,237.49,801.69ZM670.93,918.15a445.74,445.74,0,0,0,43.38-61.3,574.81,574.81,0,0,0,44.25-93.18c30.81,10.44,59.05,23.19,84,38A401.61,401.61,0,0,1,670.93,918.15Z"/></svg>