<svg width="912" height="912" viewBox="0 0 912 912" fill="none" xmlns="http://www.w3.org/2000/svg">
<path d="M778.32 133.68C692.23 47.5801 577.76 0.160156 456 0.160156C334.24 0.160156 219.77 47.5801 133.68 133.68C47.59 219.78 0.160034 334.24 0.160034 456C0.160034 577.76 47.58 692.23 133.68 778.32C219.78 864.41 334.24 911.84 456 911.84C577.76 911.84 692.23 864.42 778.32 778.32C864.41 692.22 911.84 577.76 911.84 456C911.84 334.24 864.42 219.77 778.32 133.68ZM792.11 672.94C762.44 654.73 728.54 639.25 691.53 626.78C704.245 580.106 711.718 532.16 713.81 483.83H855.19C850.563 551.201 828.854 616.283 792.11 672.94ZM56.81 483.83H198.2C200.404 532.088 208.274 579.92 221.65 626.34C184.18 638.88 149.9 654.52 119.9 673C83.1395 616.328 61.4264 551.223 56.81 483.83ZM121.26 237C150.98 255.09 184.84 270.46 221.79 282.82C208.344 330.207 200.432 378.992 198.21 428.2H56.81C61.4982 359.986 83.6961 294.133 121.26 237ZM483.83 318.22C534.878 316.661 585.643 310.011 635.37 298.37C648.103 340.57 655.701 384.151 658 428.17H483.83V318.22ZM483.83 262.52V65.7301C510.43 81.6201 545.32 116.36 577.17 167.97C592.38 192.777 605.575 218.764 616.63 245.68C572.985 255.414 528.524 261.042 483.83 262.49V262.52ZM428.17 64.0702V262.47C382.775 260.888 337.632 254.998 293.35 244.88C303.858 218.163 316.526 192.348 331.23 167.69C364.6 112.16 400.41 78.4902 428.17 64.0702ZM428.17 318.2V428.2H253.92C256.017 384.149 263.187 340.488 275.29 298.08C323.13 309.53 374.71 316.42 428.17 318.2ZM254 483.83H428.17V590.89C374.66 592.67 323.02 599.57 275.17 611.07C263.244 569.612 256.14 526.916 254 483.83ZM428.17 646.61V847.2C400.65 831.88 365.17 797.12 332.95 744.2C317.534 718.683 304.274 691.923 293.31 664.2C337.605 654.082 382.761 648.192 428.17 646.61ZM483.83 848.83V646.59C531.83 648.29 578.1 654.37 620.83 664.4C584.36 760.3 528.25 827.42 483.83 848.83ZM483.83 590.89V483.83H658.1C656.114 526.953 649.407 569.729 638.1 611.39C589.85 599.71 537.76 592.69 483.83 590.89ZM713.78 428.17C711.431 379.003 703.076 330.308 688.9 283.17C726.36 270.74 760.68 255.23 790.74 236.95C828.304 294.083 850.502 359.936 855.19 428.15L713.78 428.17ZM756.83 192.42C731.27 207.42 702.24 220.28 670.6 230.73C657.899 198.806 642.489 168.027 624.54 138.73C610.752 116.173 595.129 94.7911 577.83 74.8002C647.051 97.0662 708.921 137.721 756.83 192.42ZM327.9 76.8602C311.403 96.3023 296.558 117.088 283.52 139C266.218 167.908 251.468 198.27 239.44 229.74C208.44 219.41 180.03 206.87 155.2 192.37C201.627 139.372 261.191 99.5335 327.9 76.8602ZM153.49 717.69C178.74 702.76 207.76 689.88 239.49 679.32C252.017 711.873 267.39 743.258 285.43 773.11C298.859 795.381 314.143 816.48 331.12 836.18C262.297 813.447 200.915 772.501 153.49 717.69ZM586.93 834.15C603.089 814.973 617.6 794.467 630.31 772.85C647.823 743.179 662.632 711.994 674.56 679.67C705.37 690.11 733.61 702.86 758.56 717.67C712.537 770.856 653.353 811.022 586.93 834.15Z" fill="#444444"/>
</svg>
