<svg width="29" height="21" viewBox="0 0 29 21" fill="none" xmlns="http://www.w3.org/2000/svg">
<path fill-rule="evenodd" clip-rule="evenodd" d="M25.1422 1.30866C26.3206 1.62412 27.2468 2.55022 27.5622 3.72869C28.1323 5.86254 28.1346 10.3173 28.1346 10.3173C28.1346 10.3173 28.1346 14.772 27.5622 16.9059C27.2468 18.0844 26.3206 19.0105 25.1422 19.3259C23.0084 19.8982 14.4481 19.8982 14.4481 19.8982C14.4481 19.8982 5.88793 19.8982 3.75407 19.3259C2.57561 19.0105 1.64951 18.0844 1.33405 16.9059C0.761719 14.772 0.761719 10.3173 0.761719 10.3173C0.761719 10.3173 0.761719 5.86254 1.33405 3.72869C1.64951 2.55022 2.57561 1.62412 3.75407 1.30866C5.88793 0.736328 14.4481 0.736328 14.4481 0.736328C14.4481 0.736328 23.0084 0.736328 25.1422 1.30866ZM18.8196 10.3177L11.7082 14.4231V6.21216L18.8196 10.3177Z" stroke="#606061" stroke-width="1.24422" stroke-linejoin="round"/>
</svg>
