<svg width="70" height="50" viewBox="0 0 70 50" fill="none" xmlns="http://www.w3.org/2000/svg">
<path d="M68.576 7.86114C68.1776 6.35315 67.3991 4.97791 66.3179 3.8723C65.2367 2.76669 63.8905 1.96927 62.4134 1.5594C56.9362 0.0250049 35.0242 2.71071e-05 35.0242 2.71071e-05C35.0242 2.71071e-05 13.1157 -0.0249522 7.6351 1.44165C6.15889 1.87037 4.81547 2.67907 3.73384 3.79011C2.65221 4.90115 1.86868 6.27722 1.45847 7.7862C0.0139959 13.3743 5.12438e-06 24.9643 5.12438e-06 24.9643C5.12438e-06 24.9643 -0.0139849 36.6115 1.42 42.1424C2.22443 45.2005 4.58526 47.6163 7.58614 48.4406C13.1192 49.975 34.9718 50 34.9718 50C34.9718 50 56.8838 50.025 62.3609 48.5619C63.8386 48.1528 65.186 47.3572 66.2699 46.2538C67.3538 45.1505 68.1366 43.7776 68.541 42.2709C69.989 36.6864 69.9995 25.0999 69.9995 25.0999C69.9995 25.0999 70.0694 13.4492 68.576 7.86114ZM28.0152 35.7015L28.0327 14.2913L46.2443 25.0143L28.0152 35.7015Z" fill="#213795"/>
</svg>
